<?xml version="1.0" encoding="utf-8" standalone="no"?>
<!DOCTYPE svg PUBLIC "-//W3C//DTD SVG 1.1//EN"
  "http://www.w3.org/Graphics/SVG/1.1/DTD/svg11.dtd">
<svg xmlns:xlink="http://www.w3.org/1999/xlink" width="792pt" height="302.4pt" viewBox="0 0 792 302.4" xmlns="http://www.w3.org/2000/svg" version="1.1">
 <metadata>
  <rdf:RDF xmlns:dc="http://purl.org/dc/elements/1.1/" xmlns:cc="http://creativecommons.org/ns#" xmlns:rdf="http://www.w3.org/1999/02/22-rdf-syntax-ns#">
   <cc:Work>
    <dc:type rdf:resource="http://purl.org/dc/dcmitype/StillImage"/>
    <dc:date>2026-07-21T13:40:43.931990</dc:date>
    <dc:format>image/svg+xml</dc:format>
    <dc:creator>
     <cc:Agent>
      <dc:title>Matplotlib v3.10.8, https://matplotlib.org/</dc:title>
     </cc:Agent>
    </dc:creator>
   </cc:Work>
  </rdf:RDF>
 </metadata>
 <defs>
  <style type="text/css">*{stroke-linejoin: round; stroke-linecap: butt}</style>
 </defs>
 <g id="figure_1">
  <g id="patch_1">
   <path d="M 0 302.4 
L 792 302.4 
L 792 0 
L 0 0 
z
" style="fill: #ffffff"/>
  </g>
  <g id="axes_1">
   <g id="patch_2">
    <path d="M 50.87 260.44 
L 390.6 260.44 
L 390.6 50.64 
L 50.87 50.64 
z
" style="fill: #ffffff"/>
   </g>
   <g id="matplotlib.axis_1">
    <g id="xtick_1">
     <g id="line2d_1">
      <path d="M 86.90197 260.44 
L 86.90197 50.64 
" clip-path="url(#p70d730b293)" style="fill: none; stroke: #b0b0b0; stroke-opacity: 0.3; stroke-width: 0.8; stroke-linecap: square"/>
     </g>
     <g id="line2d_2">
      <defs>
       <path id="mc0335fa8f9" d="M 0 0 
L 0 3.5 
" style="stroke: #000000; stroke-width: 0.8"/>
      </defs>
      <g>
       <use xlink:href="#mc0335fa8f9" x="86.90197" y="260.44" style="stroke: #000000; stroke-width: 0.8"/>
      </g>
     </g>
     <g id="text_1">
      <!-- 2 -->
      <g transform="translate(83.72072 275.038438) scale(0.1 -0.1)">
       <defs>
        <path id="DejaVuSans-32" d="M 1228 531 
L 3431 531 
L 3431 0 
L 469 0 
L 469 531 
Q 828 903 1448 1529 
Q 2069 2156 2228 2338 
Q 2531 2678 2651 2914 
Q 2772 3150 2772 3378 
Q 2772 3750 2511 3984 
Q 2250 4219 1831 4219 
Q 1534 4219 1204 4116 
Q 875 4013 500 3803 
L 500 4441 
Q 881 4594 1212 4672 
Q 1544 4750 1819 4750 
Q 2544 4750 2975 4387 
Q 3406 4025 3406 3419 
Q 3406 3131 3298 2873 
Q 3191 2616 2906 2266 
Q 2828 2175 2409 1742 
Q 1991 1309 1228 531 
z
" transform="scale(0.015625)"/>
       </defs>
       <use xlink:href="#DejaVuSans-32"/>
      </g>
     </g>
    </g>
    <g id="xtick_2">
     <g id="line2d_3">
      <path d="M 128.081364 260.44 
L 128.081364 50.64 
" clip-path="url(#p70d730b293)" style="fill: none; stroke: #b0b0b0; stroke-opacity: 0.3; stroke-width: 0.8; stroke-linecap: square"/>
     </g>
     <g id="line2d_4">
      <g>
       <use xlink:href="#mc0335fa8f9" x="128.081364" y="260.44" style="stroke: #000000; stroke-width: 0.8"/>
      </g>
     </g>
     <g id="text_2">
      <!-- 4 -->
      <g transform="translate(124.900114 275.038438) scale(0.1 -0.1)">
       <defs>
        <path id="DejaVuSans-34" d="M 2419 4116 
L 825 1625 
L 2419 1625 
L 2419 4116 
z
M 2253 4666 
L 3047 4666 
L 3047 1625 
L 3713 1625 
L 3713 1100 
L 3047 1100 
L 3047 0 
L 2419 0 
L 2419 1100 
L 313 1100 
L 313 1709 
L 2253 4666 
z
" transform="scale(0.015625)"/>
       </defs>
       <use xlink:href="#DejaVuSans-34"/>
      </g>
     </g>
    </g>
    <g id="xtick_3">
     <g id="line2d_5">
      <path d="M 169.260758 260.44 
L 169.260758 50.64 
" clip-path="url(#p70d730b293)" style="fill: none; stroke: #b0b0b0; stroke-opacity: 0.3; stroke-width: 0.8; stroke-linecap: square"/>
     </g>
     <g id="line2d_6">
      <g>
       <use xlink:href="#mc0335fa8f9" x="169.260758" y="260.44" style="stroke: #000000; stroke-width: 0.8"/>
      </g>
     </g>
     <g id="text_3">
      <!-- 6 -->
      <g transform="translate(166.079508 275.038438) scale(0.1 -0.1)">
       <defs>
        <path id="DejaVuSans-36" d="M 2113 2584 
Q 1688 2584 1439 2293 
Q 1191 2003 1191 1497 
Q 1191 994 1439 701 
Q 1688 409 2113 409 
Q 2538 409 2786 701 
Q 3034 994 3034 1497 
Q 3034 2003 2786 2293 
Q 2538 2584 2113 2584 
z
M 3366 4563 
L 3366 3988 
Q 3128 4100 2886 4159 
Q 2644 4219 2406 4219 
Q 1781 4219 1451 3797 
Q 1122 3375 1075 2522 
Q 1259 2794 1537 2939 
Q 1816 3084 2150 3084 
Q 2853 3084 3261 2657 
Q 3669 2231 3669 1497 
Q 3669 778 3244 343 
Q 2819 -91 2113 -91 
Q 1303 -91 875 529 
Q 447 1150 447 2328 
Q 447 3434 972 4092 
Q 1497 4750 2381 4750 
Q 2619 4750 2861 4703 
Q 3103 4656 3366 4563 
z
" transform="scale(0.015625)"/>
       </defs>
       <use xlink:href="#DejaVuSans-36"/>
      </g>
     </g>
    </g>
    <g id="xtick_4">
     <g id="line2d_7">
      <path d="M 210.440152 260.44 
L 210.440152 50.64 
" clip-path="url(#p70d730b293)" style="fill: none; stroke: #b0b0b0; stroke-opacity: 0.3; stroke-width: 0.8; stroke-linecap: square"/>
     </g>
     <g id="line2d_8">
      <g>
       <use xlink:href="#mc0335fa8f9" x="210.440152" y="260.44" style="stroke: #000000; stroke-width: 0.8"/>
      </g>
     </g>
     <g id="text_4">
      <!-- 8 -->
      <g transform="translate(207.258902 275.038438) scale(0.1 -0.1)">
       <defs>
        <path id="DejaVuSans-38" d="M 2034 2216 
Q 1584 2216 1326 1975 
Q 1069 1734 1069 1313 
Q 1069 891 1326 650 
Q 1584 409 2034 409 
Q 2484 409 2743 651 
Q 3003 894 3003 1313 
Q 3003 1734 2745 1975 
Q 2488 2216 2034 2216 
z
M 1403 2484 
Q 997 2584 770 2862 
Q 544 3141 544 3541 
Q 544 4100 942 4425 
Q 1341 4750 2034 4750 
Q 2731 4750 3128 4425 
Q 3525 4100 3525 3541 
Q 3525 3141 3298 2862 
Q 3072 2584 2669 2484 
Q 3125 2378 3379 2068 
Q 3634 1759 3634 1313 
Q 3634 634 3220 271 
Q 2806 -91 2034 -91 
Q 1263 -91 848 271 
Q 434 634 434 1313 
Q 434 1759 690 2068 
Q 947 2378 1403 2484 
z
M 1172 3481 
Q 1172 3119 1398 2916 
Q 1625 2713 2034 2713 
Q 2441 2713 2670 2916 
Q 2900 3119 2900 3481 
Q 2900 3844 2670 4047 
Q 2441 4250 2034 4250 
Q 1625 4250 1398 4047 
Q 1172 3844 1172 3481 
z
" transform="scale(0.015625)"/>
       </defs>
       <use xlink:href="#DejaVuSans-38"/>
      </g>
     </g>
    </g>
    <g id="xtick_5">
     <g id="line2d_9">
      <path d="M 251.619545 260.44 
L 251.619545 50.64 
" clip-path="url(#p70d730b293)" style="fill: none; stroke: #b0b0b0; stroke-opacity: 0.3; stroke-width: 0.8; stroke-linecap: square"/>
     </g>
     <g id="line2d_10">
      <g>
       <use xlink:href="#mc0335fa8f9" x="251.619545" y="260.44" style="stroke: #000000; stroke-width: 0.8"/>
      </g>
     </g>
     <g id="text_5">
      <!-- 10 -->
      <g transform="translate(245.257045 275.038438) scale(0.1 -0.1)">
       <defs>
        <path id="DejaVuSans-31" d="M 794 531 
L 1825 531 
L 1825 4091 
L 703 3866 
L 703 4441 
L 1819 4666 
L 2450 4666 
L 2450 531 
L 3481 531 
L 3481 0 
L 794 0 
L 794 531 
z
" transform="scale(0.015625)"/>
        <path id="DejaVuSans-30" d="M 2034 4250 
Q 1547 4250 1301 3770 
Q 1056 3291 1056 2328 
Q 1056 1369 1301 889 
Q 1547 409 2034 409 
Q 2525 409 2770 889 
Q 3016 1369 3016 2328 
Q 3016 3291 2770 3770 
Q 2525 4250 2034 4250 
z
M 2034 4750 
Q 2819 4750 3233 4129 
Q 3647 3509 3647 2328 
Q 3647 1150 3233 529 
Q 2819 -91 2034 -91 
Q 1250 -91 836 529 
Q 422 1150 422 2328 
Q 422 3509 836 4129 
Q 1250 4750 2034 4750 
z
" transform="scale(0.015625)"/>
       </defs>
       <use xlink:href="#DejaVuSans-31"/>
       <use xlink:href="#DejaVuSans-30" transform="translate(63.623047 0)"/>
      </g>
     </g>
    </g>
    <g id="xtick_6">
     <g id="line2d_11">
      <path d="M 292.798939 260.44 
L 292.798939 50.64 
" clip-path="url(#p70d730b293)" style="fill: none; stroke: #b0b0b0; stroke-opacity: 0.3; stroke-width: 0.8; stroke-linecap: square"/>
     </g>
     <g id="line2d_12">
      <g>
       <use xlink:href="#mc0335fa8f9" x="292.798939" y="260.44" style="stroke: #000000; stroke-width: 0.8"/>
      </g>
     </g>
     <g id="text_6">
      <!-- 12 -->
      <g transform="translate(286.436439 275.038438) scale(0.1 -0.1)">
       <use xlink:href="#DejaVuSans-31"/>
       <use xlink:href="#DejaVuSans-32" transform="translate(63.623047 0)"/>
      </g>
     </g>
    </g>
    <g id="xtick_7">
     <g id="line2d_13">
      <path d="M 333.978333 260.44 
L 333.978333 50.64 
" clip-path="url(#p70d730b293)" style="fill: none; stroke: #b0b0b0; stroke-opacity: 0.3; stroke-width: 0.8; stroke-linecap: square"/>
     </g>
     <g id="line2d_14">
      <g>
       <use xlink:href="#mc0335fa8f9" x="333.978333" y="260.44" style="stroke: #000000; stroke-width: 0.8"/>
      </g>
     </g>
     <g id="text_7">
      <!-- 14 -->
      <g transform="translate(327.615833 275.038438) scale(0.1 -0.1)">
       <use xlink:href="#DejaVuSans-31"/>
       <use xlink:href="#DejaVuSans-34" transform="translate(63.623047 0)"/>
      </g>
     </g>
    </g>
    <g id="xtick_8">
     <g id="line2d_15">
      <path d="M 375.157727 260.44 
L 375.157727 50.64 
" clip-path="url(#p70d730b293)" style="fill: none; stroke: #b0b0b0; stroke-opacity: 0.3; stroke-width: 0.8; stroke-linecap: square"/>
     </g>
     <g id="line2d_16">
      <g>
       <use xlink:href="#mc0335fa8f9" x="375.157727" y="260.44" style="stroke: #000000; stroke-width: 0.8"/>
      </g>
     </g>
     <g id="text_8">
      <!-- 16 -->
      <g transform="translate(368.795227 275.038438) scale(0.1 -0.1)">
       <use xlink:href="#DejaVuSans-31"/>
       <use xlink:href="#DejaVuSans-36" transform="translate(63.623047 0)"/>
      </g>
     </g>
    </g>
    <g id="text_9">
     <!-- contraction step -->
     <g transform="translate(179.946719 288.716563) scale(0.1 -0.1)">
      <defs>
       <path id="DejaVuSans-63" d="M 3122 3366 
L 3122 2828 
Q 2878 2963 2633 3030 
Q 2388 3097 2138 3097 
Q 1578 3097 1268 2742 
Q 959 2388 959 1747 
Q 959 1106 1268 751 
Q 1578 397 2138 397 
Q 2388 397 2633 464 
Q 2878 531 3122 666 
L 3122 134 
Q 2881 22 2623 -34 
Q 2366 -91 2075 -91 
Q 1284 -91 818 406 
Q 353 903 353 1747 
Q 353 2603 823 3093 
Q 1294 3584 2113 3584 
Q 2378 3584 2631 3529 
Q 2884 3475 3122 3366 
z
" transform="scale(0.015625)"/>
       <path id="DejaVuSans-6f" d="M 1959 3097 
Q 1497 3097 1228 2736 
Q 959 2375 959 1747 
Q 959 1119 1226 758 
Q 1494 397 1959 397 
Q 2419 397 2687 759 
Q 2956 1122 2956 1747 
Q 2956 2369 2687 2733 
Q 2419 3097 1959 3097 
z
M 1959 3584 
Q 2709 3584 3137 3096 
Q 3566 2609 3566 1747 
Q 3566 888 3137 398 
Q 2709 -91 1959 -91 
Q 1206 -91 779 398 
Q 353 888 353 1747 
Q 353 2609 779 3096 
Q 1206 3584 1959 3584 
z
" transform="scale(0.015625)"/>
       <path id="DejaVuSans-6e" d="M 3513 2113 
L 3513 0 
L 2938 0 
L 2938 2094 
Q 2938 2591 2744 2837 
Q 2550 3084 2163 3084 
Q 1697 3084 1428 2787 
Q 1159 2491 1159 1978 
L 1159 0 
L 581 0 
L 581 3500 
L 1159 3500 
L 1159 2956 
Q 1366 3272 1645 3428 
Q 1925 3584 2291 3584 
Q 2894 3584 3203 3211 
Q 3513 2838 3513 2113 
z
" transform="scale(0.015625)"/>
       <path id="DejaVuSans-74" d="M 1172 4494 
L 1172 3500 
L 2356 3500 
L 2356 3053 
L 1172 3053 
L 1172 1153 
Q 1172 725 1289 603 
Q 1406 481 1766 481 
L 2356 481 
L 2356 0 
L 1766 0 
Q 1100 0 847 248 
Q 594 497 594 1153 
L 594 3053 
L 172 3053 
L 172 3500 
L 594 3500 
L 594 4494 
L 1172 4494 
z
" transform="scale(0.015625)"/>
       <path id="DejaVuSans-72" d="M 2631 2963 
Q 2534 3019 2420 3045 
Q 2306 3072 2169 3072 
Q 1681 3072 1420 2755 
Q 1159 2438 1159 1844 
L 1159 0 
L 581 0 
L 581 3500 
L 1159 3500 
L 1159 2956 
Q 1341 3275 1631 3429 
Q 1922 3584 2338 3584 
Q 2397 3584 2469 3576 
Q 2541 3569 2628 3553 
L 2631 2963 
z
" transform="scale(0.015625)"/>
       <path id="DejaVuSans-61" d="M 2194 1759 
Q 1497 1759 1228 1600 
Q 959 1441 959 1056 
Q 959 750 1161 570 
Q 1363 391 1709 391 
Q 2188 391 2477 730 
Q 2766 1069 2766 1631 
L 2766 1759 
L 2194 1759 
z
M 3341 1997 
L 3341 0 
L 2766 0 
L 2766 531 
Q 2569 213 2275 61 
Q 1981 -91 1556 -91 
Q 1019 -91 701 211 
Q 384 513 384 1019 
Q 384 1609 779 1909 
Q 1175 2209 1959 2209 
L 2766 2209 
L 2766 2266 
Q 2766 2663 2505 2880 
Q 2244 3097 1772 3097 
Q 1472 3097 1187 3025 
Q 903 2953 641 2809 
L 641 3341 
Q 956 3463 1253 3523 
Q 1550 3584 1831 3584 
Q 2591 3584 2966 3190 
Q 3341 2797 3341 1997 
z
" transform="scale(0.015625)"/>
       <path id="DejaVuSans-69" d="M 603 3500 
L 1178 3500 
L 1178 0 
L 603 0 
L 603 3500 
z
M 603 4863 
L 1178 4863 
L 1178 4134 
L 603 4134 
L 603 4863 
z
" transform="scale(0.015625)"/>
       <path id="DejaVuSans-20" transform="scale(0.015625)"/>
       <path id="DejaVuSans-73" d="M 2834 3397 
L 2834 2853 
Q 2591 2978 2328 3040 
Q 2066 3103 1784 3103 
Q 1356 3103 1142 2972 
Q 928 2841 928 2578 
Q 928 2378 1081 2264 
Q 1234 2150 1697 2047 
L 1894 2003 
Q 2506 1872 2764 1633 
Q 3022 1394 3022 966 
Q 3022 478 2636 193 
Q 2250 -91 1575 -91 
Q 1294 -91 989 -36 
Q 684 19 347 128 
L 347 722 
Q 666 556 975 473 
Q 1284 391 1588 391 
Q 1994 391 2212 530 
Q 2431 669 2431 922 
Q 2431 1156 2273 1281 
Q 2116 1406 1581 1522 
L 1381 1569 
Q 847 1681 609 1914 
Q 372 2147 372 2553 
Q 372 3047 722 3315 
Q 1072 3584 1716 3584 
Q 2034 3584 2315 3537 
Q 2597 3491 2834 3397 
z
" transform="scale(0.015625)"/>
       <path id="DejaVuSans-65" d="M 3597 1894 
L 3597 1613 
L 953 1613 
Q 991 1019 1311 708 
Q 1631 397 2203 397 
Q 2534 397 2845 478 
Q 3156 559 3463 722 
L 3463 178 
Q 3153 47 2828 -22 
Q 2503 -91 2169 -91 
Q 1331 -91 842 396 
Q 353 884 353 1716 
Q 353 2575 817 3079 
Q 1281 3584 2069 3584 
Q 2775 3584 3186 3129 
Q 3597 2675 3597 1894 
z
M 3022 2063 
Q 3016 2534 2758 2815 
Q 2500 3097 2075 3097 
Q 1594 3097 1305 2825 
Q 1016 2553 972 2059 
L 3022 2063 
z
" transform="scale(0.015625)"/>
       <path id="DejaVuSans-70" d="M 1159 525 
L 1159 -1331 
L 581 -1331 
L 581 3500 
L 1159 3500 
L 1159 2969 
Q 1341 3281 1617 3432 
Q 1894 3584 2278 3584 
Q 2916 3584 3314 3078 
Q 3713 2572 3713 1747 
Q 3713 922 3314 415 
Q 2916 -91 2278 -91 
Q 1894 -91 1617 61 
Q 1341 213 1159 525 
z
M 3116 1747 
Q 3116 2381 2855 2742 
Q 2594 3103 2138 3103 
Q 1681 3103 1420 2742 
Q 1159 2381 1159 1747 
Q 1159 1113 1420 752 
Q 1681 391 2138 391 
Q 2594 391 2855 752 
Q 3116 1113 3116 1747 
z
" transform="scale(0.015625)"/>
      </defs>
      <use xlink:href="#DejaVuSans-63"/>
      <use xlink:href="#DejaVuSans-6f" transform="translate(54.980469 0)"/>
      <use xlink:href="#DejaVuSans-6e" transform="translate(116.162109 0)"/>
      <use xlink:href="#DejaVuSans-74" transform="translate(179.541016 0)"/>
      <use xlink:href="#DejaVuSans-72" transform="translate(218.75 0)"/>
      <use xlink:href="#DejaVuSans-61" transform="translate(259.863281 0)"/>
      <use xlink:href="#DejaVuSans-63" transform="translate(321.142578 0)"/>
      <use xlink:href="#DejaVuSans-74" transform="translate(376.123047 0)"/>
      <use xlink:href="#DejaVuSans-69" transform="translate(415.332031 0)"/>
      <use xlink:href="#DejaVuSans-6f" transform="translate(443.115234 0)"/>
      <use xlink:href="#DejaVuSans-6e" transform="translate(504.296875 0)"/>
      <use xlink:href="#DejaVuSans-20" transform="translate(567.675781 0)"/>
      <use xlink:href="#DejaVuSans-73" transform="translate(599.462891 0)"/>
      <use xlink:href="#DejaVuSans-74" transform="translate(651.5625 0)"/>
      <use xlink:href="#DejaVuSans-65" transform="translate(690.771484 0)"/>
      <use xlink:href="#DejaVuSans-70" transform="translate(752.294922 0)"/>
     </g>
    </g>
   </g>
   <g id="matplotlib.axis_2">
    <g id="ytick_1">
     <g id="line2d_17">
      <path d="M 50.87 251.651586 
L 390.6 251.651586 
" clip-path="url(#p70d730b293)" style="fill: none; stroke: #b0b0b0; stroke-opacity: 0.3; stroke-width: 0.8; stroke-linecap: square"/>
     </g>
     <g id="line2d_18">
      <defs>
       <path id="ma9d3b07380" d="M 0 0 
L -3.5 0 
" style="stroke: #000000; stroke-width: 0.8"/>
      </defs>
      <g>
       <use xlink:href="#ma9d3b07380" x="50.87" y="251.651586" style="stroke: #000000; stroke-width: 0.8"/>
      </g>
     </g>
     <g id="text_10">
      <!-- 0 -->
      <g transform="translate(37.5075 255.450805) scale(0.1 -0.1)">
       <use xlink:href="#DejaVuSans-30"/>
      </g>
     </g>
    </g>
    <g id="ytick_2">
     <g id="line2d_19">
      <path d="M 50.87 214.254082 
L 390.6 214.254082 
" clip-path="url(#p70d730b293)" style="fill: none; stroke: #b0b0b0; stroke-opacity: 0.3; stroke-width: 0.8; stroke-linecap: square"/>
     </g>
     <g id="line2d_20">
      <g>
       <use xlink:href="#ma9d3b07380" x="50.87" y="214.254082" style="stroke: #000000; stroke-width: 0.8"/>
      </g>
     </g>
     <g id="text_11">
      <!-- 50 -->
      <g transform="translate(31.145 218.053301) scale(0.1 -0.1)">
       <defs>
        <path id="DejaVuSans-35" d="M 691 4666 
L 3169 4666 
L 3169 4134 
L 1269 4134 
L 1269 2991 
Q 1406 3038 1543 3061 
Q 1681 3084 1819 3084 
Q 2600 3084 3056 2656 
Q 3513 2228 3513 1497 
Q 3513 744 3044 326 
Q 2575 -91 1722 -91 
Q 1428 -91 1123 -41 
Q 819 9 494 109 
L 494 744 
Q 775 591 1075 516 
Q 1375 441 1709 441 
Q 2250 441 2565 725 
Q 2881 1009 2881 1497 
Q 2881 1984 2565 2268 
Q 2250 2553 1709 2553 
Q 1456 2553 1204 2497 
Q 953 2441 691 2322 
L 691 4666 
z
" transform="scale(0.015625)"/>
       </defs>
       <use xlink:href="#DejaVuSans-35"/>
       <use xlink:href="#DejaVuSans-30" transform="translate(63.623047 0)"/>
      </g>
     </g>
    </g>
    <g id="ytick_3">
     <g id="line2d_21">
      <path d="M 50.87 176.856578 
L 390.6 176.856578 
" clip-path="url(#p70d730b293)" style="fill: none; stroke: #b0b0b0; stroke-opacity: 0.3; stroke-width: 0.8; stroke-linecap: square"/>
     </g>
     <g id="line2d_22">
      <g>
       <use xlink:href="#ma9d3b07380" x="50.87" y="176.856578" style="stroke: #000000; stroke-width: 0.8"/>
      </g>
     </g>
     <g id="text_12">
      <!-- 100 -->
      <g transform="translate(24.7825 180.655796) scale(0.1 -0.1)">
       <use xlink:href="#DejaVuSans-31"/>
       <use xlink:href="#DejaVuSans-30" transform="translate(63.623047 0)"/>
       <use xlink:href="#DejaVuSans-30" transform="translate(127.246094 0)"/>
      </g>
     </g>
    </g>
    <g id="ytick_4">
     <g id="line2d_23">
      <path d="M 50.87 139.459073 
L 390.6 139.459073 
" clip-path="url(#p70d730b293)" style="fill: none; stroke: #b0b0b0; stroke-opacity: 0.3; stroke-width: 0.8; stroke-linecap: square"/>
     </g>
     <g id="line2d_24">
      <g>
       <use xlink:href="#ma9d3b07380" x="50.87" y="139.459073" style="stroke: #000000; stroke-width: 0.8"/>
      </g>
     </g>
     <g id="text_13">
      <!-- 150 -->
      <g transform="translate(24.7825 143.258292) scale(0.1 -0.1)">
       <use xlink:href="#DejaVuSans-31"/>
       <use xlink:href="#DejaVuSans-35" transform="translate(63.623047 0)"/>
       <use xlink:href="#DejaVuSans-30" transform="translate(127.246094 0)"/>
      </g>
     </g>
    </g>
    <g id="ytick_5">
     <g id="line2d_25">
      <path d="M 50.87 102.061569 
L 390.6 102.061569 
" clip-path="url(#p70d730b293)" style="fill: none; stroke: #b0b0b0; stroke-opacity: 0.3; stroke-width: 0.8; stroke-linecap: square"/>
     </g>
     <g id="line2d_26">
      <g>
       <use xlink:href="#ma9d3b07380" x="50.87" y="102.061569" style="stroke: #000000; stroke-width: 0.8"/>
      </g>
     </g>
     <g id="text_14">
      <!-- 200 -->
      <g transform="translate(24.7825 105.860787) scale(0.1 -0.1)">
       <use xlink:href="#DejaVuSans-32"/>
       <use xlink:href="#DejaVuSans-30" transform="translate(63.623047 0)"/>
       <use xlink:href="#DejaVuSans-30" transform="translate(127.246094 0)"/>
      </g>
     </g>
    </g>
    <g id="ytick_6">
     <g id="line2d_27">
      <path d="M 50.87 64.664064 
L 390.6 64.664064 
" clip-path="url(#p70d730b293)" style="fill: none; stroke: #b0b0b0; stroke-opacity: 0.3; stroke-width: 0.8; stroke-linecap: square"/>
     </g>
     <g id="line2d_28">
      <g>
       <use xlink:href="#ma9d3b07380" x="50.87" y="64.664064" style="stroke: #000000; stroke-width: 0.8"/>
      </g>
     </g>
     <g id="text_15">
      <!-- 250 -->
      <g transform="translate(24.7825 68.463283) scale(0.1 -0.1)">
       <use xlink:href="#DejaVuSans-32"/>
       <use xlink:href="#DejaVuSans-35" transform="translate(63.623047 0)"/>
       <use xlink:href="#DejaVuSans-30" transform="translate(127.246094 0)"/>
      </g>
     </g>
    </g>
    <g id="text_16">
     <!-- middle bond dimension -->
     <g transform="translate(18.702813 214.268906) rotate(-90) scale(0.1 -0.1)">
      <defs>
       <path id="DejaVuSans-6d" d="M 3328 2828 
Q 3544 3216 3844 3400 
Q 4144 3584 4550 3584 
Q 5097 3584 5394 3201 
Q 5691 2819 5691 2113 
L 5691 0 
L 5113 0 
L 5113 2094 
Q 5113 2597 4934 2840 
Q 4756 3084 4391 3084 
Q 3944 3084 3684 2787 
Q 3425 2491 3425 1978 
L 3425 0 
L 2847 0 
L 2847 2094 
Q 2847 2600 2669 2842 
Q 2491 3084 2119 3084 
Q 1678 3084 1418 2786 
Q 1159 2488 1159 1978 
L 1159 0 
L 581 0 
L 581 3500 
L 1159 3500 
L 1159 2956 
Q 1356 3278 1631 3431 
Q 1906 3584 2284 3584 
Q 2666 3584 2933 3390 
Q 3200 3197 3328 2828 
z
" transform="scale(0.015625)"/>
       <path id="DejaVuSans-64" d="M 2906 2969 
L 2906 4863 
L 3481 4863 
L 3481 0 
L 2906 0 
L 2906 525 
Q 2725 213 2448 61 
Q 2172 -91 1784 -91 
Q 1150 -91 751 415 
Q 353 922 353 1747 
Q 353 2572 751 3078 
Q 1150 3584 1784 3584 
Q 2172 3584 2448 3432 
Q 2725 3281 2906 2969 
z
M 947 1747 
Q 947 1113 1208 752 
Q 1469 391 1925 391 
Q 2381 391 2643 752 
Q 2906 1113 2906 1747 
Q 2906 2381 2643 2742 
Q 2381 3103 1925 3103 
Q 1469 3103 1208 2742 
Q 947 2381 947 1747 
z
" transform="scale(0.015625)"/>
       <path id="DejaVuSans-6c" d="M 603 4863 
L 1178 4863 
L 1178 0 
L 603 0 
L 603 4863 
z
" transform="scale(0.015625)"/>
       <path id="DejaVuSans-62" d="M 3116 1747 
Q 3116 2381 2855 2742 
Q 2594 3103 2138 3103 
Q 1681 3103 1420 2742 
Q 1159 2381 1159 1747 
Q 1159 1113 1420 752 
Q 1681 391 2138 391 
Q 2594 391 2855 752 
Q 3116 1113 3116 1747 
z
M 1159 2969 
Q 1341 3281 1617 3432 
Q 1894 3584 2278 3584 
Q 2916 3584 3314 3078 
Q 3713 2572 3713 1747 
Q 3713 922 3314 415 
Q 2916 -91 2278 -91 
Q 1894 -91 1617 61 
Q 1341 213 1159 525 
L 1159 0 
L 581 0 
L 581 4863 
L 1159 4863 
L 1159 2969 
z
" transform="scale(0.015625)"/>
      </defs>
      <use xlink:href="#DejaVuSans-6d"/>
      <use xlink:href="#DejaVuSans-69" transform="translate(97.412109 0)"/>
      <use xlink:href="#DejaVuSans-64" transform="translate(125.195312 0)"/>
      <use xlink:href="#DejaVuSans-64" transform="translate(188.671875 0)"/>
      <use xlink:href="#DejaVuSans-6c" transform="translate(252.148438 0)"/>
      <use xlink:href="#DejaVuSans-65" transform="translate(279.931641 0)"/>
      <use xlink:href="#DejaVuSans-20" transform="translate(341.455078 0)"/>
      <use xlink:href="#DejaVuSans-62" transform="translate(373.242188 0)"/>
      <use xlink:href="#DejaVuSans-6f" transform="translate(436.71875 0)"/>
      <use xlink:href="#DejaVuSans-6e" transform="translate(497.900391 0)"/>
      <use xlink:href="#DejaVuSans-64" transform="translate(561.279297 0)"/>
      <use xlink:href="#DejaVuSans-20" transform="translate(624.755859 0)"/>
      <use xlink:href="#DejaVuSans-64" transform="translate(656.542969 0)"/>
      <use xlink:href="#DejaVuSans-69" transform="translate(720.019531 0)"/>
      <use xlink:href="#DejaVuSans-6d" transform="translate(747.802734 0)"/>
      <use xlink:href="#DejaVuSans-65" transform="translate(845.214844 0)"/>
      <use xlink:href="#DejaVuSans-6e" transform="translate(906.738281 0)"/>
      <use xlink:href="#DejaVuSans-73" transform="translate(970.117188 0)"/>
      <use xlink:href="#DejaVuSans-69" transform="translate(1022.216797 0)"/>
      <use xlink:href="#DejaVuSans-6f" transform="translate(1050 0)"/>
      <use xlink:href="#DejaVuSans-6e" transform="translate(1111.181641 0)"/>
     </g>
    </g>
   </g>
   <g id="line2d_29">
    <path d="M 66.312273 239.684385 
L 86.90197 93.086168 
L 107.491667 62.420214 
L 128.081364 60.176364 
L 148.671061 60.176364 
L 169.260758 60.176364 
L 189.850455 60.176364 
L 210.440152 60.176364 
L 231.029848 60.176364 
L 251.619545 60.176364 
L 272.209242 60.176364 
L 292.798939 60.176364 
L 313.388636 61.672264 
L 333.978333 73.639465 
L 354.56803 111.78492 
L 375.157727 167.133226 
" clip-path="url(#p70d730b293)" style="fill: none; stroke: #c0392b; stroke-width: 2; stroke-linecap: square"/>
    <defs>
     <path id="me09cdd7224" d="M 0 2 
C 0.530406 2 1.03916 1.789267 1.414214 1.414214 
C 1.789267 1.03916 2 0.530406 2 0 
C 2 -0.530406 1.789267 -1.03916 1.414214 -1.414214 
C 1.03916 -1.789267 0.530406 -2 0 -2 
C -0.530406 -2 -1.03916 -1.789267 -1.414214 -1.414214 
C -1.789267 -1.03916 -2 -0.530406 -2 0 
C -2 0.530406 -1.789267 1.03916 -1.414214 1.414214 
C -1.03916 1.789267 -0.530406 2 0 2 
z
" style="stroke: #c0392b"/>
    </defs>
    <g clip-path="url(#p70d730b293)">
     <use xlink:href="#me09cdd7224" x="66.312273" y="239.684385" style="fill: #c0392b; stroke: #c0392b"/>
     <use xlink:href="#me09cdd7224" x="86.90197" y="93.086168" style="fill: #c0392b; stroke: #c0392b"/>
     <use xlink:href="#me09cdd7224" x="107.491667" y="62.420214" style="fill: #c0392b; stroke: #c0392b"/>
     <use xlink:href="#me09cdd7224" x="128.081364" y="60.176364" style="fill: #c0392b; stroke: #c0392b"/>
     <use xlink:href="#me09cdd7224" x="148.671061" y="60.176364" style="fill: #c0392b; stroke: #c0392b"/>
     <use xlink:href="#me09cdd7224" x="169.260758" y="60.176364" style="fill: #c0392b; stroke: #c0392b"/>
     <use xlink:href="#me09cdd7224" x="189.850455" y="60.176364" style="fill: #c0392b; stroke: #c0392b"/>
     <use xlink:href="#me09cdd7224" x="210.440152" y="60.176364" style="fill: #c0392b; stroke: #c0392b"/>
     <use xlink:href="#me09cdd7224" x="231.029848" y="60.176364" style="fill: #c0392b; stroke: #c0392b"/>
     <use xlink:href="#me09cdd7224" x="251.619545" y="60.176364" style="fill: #c0392b; stroke: #c0392b"/>
     <use xlink:href="#me09cdd7224" x="272.209242" y="60.176364" style="fill: #c0392b; stroke: #c0392b"/>
     <use xlink:href="#me09cdd7224" x="292.798939" y="60.176364" style="fill: #c0392b; stroke: #c0392b"/>
     <use xlink:href="#me09cdd7224" x="313.388636" y="61.672264" style="fill: #c0392b; stroke: #c0392b"/>
     <use xlink:href="#me09cdd7224" x="333.978333" y="73.639465" style="fill: #c0392b; stroke: #c0392b"/>
     <use xlink:href="#me09cdd7224" x="354.56803" y="111.78492" style="fill: #c0392b; stroke: #c0392b"/>
     <use xlink:href="#me09cdd7224" x="375.157727" y="167.133226" style="fill: #c0392b; stroke: #c0392b"/>
    </g>
   </g>
   <g id="line2d_30">
    <path d="M 66.312273 250.903636 
L 86.90197 250.903636 
L 107.491667 250.903636 
L 128.081364 250.903636 
L 148.671061 250.903636 
L 169.260758 250.903636 
L 189.850455 250.903636 
L 210.440152 250.903636 
" clip-path="url(#p70d730b293)" style="fill: none; stroke: #2471a3; stroke-width: 2; stroke-linecap: square"/>
    <defs>
     <path id="m779050b31c" d="M -2.5 2.5 
L 2.5 2.5 
L 2.5 -2.5 
L -2.5 -2.5 
z
" style="stroke: #2471a3; stroke-linejoin: miter"/>
    </defs>
    <g clip-path="url(#p70d730b293)">
     <use xlink:href="#m779050b31c" x="66.312273" y="250.903636" style="fill: #2471a3; stroke: #2471a3; stroke-linejoin: miter"/>
     <use xlink:href="#m779050b31c" x="86.90197" y="250.903636" style="fill: #2471a3; stroke: #2471a3; stroke-linejoin: miter"/>
     <use xlink:href="#m779050b31c" x="107.491667" y="250.903636" style="fill: #2471a3; stroke: #2471a3; stroke-linejoin: miter"/>
     <use xlink:href="#m779050b31c" x="128.081364" y="250.903636" style="fill: #2471a3; stroke: #2471a3; stroke-linejoin: miter"/>
     <use xlink:href="#m779050b31c" x="148.671061" y="250.903636" style="fill: #2471a3; stroke: #2471a3; stroke-linejoin: miter"/>
     <use xlink:href="#m779050b31c" x="169.260758" y="250.903636" style="fill: #2471a3; stroke: #2471a3; stroke-linejoin: miter"/>
     <use xlink:href="#m779050b31c" x="189.850455" y="250.903636" style="fill: #2471a3; stroke: #2471a3; stroke-linejoin: miter"/>
     <use xlink:href="#m779050b31c" x="210.440152" y="250.903636" style="fill: #2471a3; stroke: #2471a3; stroke-linejoin: miter"/>
    </g>
   </g>
   <g id="line2d_31">
    <path d="M 220.735 260.44 
L 220.735 50.64 
" clip-path="url(#p70d730b293)" style="fill: none; stroke-dasharray: 3.7,1.6; stroke-dashoffset: 0; stroke: #808080"/>
   </g>
   <g id="patch_3">
    <path d="M 50.87 260.44 
L 50.87 50.64 
" style="fill: none; stroke: #000000; stroke-width: 0.8; stroke-linejoin: miter; stroke-linecap: square"/>
   </g>
   <g id="patch_4">
    <path d="M 390.6 260.44 
L 390.6 50.64 
" style="fill: none; stroke: #000000; stroke-width: 0.8; stroke-linejoin: miter; stroke-linecap: square"/>
   </g>
   <g id="patch_5">
    <path d="M 50.87 260.44 
L 390.6 260.44 
" style="fill: none; stroke: #000000; stroke-width: 0.8; stroke-linejoin: miter; stroke-linecap: square"/>
   </g>
   <g id="patch_6">
    <path d="M 50.87 50.64 
L 390.6 50.64 
" style="fill: none; stroke: #000000; stroke-width: 0.8; stroke-linejoin: miter; stroke-linecap: square"/>
   </g>
   <g id="patch_7">
    <path d="M 175.5172 211.709772 
Q 152.570867 230.669182 130.486426 248.916453 
" style="fill: none; stroke: #2471a3; stroke-linecap: round"/>
    <path d="M 133.972436 248.111633 
L 130.486426 248.916453 
L 131.934176 245.644753 
" style="fill: none; stroke: #2471a3; stroke-linecap: round"/>
   </g>
   <g id="text_17">
    <!-- MOC stays at 1 -->
    <g transform="translate(148.671061 197.816331) scale(0.08 -0.08)">
     <defs>
      <path id="DejaVuSans-4d" d="M 628 4666 
L 1569 4666 
L 2759 1491 
L 3956 4666 
L 4897 4666 
L 4897 0 
L 4281 0 
L 4281 4097 
L 3078 897 
L 2444 897 
L 1241 4097 
L 1241 0 
L 628 0 
L 628 4666 
z
" transform="scale(0.015625)"/>
      <path id="DejaVuSans-4f" d="M 2522 4238 
Q 1834 4238 1429 3725 
Q 1025 3213 1025 2328 
Q 1025 1447 1429 934 
Q 1834 422 2522 422 
Q 3209 422 3611 934 
Q 4013 1447 4013 2328 
Q 4013 3213 3611 3725 
Q 3209 4238 2522 4238 
z
M 2522 4750 
Q 3503 4750 4090 4092 
Q 4678 3434 4678 2328 
Q 4678 1225 4090 567 
Q 3503 -91 2522 -91 
Q 1538 -91 948 565 
Q 359 1222 359 2328 
Q 359 3434 948 4092 
Q 1538 4750 2522 4750 
z
" transform="scale(0.015625)"/>
      <path id="DejaVuSans-43" d="M 4122 4306 
L 4122 3641 
Q 3803 3938 3442 4084 
Q 3081 4231 2675 4231 
Q 1875 4231 1450 3742 
Q 1025 3253 1025 2328 
Q 1025 1406 1450 917 
Q 1875 428 2675 428 
Q 3081 428 3442 575 
Q 3803 722 4122 1019 
L 4122 359 
Q 3791 134 3420 21 
Q 3050 -91 2638 -91 
Q 1578 -91 968 557 
Q 359 1206 359 2328 
Q 359 3453 968 4101 
Q 1578 4750 2638 4750 
Q 3056 4750 3426 4639 
Q 3797 4528 4122 4306 
z
" transform="scale(0.015625)"/>
      <path id="DejaVuSans-79" d="M 2059 -325 
Q 1816 -950 1584 -1140 
Q 1353 -1331 966 -1331 
L 506 -1331 
L 506 -850 
L 844 -850 
Q 1081 -850 1212 -737 
Q 1344 -625 1503 -206 
L 1606 56 
L 191 3500 
L 800 3500 
L 1894 763 
L 2988 3500 
L 3597 3500 
L 2059 -325 
z
" transform="scale(0.015625)"/>
     </defs>
     <use xlink:href="#DejaVuSans-4d"/>
     <use xlink:href="#DejaVuSans-4f" transform="translate(86.279297 0)"/>
     <use xlink:href="#DejaVuSans-43" transform="translate(164.990234 0)"/>
     <use xlink:href="#DejaVuSans-20" transform="translate(234.814453 0)"/>
     <use xlink:href="#DejaVuSans-73" transform="translate(266.601562 0)"/>
     <use xlink:href="#DejaVuSans-74" transform="translate(318.701172 0)"/>
     <use xlink:href="#DejaVuSans-61" transform="translate(357.910156 0)"/>
     <use xlink:href="#DejaVuSans-79" transform="translate(419.189453 0)"/>
     <use xlink:href="#DejaVuSans-73" transform="translate(478.369141 0)"/>
     <use xlink:href="#DejaVuSans-20" transform="translate(530.46875 0)"/>
     <use xlink:href="#DejaVuSans-61" transform="translate(562.255859 0)"/>
     <use xlink:href="#DejaVuSans-74" transform="translate(623.535156 0)"/>
     <use xlink:href="#DejaVuSans-20" transform="translate(662.744141 0)"/>
     <use xlink:href="#DejaVuSans-31" transform="translate(694.53125 0)"/>
    </g>
    <!-- (exact near-identity) -->
    <g transform="translate(148.671061 206.774581) scale(0.08 -0.08)">
     <defs>
      <path id="DejaVuSans-28" d="M 1984 4856 
Q 1566 4138 1362 3434 
Q 1159 2731 1159 2009 
Q 1159 1288 1364 580 
Q 1569 -128 1984 -844 
L 1484 -844 
Q 1016 -109 783 600 
Q 550 1309 550 2009 
Q 550 2706 781 3412 
Q 1013 4119 1484 4856 
L 1984 4856 
z
" transform="scale(0.015625)"/>
      <path id="DejaVuSans-78" d="M 3513 3500 
L 2247 1797 
L 3578 0 
L 2900 0 
L 1881 1375 
L 863 0 
L 184 0 
L 1544 1831 
L 300 3500 
L 978 3500 
L 1906 2253 
L 2834 3500 
L 3513 3500 
z
" transform="scale(0.015625)"/>
      <path id="DejaVuSans-2d" d="M 313 2009 
L 1997 2009 
L 1997 1497 
L 313 1497 
L 313 2009 
z
" transform="scale(0.015625)"/>
      <path id="DejaVuSans-29" d="M 513 4856 
L 1013 4856 
Q 1481 4119 1714 3412 
Q 1947 2706 1947 2009 
Q 1947 1309 1714 600 
Q 1481 -109 1013 -844 
L 513 -844 
Q 928 -128 1133 580 
Q 1338 1288 1338 2009 
Q 1338 2731 1133 3434 
Q 928 4138 513 4856 
z
" transform="scale(0.015625)"/>
     </defs>
     <use xlink:href="#DejaVuSans-28"/>
     <use xlink:href="#DejaVuSans-65" transform="translate(39.013672 0)"/>
     <use xlink:href="#DejaVuSans-78" transform="translate(98.787109 0)"/>
     <use xlink:href="#DejaVuSans-61" transform="translate(157.966797 0)"/>
     <use xlink:href="#DejaVuSans-63" transform="translate(219.246094 0)"/>
     <use xlink:href="#DejaVuSans-74" transform="translate(274.226562 0)"/>
     <use xlink:href="#DejaVuSans-20" transform="translate(313.435547 0)"/>
     <use xlink:href="#DejaVuSans-6e" transform="translate(345.222656 0)"/>
     <use xlink:href="#DejaVuSans-65" transform="translate(408.601562 0)"/>
     <use xlink:href="#DejaVuSans-61" transform="translate(470.125 0)"/>
     <use xlink:href="#DejaVuSans-72" transform="translate(531.404297 0)"/>
     <use xlink:href="#DejaVuSans-2d" transform="translate(566.142578 0)"/>
     <use xlink:href="#DejaVuSans-69" transform="translate(602.226562 0)"/>
     <use xlink:href="#DejaVuSans-64" transform="translate(630.009766 0)"/>
     <use xlink:href="#DejaVuSans-65" transform="translate(693.486328 0)"/>
     <use xlink:href="#DejaVuSans-6e" transform="translate(755.009766 0)"/>
     <use xlink:href="#DejaVuSans-74" transform="translate(818.388672 0)"/>
     <use xlink:href="#DejaVuSans-69" transform="translate(857.597656 0)"/>
     <use xlink:href="#DejaVuSans-74" transform="translate(885.380859 0)"/>
     <use xlink:href="#DejaVuSans-79" transform="translate(924.589844 0)"/>
     <use xlink:href="#DejaVuSans-29" transform="translate(983.769531 0)"/>
    </g>
   </g>
   <g id="text_18">
    <!-- Closed system (γ=0) -->
    <g transform="translate(157.9975 44.64) scale(0.12 -0.12)">
     <defs>
      <path id="DejaVuSans-3b3" d="M 1128 2950 
L 1894 788 
L 2988 3500 
L 3597 3500 
L 2181 0 
L 2181 -1331 
L 1606 -1331 
L 1606 0 
L 688 2613 
Q 550 3006 253 3006 
L 100 3006 
L 100 3500 
L 319 3500 
Q 934 3500 1128 2950 
z
" transform="scale(0.015625)"/>
      <path id="DejaVuSans-3d" d="M 678 2906 
L 4684 2906 
L 4684 2381 
L 678 2381 
L 678 2906 
z
M 678 1631 
L 4684 1631 
L 4684 1100 
L 678 1100 
L 678 1631 
z
" transform="scale(0.015625)"/>
     </defs>
     <use xlink:href="#DejaVuSans-43"/>
     <use xlink:href="#DejaVuSans-6c" transform="translate(69.824219 0)"/>
     <use xlink:href="#DejaVuSans-6f" transform="translate(97.607422 0)"/>
     <use xlink:href="#DejaVuSans-73" transform="translate(158.789062 0)"/>
     <use xlink:href="#DejaVuSans-65" transform="translate(210.888672 0)"/>
     <use xlink:href="#DejaVuSans-64" transform="translate(272.412109 0)"/>
     <use xlink:href="#DejaVuSans-20" transform="translate(335.888672 0)"/>
     <use xlink:href="#DejaVuSans-73" transform="translate(367.675781 0)"/>
     <use xlink:href="#DejaVuSans-79" transform="translate(419.775391 0)"/>
     <use xlink:href="#DejaVuSans-73" transform="translate(478.955078 0)"/>
     <use xlink:href="#DejaVuSans-74" transform="translate(531.054688 0)"/>
     <use xlink:href="#DejaVuSans-65" transform="translate(570.263672 0)"/>
     <use xlink:href="#DejaVuSans-6d" transform="translate(631.787109 0)"/>
     <use xlink:href="#DejaVuSans-20" transform="translate(729.199219 0)"/>
     <use xlink:href="#DejaVuSans-28" transform="translate(760.986328 0)"/>
     <use xlink:href="#DejaVuSans-3b3" transform="translate(800 0)"/>
     <use xlink:href="#DejaVuSans-3d" transform="translate(859.179688 0)"/>
     <use xlink:href="#DejaVuSans-30" transform="translate(942.96875 0)"/>
     <use xlink:href="#DejaVuSans-29" transform="translate(1006.591797 0)"/>
    </g>
   </g>
   <g id="legend_1">
    <g id="patch_8">
     <path d="M 254.94625 256.44 
L 385 256.44 
Q 386.6 256.44 386.6 254.84 
L 386.6 232.155 
Q 386.6 230.555 385 230.555 
L 254.94625 230.555 
Q 253.34625 230.555 253.34625 232.155 
L 253.34625 254.84 
Q 253.34625 256.44 254.94625 256.44 
z
" style="fill: #ffffff; opacity: 0.8; stroke: #cccccc; stroke-linejoin: miter"/>
    </g>
    <g id="line2d_32">
     <path d="M 256.54625 237.03375 
L 264.54625 237.03375 
L 272.54625 237.03375 
" style="fill: none; stroke: #c0392b; stroke-width: 2; stroke-linecap: square"/>
     <g>
      <use xlink:href="#me09cdd7224" x="264.54625" y="237.03375" style="fill: #c0392b; stroke: #c0392b"/>
     </g>
    </g>
    <g id="text_19">
     <!-- PLAIN (fwd 1-8, bwd 9-16) -->
     <g transform="translate(278.94625 239.83375) scale(0.08 -0.08)">
      <defs>
       <path id="DejaVuSans-50" d="M 1259 4147 
L 1259 2394 
L 2053 2394 
Q 2494 2394 2734 2622 
Q 2975 2850 2975 3272 
Q 2975 3691 2734 3919 
Q 2494 4147 2053 4147 
L 1259 4147 
z
M 628 4666 
L 2053 4666 
Q 2838 4666 3239 4311 
Q 3641 3956 3641 3272 
Q 3641 2581 3239 2228 
Q 2838 1875 2053 1875 
L 1259 1875 
L 1259 0 
L 628 0 
L 628 4666 
z
" transform="scale(0.015625)"/>
       <path id="DejaVuSans-4c" d="M 628 4666 
L 1259 4666 
L 1259 531 
L 3531 531 
L 3531 0 
L 628 0 
L 628 4666 
z
" transform="scale(0.015625)"/>
       <path id="DejaVuSans-41" d="M 2188 4044 
L 1331 1722 
L 3047 1722 
L 2188 4044 
z
M 1831 4666 
L 2547 4666 
L 4325 0 
L 3669 0 
L 3244 1197 
L 1141 1197 
L 716 0 
L 50 0 
L 1831 4666 
z
" transform="scale(0.015625)"/>
       <path id="DejaVuSans-49" d="M 628 4666 
L 1259 4666 
L 1259 0 
L 628 0 
L 628 4666 
z
" transform="scale(0.015625)"/>
       <path id="DejaVuSans-4e" d="M 628 4666 
L 1478 4666 
L 3547 763 
L 3547 4666 
L 4159 4666 
L 4159 0 
L 3309 0 
L 1241 3903 
L 1241 0 
L 628 0 
L 628 4666 
z
" transform="scale(0.015625)"/>
       <path id="DejaVuSans-66" d="M 2375 4863 
L 2375 4384 
L 1825 4384 
Q 1516 4384 1395 4259 
Q 1275 4134 1275 3809 
L 1275 3500 
L 2222 3500 
L 2222 3053 
L 1275 3053 
L 1275 0 
L 697 0 
L 697 3053 
L 147 3053 
L 147 3500 
L 697 3500 
L 697 3744 
Q 697 4328 969 4595 
Q 1241 4863 1831 4863 
L 2375 4863 
z
" transform="scale(0.015625)"/>
       <path id="DejaVuSans-77" d="M 269 3500 
L 844 3500 
L 1563 769 
L 2278 3500 
L 2956 3500 
L 3675 769 
L 4391 3500 
L 4966 3500 
L 4050 0 
L 3372 0 
L 2619 2869 
L 1863 0 
L 1184 0 
L 269 3500 
z
" transform="scale(0.015625)"/>
       <path id="DejaVuSans-2c" d="M 750 794 
L 1409 794 
L 1409 256 
L 897 -744 
L 494 -744 
L 750 256 
L 750 794 
z
" transform="scale(0.015625)"/>
       <path id="DejaVuSans-39" d="M 703 97 
L 703 672 
Q 941 559 1184 500 
Q 1428 441 1663 441 
Q 2288 441 2617 861 
Q 2947 1281 2994 2138 
Q 2813 1869 2534 1725 
Q 2256 1581 1919 1581 
Q 1219 1581 811 2004 
Q 403 2428 403 3163 
Q 403 3881 828 4315 
Q 1253 4750 1959 4750 
Q 2769 4750 3195 4129 
Q 3622 3509 3622 2328 
Q 3622 1225 3098 567 
Q 2575 -91 1691 -91 
Q 1453 -91 1209 -44 
Q 966 3 703 97 
z
M 1959 2075 
Q 2384 2075 2632 2365 
Q 2881 2656 2881 3163 
Q 2881 3666 2632 3958 
Q 2384 4250 1959 4250 
Q 1534 4250 1286 3958 
Q 1038 3666 1038 3163 
Q 1038 2656 1286 2365 
Q 1534 2075 1959 2075 
z
" transform="scale(0.015625)"/>
      </defs>
      <use xlink:href="#DejaVuSans-50"/>
      <use xlink:href="#DejaVuSans-4c" transform="translate(60.302734 0)"/>
      <use xlink:href="#DejaVuSans-41" transform="translate(118.265625 0)"/>
      <use xlink:href="#DejaVuSans-49" transform="translate(186.673828 0)"/>
      <use xlink:href="#DejaVuSans-4e" transform="translate(216.166016 0)"/>
      <use xlink:href="#DejaVuSans-20" transform="translate(290.970703 0)"/>
      <use xlink:href="#DejaVuSans-28" transform="translate(322.757812 0)"/>
      <use xlink:href="#DejaVuSans-66" transform="translate(361.771484 0)"/>
      <use xlink:href="#DejaVuSans-77" transform="translate(395.226562 0)"/>
      <use xlink:href="#DejaVuSans-64" transform="translate(477.013672 0)"/>
      <use xlink:href="#DejaVuSans-20" transform="translate(540.490234 0)"/>
      <use xlink:href="#DejaVuSans-31" transform="translate(572.277344 0)"/>
      <use xlink:href="#DejaVuSans-2d" transform="translate(635.900391 0)"/>
      <use xlink:href="#DejaVuSans-38" transform="translate(671.984375 0)"/>
      <use xlink:href="#DejaVuSans-2c" transform="translate(735.607422 0)"/>
      <use xlink:href="#DejaVuSans-20" transform="translate(767.394531 0)"/>
      <use xlink:href="#DejaVuSans-62" transform="translate(799.181641 0)"/>
      <use xlink:href="#DejaVuSans-77" transform="translate(862.658203 0)"/>
      <use xlink:href="#DejaVuSans-64" transform="translate(944.445312 0)"/>
      <use xlink:href="#DejaVuSans-20" transform="translate(1007.921875 0)"/>
      <use xlink:href="#DejaVuSans-39" transform="translate(1039.708984 0)"/>
      <use xlink:href="#DejaVuSans-2d" transform="translate(1103.332031 0)"/>
      <use xlink:href="#DejaVuSans-31" transform="translate(1139.416016 0)"/>
      <use xlink:href="#DejaVuSans-36" transform="translate(1203.039062 0)"/>
      <use xlink:href="#DejaVuSans-29" transform="translate(1266.662109 0)"/>
     </g>
    </g>
    <g id="line2d_33">
     <path d="M 256.54625 248.77625 
L 264.54625 248.77625 
L 272.54625 248.77625 
" style="fill: none; stroke: #2471a3; stroke-width: 2; stroke-linecap: square"/>
     <g>
      <use xlink:href="#m779050b31c" x="264.54625" y="248.77625" style="fill: #2471a3; stroke: #2471a3; stroke-linejoin: miter"/>
     </g>
    </g>
    <g id="text_20">
     <!-- MOC (per sync) -->
     <g transform="translate(278.94625 251.57625) scale(0.08 -0.08)">
      <use xlink:href="#DejaVuSans-4d"/>
      <use xlink:href="#DejaVuSans-4f" transform="translate(86.279297 0)"/>
      <use xlink:href="#DejaVuSans-43" transform="translate(164.990234 0)"/>
      <use xlink:href="#DejaVuSans-20" transform="translate(234.814453 0)"/>
      <use xlink:href="#DejaVuSans-28" transform="translate(266.601562 0)"/>
      <use xlink:href="#DejaVuSans-70" transform="translate(305.615234 0)"/>
      <use xlink:href="#DejaVuSans-65" transform="translate(369.091797 0)"/>
      <use xlink:href="#DejaVuSans-72" transform="translate(430.615234 0)"/>
      <use xlink:href="#DejaVuSans-20" transform="translate(471.728516 0)"/>
      <use xlink:href="#DejaVuSans-73" transform="translate(503.515625 0)"/>
      <use xlink:href="#DejaVuSans-79" transform="translate(555.615234 0)"/>
      <use xlink:href="#DejaVuSans-6e" transform="translate(614.794922 0)"/>
      <use xlink:href="#DejaVuSans-63" transform="translate(678.173828 0)"/>
      <use xlink:href="#DejaVuSans-29" transform="translate(733.154297 0)"/>
     </g>
    </g>
   </g>
  </g>
  <g id="axes_2">
   <g id="patch_9">
    <path d="M 441.47 260.44 
L 781.2 260.44 
L 781.2 50.64 
L 441.47 50.64 
z
" style="fill: #ffffff"/>
   </g>
   <g id="matplotlib.axis_3">
    <g id="xtick_9">
     <g id="line2d_34">
      <path d="M 477.50197 260.44 
L 477.50197 50.64 
" clip-path="url(#p8f713edc68)" style="fill: none; stroke: #b0b0b0; stroke-opacity: 0.3; stroke-width: 0.8; stroke-linecap: square"/>
     </g>
     <g id="line2d_35">
      <g>
       <use xlink:href="#mc0335fa8f9" x="477.50197" y="260.44" style="stroke: #000000; stroke-width: 0.8"/>
      </g>
     </g>
     <g id="text_21">
      <!-- 2 -->
      <g transform="translate(474.32072 275.038438) scale(0.1 -0.1)">
       <use xlink:href="#DejaVuSans-32"/>
      </g>
     </g>
    </g>
    <g id="xtick_10">
     <g id="line2d_36">
      <path d="M 518.681364 260.44 
L 518.681364 50.64 
" clip-path="url(#p8f713edc68)" style="fill: none; stroke: #b0b0b0; stroke-opacity: 0.3; stroke-width: 0.8; stroke-linecap: square"/>
     </g>
     <g id="line2d_37">
      <g>
       <use xlink:href="#mc0335fa8f9" x="518.681364" y="260.44" style="stroke: #000000; stroke-width: 0.8"/>
      </g>
     </g>
     <g id="text_22">
      <!-- 4 -->
      <g transform="translate(515.500114 275.038438) scale(0.1 -0.1)">
       <use xlink:href="#DejaVuSans-34"/>
      </g>
     </g>
    </g>
    <g id="xtick_11">
     <g id="line2d_38">
      <path d="M 559.860758 260.44 
L 559.860758 50.64 
" clip-path="url(#p8f713edc68)" style="fill: none; stroke: #b0b0b0; stroke-opacity: 0.3; stroke-width: 0.8; stroke-linecap: square"/>
     </g>
     <g id="line2d_39">
      <g>
       <use xlink:href="#mc0335fa8f9" x="559.860758" y="260.44" style="stroke: #000000; stroke-width: 0.8"/>
      </g>
     </g>
     <g id="text_23">
      <!-- 6 -->
      <g transform="translate(556.679508 275.038438) scale(0.1 -0.1)">
       <use xlink:href="#DejaVuSans-36"/>
      </g>
     </g>
    </g>
    <g id="xtick_12">
     <g id="line2d_40">
      <path d="M 601.040152 260.44 
L 601.040152 50.64 
" clip-path="url(#p8f713edc68)" style="fill: none; stroke: #b0b0b0; stroke-opacity: 0.3; stroke-width: 0.8; stroke-linecap: square"/>
     </g>
     <g id="line2d_41">
      <g>
       <use xlink:href="#mc0335fa8f9" x="601.040152" y="260.44" style="stroke: #000000; stroke-width: 0.8"/>
      </g>
     </g>
     <g id="text_24">
      <!-- 8 -->
      <g transform="translate(597.858902 275.038438) scale(0.1 -0.1)">
       <use xlink:href="#DejaVuSans-38"/>
      </g>
     </g>
    </g>
    <g id="xtick_13">
     <g id="line2d_42">
      <path d="M 642.219545 260.44 
L 642.219545 50.64 
" clip-path="url(#p8f713edc68)" style="fill: none; stroke: #b0b0b0; stroke-opacity: 0.3; stroke-width: 0.8; stroke-linecap: square"/>
     </g>
     <g id="line2d_43">
      <g>
       <use xlink:href="#mc0335fa8f9" x="642.219545" y="260.44" style="stroke: #000000; stroke-width: 0.8"/>
      </g>
     </g>
     <g id="text_25">
      <!-- 10 -->
      <g transform="translate(635.857045 275.038438) scale(0.1 -0.1)">
       <use xlink:href="#DejaVuSans-31"/>
       <use xlink:href="#DejaVuSans-30" transform="translate(63.623047 0)"/>
      </g>
     </g>
    </g>
    <g id="xtick_14">
     <g id="line2d_44">
      <path d="M 683.398939 260.44 
L 683.398939 50.64 
" clip-path="url(#p8f713edc68)" style="fill: none; stroke: #b0b0b0; stroke-opacity: 0.3; stroke-width: 0.8; stroke-linecap: square"/>
     </g>
     <g id="line2d_45">
      <g>
       <use xlink:href="#mc0335fa8f9" x="683.398939" y="260.44" style="stroke: #000000; stroke-width: 0.8"/>
      </g>
     </g>
     <g id="text_26">
      <!-- 12 -->
      <g transform="translate(677.036439 275.038438) scale(0.1 -0.1)">
       <use xlink:href="#DejaVuSans-31"/>
       <use xlink:href="#DejaVuSans-32" transform="translate(63.623047 0)"/>
      </g>
     </g>
    </g>
    <g id="xtick_15">
     <g id="line2d_46">
      <path d="M 724.578333 260.44 
L 724.578333 50.64 
" clip-path="url(#p8f713edc68)" style="fill: none; stroke: #b0b0b0; stroke-opacity: 0.3; stroke-width: 0.8; stroke-linecap: square"/>
     </g>
     <g id="line2d_47">
      <g>
       <use xlink:href="#mc0335fa8f9" x="724.578333" y="260.44" style="stroke: #000000; stroke-width: 0.8"/>
      </g>
     </g>
     <g id="text_27">
      <!-- 14 -->
      <g transform="translate(718.215833 275.038438) scale(0.1 -0.1)">
       <use xlink:href="#DejaVuSans-31"/>
       <use xlink:href="#DejaVuSans-34" transform="translate(63.623047 0)"/>
      </g>
     </g>
    </g>
    <g id="xtick_16">
     <g id="line2d_48">
      <path d="M 765.757727 260.44 
L 765.757727 50.64 
" clip-path="url(#p8f713edc68)" style="fill: none; stroke: #b0b0b0; stroke-opacity: 0.3; stroke-width: 0.8; stroke-linecap: square"/>
     </g>
     <g id="line2d_49">
      <g>
       <use xlink:href="#mc0335fa8f9" x="765.757727" y="260.44" style="stroke: #000000; stroke-width: 0.8"/>
      </g>
     </g>
     <g id="text_28">
      <!-- 16 -->
      <g transform="translate(759.395227 275.038438) scale(0.1 -0.1)">
       <use xlink:href="#DejaVuSans-31"/>
       <use xlink:href="#DejaVuSans-36" transform="translate(63.623047 0)"/>
      </g>
     </g>
    </g>
    <g id="text_29">
     <!-- contraction step -->
     <g transform="translate(570.546719 288.716563) scale(0.1 -0.1)">
      <use xlink:href="#DejaVuSans-63"/>
      <use xlink:href="#DejaVuSans-6f" transform="translate(54.980469 0)"/>
      <use xlink:href="#DejaVuSans-6e" transform="translate(116.162109 0)"/>
      <use xlink:href="#DejaVuSans-74" transform="translate(179.541016 0)"/>
      <use xlink:href="#DejaVuSans-72" transform="translate(218.75 0)"/>
      <use xlink:href="#DejaVuSans-61" transform="translate(259.863281 0)"/>
      <use xlink:href="#DejaVuSans-63" transform="translate(321.142578 0)"/>
      <use xlink:href="#DejaVuSans-74" transform="translate(376.123047 0)"/>
      <use xlink:href="#DejaVuSans-69" transform="translate(415.332031 0)"/>
      <use xlink:href="#DejaVuSans-6f" transform="translate(443.115234 0)"/>
      <use xlink:href="#DejaVuSans-6e" transform="translate(504.296875 0)"/>
      <use xlink:href="#DejaVuSans-20" transform="translate(567.675781 0)"/>
      <use xlink:href="#DejaVuSans-73" transform="translate(599.462891 0)"/>
      <use xlink:href="#DejaVuSans-74" transform="translate(651.5625 0)"/>
      <use xlink:href="#DejaVuSans-65" transform="translate(690.771484 0)"/>
      <use xlink:href="#DejaVuSans-70" transform="translate(752.294922 0)"/>
     </g>
    </g>
   </g>
   <g id="matplotlib.axis_4">
    <g id="ytick_7">
     <g id="line2d_50">
      <path d="M 441.47 221.862858 
L 781.2 221.862858 
" clip-path="url(#p8f713edc68)" style="fill: none; stroke: #b0b0b0; stroke-opacity: 0.3; stroke-width: 0.8; stroke-linecap: square"/>
     </g>
     <g id="line2d_51">
      <g>
       <use xlink:href="#ma9d3b07380" x="441.47" y="221.862858" style="stroke: #000000; stroke-width: 0.8"/>
      </g>
     </g>
     <g id="text_30">
      <!-- 50 -->
      <g transform="translate(421.745 225.662077) scale(0.1 -0.1)">
       <use xlink:href="#DejaVuSans-35"/>
       <use xlink:href="#DejaVuSans-30" transform="translate(63.623047 0)"/>
      </g>
     </g>
    </g>
    <g id="ytick_8">
     <g id="line2d_52">
      <path d="M 441.47 182.618563 
L 781.2 182.618563 
" clip-path="url(#p8f713edc68)" style="fill: none; stroke: #b0b0b0; stroke-opacity: 0.3; stroke-width: 0.8; stroke-linecap: square"/>
     </g>
     <g id="line2d_53">
      <g>
       <use xlink:href="#ma9d3b07380" x="441.47" y="182.618563" style="stroke: #000000; stroke-width: 0.8"/>
      </g>
     </g>
     <g id="text_31">
      <!-- 100 -->
      <g transform="translate(415.3825 186.417782) scale(0.1 -0.1)">
       <use xlink:href="#DejaVuSans-31"/>
       <use xlink:href="#DejaVuSans-30" transform="translate(63.623047 0)"/>
       <use xlink:href="#DejaVuSans-30" transform="translate(127.246094 0)"/>
      </g>
     </g>
    </g>
    <g id="ytick_9">
     <g id="line2d_54">
      <path d="M 441.47 143.374269 
L 781.2 143.374269 
" clip-path="url(#p8f713edc68)" style="fill: none; stroke: #b0b0b0; stroke-opacity: 0.3; stroke-width: 0.8; stroke-linecap: square"/>
     </g>
     <g id="line2d_55">
      <g>
       <use xlink:href="#ma9d3b07380" x="441.47" y="143.374269" style="stroke: #000000; stroke-width: 0.8"/>
      </g>
     </g>
     <g id="text_32">
      <!-- 150 -->
      <g transform="translate(415.3825 147.173487) scale(0.1 -0.1)">
       <use xlink:href="#DejaVuSans-31"/>
       <use xlink:href="#DejaVuSans-35" transform="translate(63.623047 0)"/>
       <use xlink:href="#DejaVuSans-30" transform="translate(127.246094 0)"/>
      </g>
     </g>
    </g>
    <g id="ytick_10">
     <g id="line2d_56">
      <path d="M 441.47 104.129974 
L 781.2 104.129974 
" clip-path="url(#p8f713edc68)" style="fill: none; stroke: #b0b0b0; stroke-opacity: 0.3; stroke-width: 0.8; stroke-linecap: square"/>
     </g>
     <g id="line2d_57">
      <g>
       <use xlink:href="#ma9d3b07380" x="441.47" y="104.129974" style="stroke: #000000; stroke-width: 0.8"/>
      </g>
     </g>
     <g id="text_33">
      <!-- 200 -->
      <g transform="translate(415.3825 107.929193) scale(0.1 -0.1)">
       <use xlink:href="#DejaVuSans-32"/>
       <use xlink:href="#DejaVuSans-30" transform="translate(63.623047 0)"/>
       <use xlink:href="#DejaVuSans-30" transform="translate(127.246094 0)"/>
      </g>
     </g>
    </g>
    <g id="ytick_11">
     <g id="line2d_58">
      <path d="M 441.47 64.885679 
L 781.2 64.885679 
" clip-path="url(#p8f713edc68)" style="fill: none; stroke: #b0b0b0; stroke-opacity: 0.3; stroke-width: 0.8; stroke-linecap: square"/>
     </g>
     <g id="line2d_59">
      <g>
       <use xlink:href="#ma9d3b07380" x="441.47" y="64.885679" style="stroke: #000000; stroke-width: 0.8"/>
      </g>
     </g>
     <g id="text_34">
      <!-- 250 -->
      <g transform="translate(415.3825 68.684898) scale(0.1 -0.1)">
       <use xlink:href="#DejaVuSans-32"/>
       <use xlink:href="#DejaVuSans-35" transform="translate(63.623047 0)"/>
       <use xlink:href="#DejaVuSans-30" transform="translate(127.246094 0)"/>
      </g>
     </g>
    </g>
    <g id="text_35">
     <!-- middle bond dimension -->
     <g transform="translate(409.302813 214.268906) rotate(-90) scale(0.1 -0.1)">
      <use xlink:href="#DejaVuSans-6d"/>
      <use xlink:href="#DejaVuSans-69" transform="translate(97.412109 0)"/>
      <use xlink:href="#DejaVuSans-64" transform="translate(125.195312 0)"/>
      <use xlink:href="#DejaVuSans-64" transform="translate(188.671875 0)"/>
      <use xlink:href="#DejaVuSans-6c" transform="translate(252.148438 0)"/>
      <use xlink:href="#DejaVuSans-65" transform="translate(279.931641 0)"/>
      <use xlink:href="#DejaVuSans-20" transform="translate(341.455078 0)"/>
      <use xlink:href="#DejaVuSans-62" transform="translate(373.242188 0)"/>
      <use xlink:href="#DejaVuSans-6f" transform="translate(436.71875 0)"/>
      <use xlink:href="#DejaVuSans-6e" transform="translate(497.900391 0)"/>
      <use xlink:href="#DejaVuSans-64" transform="translate(561.279297 0)"/>
      <use xlink:href="#DejaVuSans-20" transform="translate(624.755859 0)"/>
      <use xlink:href="#DejaVuSans-64" transform="translate(656.542969 0)"/>
      <use xlink:href="#DejaVuSans-69" transform="translate(720.019531 0)"/>
      <use xlink:href="#DejaVuSans-6d" transform="translate(747.802734 0)"/>
      <use xlink:href="#DejaVuSans-65" transform="translate(845.214844 0)"/>
      <use xlink:href="#DejaVuSans-6e" transform="translate(906.738281 0)"/>
      <use xlink:href="#DejaVuSans-73" transform="translate(970.117188 0)"/>
      <use xlink:href="#DejaVuSans-69" transform="translate(1022.216797 0)"/>
      <use xlink:href="#DejaVuSans-6f" transform="translate(1050 0)"/>
      <use xlink:href="#DejaVuSans-6e" transform="translate(1111.181641 0)"/>
     </g>
    </g>
   </g>
   <g id="line2d_60">
    <path d="M 456.912273 248.548979 
L 477.50197 94.711343 
L 498.091667 62.531021 
L 518.681364 60.176364 
L 539.271061 60.176364 
L 559.860758 60.176364 
L 580.450455 60.176364 
L 601.040152 60.176364 
L 621.629848 60.176364 
L 642.219545 60.176364 
L 662.809242 60.176364 
L 683.398939 60.176364 
L 703.988636 61.746135 
L 724.578333 74.30431 
L 745.16803 114.33349 
L 765.757727 172.415047 
" clip-path="url(#p8f713edc68)" style="fill: none; stroke: #c0392b; stroke-width: 2; stroke-linecap: square"/>
    <g clip-path="url(#p8f713edc68)">
     <use xlink:href="#me09cdd7224" x="456.912273" y="248.548979" style="fill: #c0392b; stroke: #c0392b"/>
     <use xlink:href="#me09cdd7224" x="477.50197" y="94.711343" style="fill: #c0392b; stroke: #c0392b"/>
     <use xlink:href="#me09cdd7224" x="498.091667" y="62.531021" style="fill: #c0392b; stroke: #c0392b"/>
     <use xlink:href="#me09cdd7224" x="518.681364" y="60.176364" style="fill: #c0392b; stroke: #c0392b"/>
     <use xlink:href="#me09cdd7224" x="539.271061" y="60.176364" style="fill: #c0392b; stroke: #c0392b"/>
     <use xlink:href="#me09cdd7224" x="559.860758" y="60.176364" style="fill: #c0392b; stroke: #c0392b"/>
     <use xlink:href="#me09cdd7224" x="580.450455" y="60.176364" style="fill: #c0392b; stroke: #c0392b"/>
     <use xlink:href="#me09cdd7224" x="601.040152" y="60.176364" style="fill: #c0392b; stroke: #c0392b"/>
     <use xlink:href="#me09cdd7224" x="621.629848" y="60.176364" style="fill: #c0392b; stroke: #c0392b"/>
     <use xlink:href="#me09cdd7224" x="642.219545" y="60.176364" style="fill: #c0392b; stroke: #c0392b"/>
     <use xlink:href="#me09cdd7224" x="662.809242" y="60.176364" style="fill: #c0392b; stroke: #c0392b"/>
     <use xlink:href="#me09cdd7224" x="683.398939" y="60.176364" style="fill: #c0392b; stroke: #c0392b"/>
     <use xlink:href="#me09cdd7224" x="703.988636" y="61.746135" style="fill: #c0392b; stroke: #c0392b"/>
     <use xlink:href="#me09cdd7224" x="724.578333" y="74.30431" style="fill: #c0392b; stroke: #c0392b"/>
     <use xlink:href="#me09cdd7224" x="745.16803" y="114.33349" style="fill: #c0392b; stroke: #c0392b"/>
     <use xlink:href="#me09cdd7224" x="765.757727" y="172.415047" style="fill: #c0392b; stroke: #c0392b"/>
    </g>
   </g>
   <g id="line2d_61">
    <path d="M 456.912273 250.903636 
L 477.50197 129.246322 
L 498.091667 74.30431 
L 518.681364 66.455451 
L 539.271061 62.531021 
L 559.860758 61.746135 
L 580.450455 60.176364 
L 601.040152 60.176364 
" clip-path="url(#p8f713edc68)" style="fill: none; stroke: #27ae60; stroke-width: 2; stroke-linecap: square"/>
    <defs>
     <path id="m5e015b7211" d="M -2.5 2.5 
L 2.5 2.5 
L 2.5 -2.5 
L -2.5 -2.5 
z
" style="stroke: #27ae60; stroke-linejoin: miter"/>
    </defs>
    <g clip-path="url(#p8f713edc68)">
     <use xlink:href="#m5e015b7211" x="456.912273" y="250.903636" style="fill: #27ae60; stroke: #27ae60; stroke-linejoin: miter"/>
     <use xlink:href="#m5e015b7211" x="477.50197" y="129.246322" style="fill: #27ae60; stroke: #27ae60; stroke-linejoin: miter"/>
     <use xlink:href="#m5e015b7211" x="498.091667" y="74.30431" style="fill: #27ae60; stroke: #27ae60; stroke-linejoin: miter"/>
     <use xlink:href="#m5e015b7211" x="518.681364" y="66.455451" style="fill: #27ae60; stroke: #27ae60; stroke-linejoin: miter"/>
     <use xlink:href="#m5e015b7211" x="539.271061" y="62.531021" style="fill: #27ae60; stroke: #27ae60; stroke-linejoin: miter"/>
     <use xlink:href="#m5e015b7211" x="559.860758" y="61.746135" style="fill: #27ae60; stroke: #27ae60; stroke-linejoin: miter"/>
     <use xlink:href="#m5e015b7211" x="580.450455" y="60.176364" style="fill: #27ae60; stroke: #27ae60; stroke-linejoin: miter"/>
     <use xlink:href="#m5e015b7211" x="601.040152" y="60.176364" style="fill: #27ae60; stroke: #27ae60; stroke-linejoin: miter"/>
    </g>
   </g>
   <g id="line2d_62">
    <path d="M 611.335 260.44 
L 611.335 50.64 
" clip-path="url(#p8f713edc68)" style="fill: none; stroke-dasharray: 3.7,1.6; stroke-dashoffset: 0; stroke: #808080"/>
   </g>
   <g id="patch_10">
    <path d="M 441.47 260.44 
L 441.47 50.64 
" style="fill: none; stroke: #000000; stroke-width: 0.8; stroke-linejoin: miter; stroke-linecap: square"/>
   </g>
   <g id="patch_11">
    <path d="M 781.2 260.44 
L 781.2 50.64 
" style="fill: none; stroke: #000000; stroke-width: 0.8; stroke-linejoin: miter; stroke-linecap: square"/>
   </g>
   <g id="patch_12">
    <path d="M 441.47 260.44 
L 781.2 260.44 
" style="fill: none; stroke: #000000; stroke-width: 0.8; stroke-linejoin: miter; stroke-linecap: square"/>
   </g>
   <g id="patch_13">
    <path d="M 441.47 50.64 
L 781.2 50.64 
" style="fill: none; stroke: #000000; stroke-width: 0.8; stroke-linejoin: miter; stroke-linecap: square"/>
   </g>
   <g id="patch_14">
    <path d="M 523.505794 123.504023 
Q 541.17625 93.486388 558.27953 64.432241 
" style="fill: none; stroke: #27ae60; stroke-linecap: round"/>
    <path d="M 555.277343 66.378231 
L 558.27953 64.432241 
L 558.03501 68.001584 
" style="fill: none; stroke: #27ae60; stroke-linecap: round"/>
   </g>
   <g id="text_36">
    <!-- MOC saturates: -->
    <g transform="translate(477.50197 133.306628) scale(0.08 -0.08)">
     <defs>
      <path id="DejaVuSans-75" d="M 544 1381 
L 544 3500 
L 1119 3500 
L 1119 1403 
Q 1119 906 1312 657 
Q 1506 409 1894 409 
Q 2359 409 2629 706 
Q 2900 1003 2900 1516 
L 2900 3500 
L 3475 3500 
L 3475 0 
L 2900 0 
L 2900 538 
Q 2691 219 2414 64 
Q 2138 -91 1772 -91 
Q 1169 -91 856 284 
Q 544 659 544 1381 
z
M 1991 3584 
L 1991 3584 
z
" transform="scale(0.015625)"/>
      <path id="DejaVuSans-3a" d="M 750 794 
L 1409 794 
L 1409 0 
L 750 0 
L 750 794 
z
M 750 3309 
L 1409 3309 
L 1409 2516 
L 750 2516 
L 750 3309 
z
" transform="scale(0.015625)"/>
     </defs>
     <use xlink:href="#DejaVuSans-4d"/>
     <use xlink:href="#DejaVuSans-4f" transform="translate(86.279297 0)"/>
     <use xlink:href="#DejaVuSans-43" transform="translate(164.990234 0)"/>
     <use xlink:href="#DejaVuSans-20" transform="translate(234.814453 0)"/>
     <use xlink:href="#DejaVuSans-73" transform="translate(266.601562 0)"/>
     <use xlink:href="#DejaVuSans-61" transform="translate(318.701172 0)"/>
     <use xlink:href="#DejaVuSans-74" transform="translate(379.980469 0)"/>
     <use xlink:href="#DejaVuSans-75" transform="translate(419.189453 0)"/>
     <use xlink:href="#DejaVuSans-72" transform="translate(482.568359 0)"/>
     <use xlink:href="#DejaVuSans-61" transform="translate(523.681641 0)"/>
     <use xlink:href="#DejaVuSans-74" transform="translate(584.960938 0)"/>
     <use xlink:href="#DejaVuSans-65" transform="translate(624.169922 0)"/>
     <use xlink:href="#DejaVuSans-73" transform="translate(685.693359 0)"/>
     <use xlink:href="#DejaVuSans-3a" transform="translate(737.792969 0)"/>
    </g>
    <!-- dissipation breaks -->
    <g transform="translate(477.50197 142.264878) scale(0.08 -0.08)">
     <defs>
      <path id="DejaVuSans-6b" d="M 581 4863 
L 1159 4863 
L 1159 1991 
L 2875 3500 
L 3609 3500 
L 1753 1863 
L 3688 0 
L 2938 0 
L 1159 1709 
L 1159 0 
L 581 0 
L 581 4863 
z
" transform="scale(0.015625)"/>
     </defs>
     <use xlink:href="#DejaVuSans-64"/>
     <use xlink:href="#DejaVuSans-69" transform="translate(63.476562 0)"/>
     <use xlink:href="#DejaVuSans-73" transform="translate(91.259766 0)"/>
     <use xlink:href="#DejaVuSans-73" transform="translate(143.359375 0)"/>
     <use xlink:href="#DejaVuSans-69" transform="translate(195.458984 0)"/>
     <use xlink:href="#DejaVuSans-70" transform="translate(223.242188 0)"/>
     <use xlink:href="#DejaVuSans-61" transform="translate(286.71875 0)"/>
     <use xlink:href="#DejaVuSans-74" transform="translate(347.998047 0)"/>
     <use xlink:href="#DejaVuSans-69" transform="translate(387.207031 0)"/>
     <use xlink:href="#DejaVuSans-6f" transform="translate(414.990234 0)"/>
     <use xlink:href="#DejaVuSans-6e" transform="translate(476.171875 0)"/>
     <use xlink:href="#DejaVuSans-20" transform="translate(539.550781 0)"/>
     <use xlink:href="#DejaVuSans-62" transform="translate(571.337891 0)"/>
     <use xlink:href="#DejaVuSans-72" transform="translate(634.814453 0)"/>
     <use xlink:href="#DejaVuSans-65" transform="translate(673.677734 0)"/>
     <use xlink:href="#DejaVuSans-61" transform="translate(735.201172 0)"/>
     <use xlink:href="#DejaVuSans-6b" transform="translate(796.480469 0)"/>
     <use xlink:href="#DejaVuSans-73" transform="translate(854.390625 0)"/>
    </g>
    <!-- cancellation -->
    <g transform="translate(477.50197 151.223128) scale(0.08 -0.08)">
     <use xlink:href="#DejaVuSans-63"/>
     <use xlink:href="#DejaVuSans-61" transform="translate(54.980469 0)"/>
     <use xlink:href="#DejaVuSans-6e" transform="translate(116.259766 0)"/>
     <use xlink:href="#DejaVuSans-63" transform="translate(179.638672 0)"/>
     <use xlink:href="#DejaVuSans-65" transform="translate(234.619141 0)"/>
     <use xlink:href="#DejaVuSans-6c" transform="translate(296.142578 0)"/>
     <use xlink:href="#DejaVuSans-6c" transform="translate(323.925781 0)"/>
     <use xlink:href="#DejaVuSans-61" transform="translate(351.708984 0)"/>
     <use xlink:href="#DejaVuSans-74" transform="translate(412.988281 0)"/>
     <use xlink:href="#DejaVuSans-69" transform="translate(452.197266 0)"/>
     <use xlink:href="#DejaVuSans-6f" transform="translate(479.980469 0)"/>
     <use xlink:href="#DejaVuSans-6e" transform="translate(541.162109 0)"/>
    </g>
   </g>
   <g id="text_37">
    <!-- Open system (γ=0.05) -->
    <g transform="translate(543.183438 44.64) scale(0.12 -0.12)">
     <defs>
      <path id="DejaVuSans-2e" d="M 684 794 
L 1344 794 
L 1344 0 
L 684 0 
L 684 794 
z
" transform="scale(0.015625)"/>
     </defs>
     <use xlink:href="#DejaVuSans-4f"/>
     <use xlink:href="#DejaVuSans-70" transform="translate(78.710938 0)"/>
     <use xlink:href="#DejaVuSans-65" transform="translate(142.1875 0)"/>
     <use xlink:href="#DejaVuSans-6e" transform="translate(203.710938 0)"/>
     <use xlink:href="#DejaVuSans-20" transform="translate(267.089844 0)"/>
     <use xlink:href="#DejaVuSans-73" transform="translate(298.876953 0)"/>
     <use xlink:href="#DejaVuSans-79" transform="translate(350.976562 0)"/>
     <use xlink:href="#DejaVuSans-73" transform="translate(410.15625 0)"/>
     <use xlink:href="#DejaVuSans-74" transform="translate(462.255859 0)"/>
     <use xlink:href="#DejaVuSans-65" transform="translate(501.464844 0)"/>
     <use xlink:href="#DejaVuSans-6d" transform="translate(562.988281 0)"/>
     <use xlink:href="#DejaVuSans-20" transform="translate(660.400391 0)"/>
     <use xlink:href="#DejaVuSans-28" transform="translate(692.1875 0)"/>
     <use xlink:href="#DejaVuSans-3b3" transform="translate(731.201172 0)"/>
     <use xlink:href="#DejaVuSans-3d" transform="translate(790.380859 0)"/>
     <use xlink:href="#DejaVuSans-30" transform="translate(874.169922 0)"/>
     <use xlink:href="#DejaVuSans-2e" transform="translate(937.792969 0)"/>
     <use xlink:href="#DejaVuSans-30" transform="translate(969.580078 0)"/>
     <use xlink:href="#DejaVuSans-35" transform="translate(1033.203125 0)"/>
     <use xlink:href="#DejaVuSans-29" transform="translate(1096.826172 0)"/>
    </g>
   </g>
   <g id="legend_2">
    <g id="patch_15">
     <path d="M 702.4625 256.44 
L 775.6 256.44 
Q 777.2 256.44 777.2 254.84 
L 777.2 232.155 
Q 777.2 230.555 775.6 230.555 
L 702.4625 230.555 
Q 700.8625 230.555 700.8625 232.155 
L 700.8625 254.84 
Q 700.8625 256.44 702.4625 256.44 
z
" style="fill: #ffffff; opacity: 0.8; stroke: #cccccc; stroke-linejoin: miter"/>
    </g>
    <g id="line2d_63">
     <path d="M 704.0625 237.03375 
L 712.0625 237.03375 
L 720.0625 237.03375 
" style="fill: none; stroke: #c0392b; stroke-width: 2; stroke-linecap: square"/>
     <g>
      <use xlink:href="#me09cdd7224" x="712.0625" y="237.03375" style="fill: #c0392b; stroke: #c0392b"/>
     </g>
    </g>
    <g id="text_38">
     <!-- PLAIN -->
     <g transform="translate(726.4625 239.83375) scale(0.08 -0.08)">
      <use xlink:href="#DejaVuSans-50"/>
      <use xlink:href="#DejaVuSans-4c" transform="translate(60.302734 0)"/>
      <use xlink:href="#DejaVuSans-41" transform="translate(118.265625 0)"/>
      <use xlink:href="#DejaVuSans-49" transform="translate(186.673828 0)"/>
      <use xlink:href="#DejaVuSans-4e" transform="translate(216.166016 0)"/>
     </g>
    </g>
    <g id="line2d_64">
     <path d="M 704.0625 248.77625 
L 712.0625 248.77625 
L 720.0625 248.77625 
" style="fill: none; stroke: #27ae60; stroke-width: 2; stroke-linecap: square"/>
     <g>
      <use xlink:href="#m5e015b7211" x="712.0625" y="248.77625" style="fill: #27ae60; stroke: #27ae60; stroke-linejoin: miter"/>
     </g>
    </g>
    <g id="text_39">
     <!-- MOC (open) -->
     <g transform="translate(726.4625 251.57625) scale(0.08 -0.08)">
      <use xlink:href="#DejaVuSans-4d"/>
      <use xlink:href="#DejaVuSans-4f" transform="translate(86.279297 0)"/>
      <use xlink:href="#DejaVuSans-43" transform="translate(164.990234 0)"/>
      <use xlink:href="#DejaVuSans-20" transform="translate(234.814453 0)"/>
      <use xlink:href="#DejaVuSans-28" transform="translate(266.601562 0)"/>
      <use xlink:href="#DejaVuSans-6f" transform="translate(305.615234 0)"/>
      <use xlink:href="#DejaVuSans-70" transform="translate(366.796875 0)"/>
      <use xlink:href="#DejaVuSans-65" transform="translate(430.273438 0)"/>
      <use xlink:href="#DejaVuSans-6e" transform="translate(491.796875 0)"/>
      <use xlink:href="#DejaVuSans-29" transform="translate(555.175781 0)"/>
     </g>
    </g>
   </g>
  </g>
  <g id="text_40">
   <!-- Middle-out contraction vs plain multiplication (n=5) -->
   <g transform="translate(220.35375 15.166125) scale(0.12 -0.12)">
    <defs>
     <path id="DejaVuSans-Bold-4d" d="M 588 4666 
L 2119 4666 
L 3181 2169 
L 4250 4666 
L 5778 4666 
L 5778 0 
L 4641 0 
L 4641 3413 
L 3566 897 
L 2803 897 
L 1728 3413 
L 1728 0 
L 588 0 
L 588 4666 
z
" transform="scale(0.015625)"/>
     <path id="DejaVuSans-Bold-69" d="M 538 3500 
L 1656 3500 
L 1656 0 
L 538 0 
L 538 3500 
z
M 538 4863 
L 1656 4863 
L 1656 3950 
L 538 3950 
L 538 4863 
z
" transform="scale(0.015625)"/>
     <path id="DejaVuSans-Bold-64" d="M 2919 2988 
L 2919 4863 
L 4044 4863 
L 4044 0 
L 2919 0 
L 2919 506 
Q 2688 197 2409 53 
Q 2131 -91 1766 -91 
Q 1119 -91 703 423 
Q 288 938 288 1747 
Q 288 2556 703 3070 
Q 1119 3584 1766 3584 
Q 2128 3584 2408 3439 
Q 2688 3294 2919 2988 
z
M 2181 722 
Q 2541 722 2730 984 
Q 2919 1247 2919 1747 
Q 2919 2247 2730 2509 
Q 2541 2772 2181 2772 
Q 1825 2772 1636 2509 
Q 1447 2247 1447 1747 
Q 1447 1247 1636 984 
Q 1825 722 2181 722 
z
" transform="scale(0.015625)"/>
     <path id="DejaVuSans-Bold-6c" d="M 538 4863 
L 1656 4863 
L 1656 0 
L 538 0 
L 538 4863 
z
" transform="scale(0.015625)"/>
     <path id="DejaVuSans-Bold-65" d="M 4031 1759 
L 4031 1441 
L 1416 1441 
Q 1456 1047 1700 850 
Q 1944 653 2381 653 
Q 2734 653 3104 758 
Q 3475 863 3866 1075 
L 3866 213 
Q 3469 63 3072 -14 
Q 2675 -91 2278 -91 
Q 1328 -91 801 392 
Q 275 875 275 1747 
Q 275 2603 792 3093 
Q 1309 3584 2216 3584 
Q 3041 3584 3536 3087 
Q 4031 2591 4031 1759 
z
M 2881 2131 
Q 2881 2450 2695 2645 
Q 2509 2841 2209 2841 
Q 1884 2841 1681 2658 
Q 1478 2475 1428 2131 
L 2881 2131 
z
" transform="scale(0.015625)"/>
     <path id="DejaVuSans-Bold-2d" d="M 347 2297 
L 2309 2297 
L 2309 1388 
L 347 1388 
L 347 2297 
z
" transform="scale(0.015625)"/>
     <path id="DejaVuSans-Bold-6f" d="M 2203 2784 
Q 1831 2784 1636 2517 
Q 1441 2250 1441 1747 
Q 1441 1244 1636 976 
Q 1831 709 2203 709 
Q 2569 709 2762 976 
Q 2956 1244 2956 1747 
Q 2956 2250 2762 2517 
Q 2569 2784 2203 2784 
z
M 2203 3584 
Q 3106 3584 3614 3096 
Q 4122 2609 4122 1747 
Q 4122 884 3614 396 
Q 3106 -91 2203 -91 
Q 1297 -91 786 396 
Q 275 884 275 1747 
Q 275 2609 786 3096 
Q 1297 3584 2203 3584 
z
" transform="scale(0.015625)"/>
     <path id="DejaVuSans-Bold-75" d="M 500 1363 
L 500 3500 
L 1625 3500 
L 1625 3150 
Q 1625 2866 1622 2436 
Q 1619 2006 1619 1863 
Q 1619 1441 1641 1255 
Q 1663 1069 1716 984 
Q 1784 875 1895 815 
Q 2006 756 2150 756 
Q 2500 756 2700 1025 
Q 2900 1294 2900 1772 
L 2900 3500 
L 4019 3500 
L 4019 0 
L 2900 0 
L 2900 506 
Q 2647 200 2364 54 
Q 2081 -91 1741 -91 
Q 1134 -91 817 281 
Q 500 653 500 1363 
z
" transform="scale(0.015625)"/>
     <path id="DejaVuSans-Bold-74" d="M 1759 4494 
L 1759 3500 
L 2913 3500 
L 2913 2700 
L 1759 2700 
L 1759 1216 
Q 1759 972 1856 886 
Q 1953 800 2241 800 
L 2816 800 
L 2816 0 
L 1856 0 
Q 1194 0 917 276 
Q 641 553 641 1216 
L 641 2700 
L 84 2700 
L 84 3500 
L 641 3500 
L 641 4494 
L 1759 4494 
z
" transform="scale(0.015625)"/>
     <path id="DejaVuSans-Bold-20" transform="scale(0.015625)"/>
     <path id="DejaVuSans-Bold-63" d="M 3366 3391 
L 3366 2478 
Q 3138 2634 2908 2709 
Q 2678 2784 2431 2784 
Q 1963 2784 1702 2511 
Q 1441 2238 1441 1747 
Q 1441 1256 1702 982 
Q 1963 709 2431 709 
Q 2694 709 2930 787 
Q 3166 866 3366 1019 
L 3366 103 
Q 3103 6 2833 -42 
Q 2563 -91 2291 -91 
Q 1344 -91 809 395 
Q 275 881 275 1747 
Q 275 2613 809 3098 
Q 1344 3584 2291 3584 
Q 2566 3584 2833 3536 
Q 3100 3488 3366 3391 
z
" transform="scale(0.015625)"/>
     <path id="DejaVuSans-Bold-6e" d="M 4056 2131 
L 4056 0 
L 2931 0 
L 2931 347 
L 2931 1631 
Q 2931 2084 2911 2256 
Q 2891 2428 2841 2509 
Q 2775 2619 2662 2680 
Q 2550 2741 2406 2741 
Q 2056 2741 1856 2470 
Q 1656 2200 1656 1722 
L 1656 0 
L 538 0 
L 538 3500 
L 1656 3500 
L 1656 2988 
Q 1909 3294 2193 3439 
Q 2478 3584 2822 3584 
Q 3428 3584 3742 3212 
Q 4056 2841 4056 2131 
z
" transform="scale(0.015625)"/>
     <path id="DejaVuSans-Bold-72" d="M 3138 2547 
Q 2991 2616 2845 2648 
Q 2700 2681 2553 2681 
Q 2122 2681 1889 2404 
Q 1656 2128 1656 1613 
L 1656 0 
L 538 0 
L 538 3500 
L 1656 3500 
L 1656 2925 
Q 1872 3269 2151 3426 
Q 2431 3584 2822 3584 
Q 2878 3584 2943 3579 
Q 3009 3575 3134 3559 
L 3138 2547 
z
" transform="scale(0.015625)"/>
     <path id="DejaVuSans-Bold-61" d="M 2106 1575 
Q 1756 1575 1579 1456 
Q 1403 1338 1403 1106 
Q 1403 894 1545 773 
Q 1688 653 1941 653 
Q 2256 653 2472 879 
Q 2688 1106 2688 1447 
L 2688 1575 
L 2106 1575 
z
M 3816 1997 
L 3816 0 
L 2688 0 
L 2688 519 
Q 2463 200 2181 54 
Q 1900 -91 1497 -91 
Q 953 -91 614 226 
Q 275 544 275 1050 
Q 275 1666 698 1953 
Q 1122 2241 2028 2241 
L 2688 2241 
L 2688 2328 
Q 2688 2594 2478 2717 
Q 2269 2841 1825 2841 
Q 1466 2841 1156 2769 
Q 847 2697 581 2553 
L 581 3406 
Q 941 3494 1303 3539 
Q 1666 3584 2028 3584 
Q 2975 3584 3395 3211 
Q 3816 2838 3816 1997 
z
" transform="scale(0.015625)"/>
     <path id="DejaVuSans-Bold-76" d="M 97 3500 
L 1216 3500 
L 2088 1081 
L 2956 3500 
L 4078 3500 
L 2700 0 
L 1472 0 
L 97 3500 
z
" transform="scale(0.015625)"/>
     <path id="DejaVuSans-Bold-73" d="M 3272 3391 
L 3272 2541 
Q 2913 2691 2578 2766 
Q 2244 2841 1947 2841 
Q 1628 2841 1473 2761 
Q 1319 2681 1319 2516 
Q 1319 2381 1436 2309 
Q 1553 2238 1856 2203 
L 2053 2175 
Q 2913 2066 3209 1816 
Q 3506 1566 3506 1031 
Q 3506 472 3093 190 
Q 2681 -91 1863 -91 
Q 1516 -91 1145 -36 
Q 775 19 384 128 
L 384 978 
Q 719 816 1070 734 
Q 1422 653 1784 653 
Q 2113 653 2278 743 
Q 2444 834 2444 1013 
Q 2444 1163 2330 1236 
Q 2216 1309 1875 1350 
L 1678 1375 
Q 931 1469 631 1722 
Q 331 1975 331 2491 
Q 331 3047 712 3315 
Q 1094 3584 1881 3584 
Q 2191 3584 2531 3537 
Q 2872 3491 3272 3391 
z
" transform="scale(0.015625)"/>
     <path id="DejaVuSans-Bold-70" d="M 1656 506 
L 1656 -1331 
L 538 -1331 
L 538 3500 
L 1656 3500 
L 1656 2988 
Q 1888 3294 2169 3439 
Q 2450 3584 2816 3584 
Q 3463 3584 3878 3070 
Q 4294 2556 4294 1747 
Q 4294 938 3878 423 
Q 3463 -91 2816 -91 
Q 2450 -91 2169 54 
Q 1888 200 1656 506 
z
M 2400 2772 
Q 2041 2772 1848 2508 
Q 1656 2244 1656 1747 
Q 1656 1250 1848 986 
Q 2041 722 2400 722 
Q 2759 722 2948 984 
Q 3138 1247 3138 1747 
Q 3138 2247 2948 2509 
Q 2759 2772 2400 2772 
z
" transform="scale(0.015625)"/>
     <path id="DejaVuSans-Bold-6d" d="M 3781 2919 
Q 3994 3244 4286 3414 
Q 4578 3584 4928 3584 
Q 5531 3584 5847 3212 
Q 6163 2841 6163 2131 
L 6163 0 
L 5038 0 
L 5038 1825 
Q 5041 1866 5042 1909 
Q 5044 1953 5044 2034 
Q 5044 2406 4934 2573 
Q 4825 2741 4581 2741 
Q 4263 2741 4089 2478 
Q 3916 2216 3909 1719 
L 3909 0 
L 2784 0 
L 2784 1825 
Q 2784 2406 2684 2573 
Q 2584 2741 2328 2741 
Q 2006 2741 1831 2477 
Q 1656 2213 1656 1722 
L 1656 0 
L 531 0 
L 531 3500 
L 1656 3500 
L 1656 2988 
Q 1863 3284 2130 3434 
Q 2397 3584 2719 3584 
Q 3081 3584 3359 3409 
Q 3638 3234 3781 2919 
z
" transform="scale(0.015625)"/>
     <path id="DejaVuSans-Bold-28" d="M 2413 -844 
L 1484 -844 
Q 1006 -72 778 623 
Q 550 1319 550 2003 
Q 550 2688 779 3389 
Q 1009 4091 1484 4856 
L 2413 4856 
Q 2013 4116 1813 3408 
Q 1613 2700 1613 2009 
Q 1613 1319 1811 609 
Q 2009 -100 2413 -844 
z
" transform="scale(0.015625)"/>
     <path id="DejaVuSans-Bold-3d" d="M 678 3084 
L 4684 3084 
L 4684 2350 
L 678 2350 
L 678 3084 
z
M 678 1663 
L 4684 1663 
L 4684 922 
L 678 922 
L 678 1663 
z
" transform="scale(0.015625)"/>
     <path id="DejaVuSans-Bold-35" d="M 678 4666 
L 3669 4666 
L 3669 3781 
L 1638 3781 
L 1638 3059 
Q 1775 3097 1914 3117 
Q 2053 3138 2203 3138 
Q 3056 3138 3531 2711 
Q 4006 2284 4006 1522 
Q 4006 766 3489 337 
Q 2972 -91 2053 -91 
Q 1656 -91 1267 -14 
Q 878 63 494 219 
L 494 1166 
Q 875 947 1217 837 
Q 1559 728 1863 728 
Q 2300 728 2551 942 
Q 2803 1156 2803 1522 
Q 2803 1891 2551 2103 
Q 2300 2316 1863 2316 
Q 1603 2316 1309 2248 
Q 1016 2181 678 2041 
L 678 4666 
z
" transform="scale(0.015625)"/>
     <path id="DejaVuSans-Bold-29" d="M 513 -844 
Q 913 -100 1113 609 
Q 1313 1319 1313 2009 
Q 1313 2700 1113 3408 
Q 913 4116 513 4856 
L 1441 4856 
Q 1916 4091 2145 3389 
Q 2375 2688 2375 2003 
Q 2375 1319 2147 623 
Q 1919 -72 1441 -844 
L 513 -844 
z
" transform="scale(0.015625)"/>
    </defs>
    <use xlink:href="#DejaVuSans-Bold-4d"/>
    <use xlink:href="#DejaVuSans-Bold-69" transform="translate(99.511719 0)"/>
    <use xlink:href="#DejaVuSans-Bold-64" transform="translate(133.789062 0)"/>
    <use xlink:href="#DejaVuSans-Bold-64" transform="translate(205.371094 0)"/>
    <use xlink:href="#DejaVuSans-Bold-6c" transform="translate(276.953125 0)"/>
    <use xlink:href="#DejaVuSans-Bold-65" transform="translate(311.230469 0)"/>
    <use xlink:href="#DejaVuSans-Bold-2d" transform="translate(379.052734 0)"/>
    <use xlink:href="#DejaVuSans-Bold-6f" transform="translate(420.556641 0)"/>
    <use xlink:href="#DejaVuSans-Bold-75" transform="translate(489.257812 0)"/>
    <use xlink:href="#DejaVuSans-Bold-74" transform="translate(560.449219 0)"/>
    <use xlink:href="#DejaVuSans-Bold-20" transform="translate(608.251953 0)"/>
    <use xlink:href="#DejaVuSans-Bold-63" transform="translate(643.066406 0)"/>
    <use xlink:href="#DejaVuSans-Bold-6f" transform="translate(702.34375 0)"/>
    <use xlink:href="#DejaVuSans-Bold-6e" transform="translate(771.044922 0)"/>
    <use xlink:href="#DejaVuSans-Bold-74" transform="translate(842.236328 0)"/>
    <use xlink:href="#DejaVuSans-Bold-72" transform="translate(890.039062 0)"/>
    <use xlink:href="#DejaVuSans-Bold-61" transform="translate(939.355469 0)"/>
    <use xlink:href="#DejaVuSans-Bold-63" transform="translate(1006.835938 0)"/>
    <use xlink:href="#DejaVuSans-Bold-74" transform="translate(1066.113281 0)"/>
    <use xlink:href="#DejaVuSans-Bold-69" transform="translate(1113.916016 0)"/>
    <use xlink:href="#DejaVuSans-Bold-6f" transform="translate(1148.193359 0)"/>
    <use xlink:href="#DejaVuSans-Bold-6e" transform="translate(1216.894531 0)"/>
    <use xlink:href="#DejaVuSans-Bold-20" transform="translate(1288.085938 0)"/>
    <use xlink:href="#DejaVuSans-Bold-76" transform="translate(1322.900391 0)"/>
    <use xlink:href="#DejaVuSans-Bold-73" transform="translate(1388.085938 0)"/>
    <use xlink:href="#DejaVuSans-Bold-20" transform="translate(1447.607422 0)"/>
    <use xlink:href="#DejaVuSans-Bold-70" transform="translate(1482.421875 0)"/>
    <use xlink:href="#DejaVuSans-Bold-6c" transform="translate(1554.003906 0)"/>
    <use xlink:href="#DejaVuSans-Bold-61" transform="translate(1588.28125 0)"/>
    <use xlink:href="#DejaVuSans-Bold-69" transform="translate(1655.761719 0)"/>
    <use xlink:href="#DejaVuSans-Bold-6e" transform="translate(1690.039062 0)"/>
    <use xlink:href="#DejaVuSans-Bold-20" transform="translate(1761.230469 0)"/>
    <use xlink:href="#DejaVuSans-Bold-6d" transform="translate(1796.044922 0)"/>
    <use xlink:href="#DejaVuSans-Bold-75" transform="translate(1900.244141 0)"/>
    <use xlink:href="#DejaVuSans-Bold-6c" transform="translate(1971.435547 0)"/>
    <use xlink:href="#DejaVuSans-Bold-74" transform="translate(2005.712891 0)"/>
    <use xlink:href="#DejaVuSans-Bold-69" transform="translate(2053.515625 0)"/>
    <use xlink:href="#DejaVuSans-Bold-70" transform="translate(2087.792969 0)"/>
    <use xlink:href="#DejaVuSans-Bold-6c" transform="translate(2159.375 0)"/>
    <use xlink:href="#DejaVuSans-Bold-69" transform="translate(2193.652344 0)"/>
    <use xlink:href="#DejaVuSans-Bold-63" transform="translate(2227.929688 0)"/>
    <use xlink:href="#DejaVuSans-Bold-61" transform="translate(2287.207031 0)"/>
    <use xlink:href="#DejaVuSans-Bold-74" transform="translate(2354.6875 0)"/>
    <use xlink:href="#DejaVuSans-Bold-69" transform="translate(2402.490234 0)"/>
    <use xlink:href="#DejaVuSans-Bold-6f" transform="translate(2436.767578 0)"/>
    <use xlink:href="#DejaVuSans-Bold-6e" transform="translate(2505.46875 0)"/>
    <use xlink:href="#DejaVuSans-Bold-20" transform="translate(2576.660156 0)"/>
    <use xlink:href="#DejaVuSans-Bold-28" transform="translate(2611.474609 0)"/>
    <use xlink:href="#DejaVuSans-Bold-6e" transform="translate(2657.177734 0)"/>
    <use xlink:href="#DejaVuSans-Bold-3d" transform="translate(2728.369141 0)"/>
    <use xlink:href="#DejaVuSans-Bold-35" transform="translate(2812.158203 0)"/>
    <use xlink:href="#DejaVuSans-Bold-29" transform="translate(2881.738281 0)"/>
   </g>
  </g>
 </g>
 <defs>
  <clipPath id="p70d730b293">
   <rect x="50.87" y="50.64" width="339.73" height="209.8"/>
  </clipPath>
  <clipPath id="p8f713edc68">
   <rect x="441.47" y="50.64" width="339.73" height="209.8"/>
  </clipPath>
 </defs>
</svg>
