<?xml version="1.0" encoding="utf-8" standalone="no"?>
<!DOCTYPE svg PUBLIC "-//W3C//DTD SVG 1.1//EN"
  "http://www.w3.org/Graphics/SVG/1.1/DTD/svg11.dtd">
<svg xmlns:xlink="http://www.w3.org/1999/xlink" width="792pt" height="302.4pt" viewBox="0 0 792 302.4" xmlns="http://www.w3.org/2000/svg" version="1.1">
 <metadata>
  <rdf:RDF xmlns:dc="http://purl.org/dc/elements/1.1/" xmlns:cc="http://creativecommons.org/ns#" xmlns:rdf="http://www.w3.org/1999/02/22-rdf-syntax-ns#">
   <cc:Work>
    <dc:type rdf:resource="http://purl.org/dc/dcmitype/StillImage"/>
    <dc:date>2026-07-22T12:18:22.564962</dc:date>
    <dc:format>image/svg+xml</dc:format>
    <dc:creator>
     <cc:Agent>
      <dc:title>Matplotlib v3.10.8, https://matplotlib.org/</dc:title>
     </cc:Agent>
    </dc:creator>
   </cc:Work>
  </rdf:RDF>
 </metadata>
 <defs>
  <style type="text/css">*{stroke-linejoin: round; stroke-linecap: butt}</style>
 </defs>
 <g id="figure_1">
  <g id="patch_1">
   <path d="M 0 302.4 
L 792 302.4 
L 792 0 
L 0 0 
z
" style="fill: #ffffff"/>
  </g>
  <g id="axes_1">
   <g id="patch_2">
    <path d="M 56.357054 260.44 
L 391.588527 260.44 
L 391.588527 65.616 
L 56.357054 65.616 
z
" style="fill: #ffffff"/>
   </g>
   <g id="patch_3">
    <path d="M 71.594848 124455.25425 
L 100.423107 124455.25425 
L 100.423107 74.471636 
L 71.594848 74.471636 
z
" clip-path="url(#pe38305e80f)" style="fill: #c0392b"/>
   </g>
   <g id="patch_4">
    <path d="M 153.961303 124455.25425 
L 182.789563 124455.25425 
L 182.789563 193.481371 
L 153.961303 193.481371 
z
" clip-path="url(#pe38305e80f)" style="fill: #c0392b"/>
   </g>
   <g id="patch_5">
    <path d="M 236.327759 124455.25425 
L 265.156018 124455.25425 
L 265.156018 173.475107 
L 236.327759 173.475107 
z
" clip-path="url(#pe38305e80f)" style="fill: #c0392b"/>
   </g>
   <g id="patch_6">
    <path d="M 318.694214 124455.25425 
L 347.522473 124455.25425 
L 347.522473 103.097821 
L 318.694214 103.097821 
z
" clip-path="url(#pe38305e80f)" style="fill: #c0392b"/>
   </g>
   <g id="patch_7">
    <path d="M 100.423107 124455.25425 
L 129.251367 124455.25425 
L 129.251367 251.584364 
L 100.423107 251.584364 
z
" clip-path="url(#pe38305e80f)" style="fill: #16a085"/>
   </g>
   <g id="patch_8">
    <path d="M 182.789563 124455.25425 
L 211.617822 124455.25425 
L 211.617822 229.513895 
L 182.789563 229.513895 
z
" clip-path="url(#pe38305e80f)" style="fill: #16a085"/>
   </g>
   <g id="patch_9">
    <path d="M 265.156018 124455.25425 
L 293.984277 124455.25425 
L 293.984277 173.677054 
L 265.156018 173.677054 
z
" clip-path="url(#pe38305e80f)" style="fill: #16a085"/>
   </g>
   <g id="patch_10">
    <path d="M 347.522473 124455.25425 
L 376.350733 124455.25425 
L 376.350733 132.096089 
L 347.522473 132.096089 
z
" clip-path="url(#pe38305e80f)" style="fill: #16a085"/>
   </g>
   <g id="matplotlib.axis_1">
    <g id="xtick_1">
     <g id="line2d_1">
      <defs>
       <path id="m151007239d" d="M 0 0 
L 0 3.5 
" style="stroke: #000000; stroke-width: 0.8"/>
      </defs>
      <g>
       <use xlink:href="#m151007239d" x="100.423107" y="260.44" style="stroke: #000000; stroke-width: 0.8"/>
      </g>
     </g>
     <g id="text_1">
      <!-- 0.01 -->
      <g transform="translate(89.290295 275.038438) scale(0.1 -0.1)">
       <defs>
        <path id="DejaVuSans-30" d="M 2034 4250 
Q 1547 4250 1301 3770 
Q 1056 3291 1056 2328 
Q 1056 1369 1301 889 
Q 1547 409 2034 409 
Q 2525 409 2770 889 
Q 3016 1369 3016 2328 
Q 3016 3291 2770 3770 
Q 2525 4250 2034 4250 
z
M 2034 4750 
Q 2819 4750 3233 4129 
Q 3647 3509 3647 2328 
Q 3647 1150 3233 529 
Q 2819 -91 2034 -91 
Q 1250 -91 836 529 
Q 422 1150 422 2328 
Q 422 3509 836 4129 
Q 1250 4750 2034 4750 
z
" transform="scale(0.015625)"/>
        <path id="DejaVuSans-2e" d="M 684 794 
L 1344 794 
L 1344 0 
L 684 0 
L 684 794 
z
" transform="scale(0.015625)"/>
        <path id="DejaVuSans-31" d="M 794 531 
L 1825 531 
L 1825 4091 
L 703 3866 
L 703 4441 
L 1819 4666 
L 2450 4666 
L 2450 531 
L 3481 531 
L 3481 0 
L 794 0 
L 794 531 
z
" transform="scale(0.015625)"/>
       </defs>
       <use xlink:href="#DejaVuSans-30"/>
       <use xlink:href="#DejaVuSans-2e" transform="translate(63.623047 0)"/>
       <use xlink:href="#DejaVuSans-30" transform="translate(95.410156 0)"/>
       <use xlink:href="#DejaVuSans-31" transform="translate(159.033203 0)"/>
      </g>
     </g>
    </g>
    <g id="xtick_2">
     <g id="line2d_2">
      <g>
       <use xlink:href="#m151007239d" x="182.789563" y="260.44" style="stroke: #000000; stroke-width: 0.8"/>
      </g>
     </g>
     <g id="text_2">
      <!-- 0.02 -->
      <g transform="translate(171.65675 275.038438) scale(0.1 -0.1)">
       <defs>
        <path id="DejaVuSans-32" d="M 1228 531 
L 3431 531 
L 3431 0 
L 469 0 
L 469 531 
Q 828 903 1448 1529 
Q 2069 2156 2228 2338 
Q 2531 2678 2651 2914 
Q 2772 3150 2772 3378 
Q 2772 3750 2511 3984 
Q 2250 4219 1831 4219 
Q 1534 4219 1204 4116 
Q 875 4013 500 3803 
L 500 4441 
Q 881 4594 1212 4672 
Q 1544 4750 1819 4750 
Q 2544 4750 2975 4387 
Q 3406 4025 3406 3419 
Q 3406 3131 3298 2873 
Q 3191 2616 2906 2266 
Q 2828 2175 2409 1742 
Q 1991 1309 1228 531 
z
" transform="scale(0.015625)"/>
       </defs>
       <use xlink:href="#DejaVuSans-30"/>
       <use xlink:href="#DejaVuSans-2e" transform="translate(63.623047 0)"/>
       <use xlink:href="#DejaVuSans-30" transform="translate(95.410156 0)"/>
       <use xlink:href="#DejaVuSans-32" transform="translate(159.033203 0)"/>
      </g>
     </g>
    </g>
    <g id="xtick_3">
     <g id="line2d_3">
      <g>
       <use xlink:href="#m151007239d" x="265.156018" y="260.44" style="stroke: #000000; stroke-width: 0.8"/>
      </g>
     </g>
     <g id="text_3">
      <!-- 0.05 -->
      <g transform="translate(254.023206 275.038438) scale(0.1 -0.1)">
       <defs>
        <path id="DejaVuSans-35" d="M 691 4666 
L 3169 4666 
L 3169 4134 
L 1269 4134 
L 1269 2991 
Q 1406 3038 1543 3061 
Q 1681 3084 1819 3084 
Q 2600 3084 3056 2656 
Q 3513 2228 3513 1497 
Q 3513 744 3044 326 
Q 2575 -91 1722 -91 
Q 1428 -91 1123 -41 
Q 819 9 494 109 
L 494 744 
Q 775 591 1075 516 
Q 1375 441 1709 441 
Q 2250 441 2565 725 
Q 2881 1009 2881 1497 
Q 2881 1984 2565 2268 
Q 2250 2553 1709 2553 
Q 1456 2553 1204 2497 
Q 953 2441 691 2322 
L 691 4666 
z
" transform="scale(0.015625)"/>
       </defs>
       <use xlink:href="#DejaVuSans-30"/>
       <use xlink:href="#DejaVuSans-2e" transform="translate(63.623047 0)"/>
       <use xlink:href="#DejaVuSans-30" transform="translate(95.410156 0)"/>
       <use xlink:href="#DejaVuSans-35" transform="translate(159.033203 0)"/>
      </g>
     </g>
    </g>
    <g id="xtick_4">
     <g id="line2d_4">
      <g>
       <use xlink:href="#m151007239d" x="347.522473" y="260.44" style="stroke: #000000; stroke-width: 0.8"/>
      </g>
     </g>
     <g id="text_4">
      <!-- 0.1 -->
      <g transform="translate(339.570911 275.038438) scale(0.1 -0.1)">
       <use xlink:href="#DejaVuSans-30"/>
       <use xlink:href="#DejaVuSans-2e" transform="translate(63.623047 0)"/>
       <use xlink:href="#DejaVuSans-31" transform="translate(95.410156 0)"/>
      </g>
     </g>
    </g>
    <g id="text_5">
     <!-- γ -->
     <g transform="translate(221.013415 288.716563) scale(0.1 -0.1)">
      <defs>
       <path id="DejaVuSans-3b3" d="M 1128 2950 
L 1894 788 
L 2988 3500 
L 3597 3500 
L 2181 0 
L 2181 -1331 
L 1606 -1331 
L 1606 0 
L 688 2613 
Q 550 3006 253 3006 
L 100 3006 
L 100 3500 
L 319 3500 
Q 934 3500 1128 2950 
z
" transform="scale(0.015625)"/>
      </defs>
      <use xlink:href="#DejaVuSans-3b3"/>
     </g>
    </g>
   </g>
   <g id="matplotlib.axis_2">
    <g id="ytick_1">
     <g id="line2d_5">
      <path d="M 56.357054 227.130705 
L 391.588527 227.130705 
" clip-path="url(#pe38305e80f)" style="fill: none; stroke: #b0b0b0; stroke-opacity: 0.3; stroke-width: 0.8; stroke-linecap: square"/>
     </g>
     <g id="line2d_6">
      <defs>
       <path id="mfba9701dd3" d="M 0 0 
L -3.5 0 
" style="stroke: #000000; stroke-width: 0.8"/>
      </defs>
      <g>
       <use xlink:href="#mfba9701dd3" x="56.357054" y="227.130705" style="stroke: #000000; stroke-width: 0.8"/>
      </g>
     </g>
     <g id="text_6">
      <!-- $\mathdefault{10^{-5}}$ -->
      <g transform="translate(25.857054 230.929923) scale(0.1 -0.1)">
       <defs>
        <path id="DejaVuSans-2212" d="M 678 2272 
L 4684 2272 
L 4684 1741 
L 678 1741 
L 678 2272 
z
" transform="scale(0.015625)"/>
       </defs>
       <use xlink:href="#DejaVuSans-31" transform="translate(0 0.684375)"/>
       <use xlink:href="#DejaVuSans-30" transform="translate(63.623047 0.684375)"/>
       <use xlink:href="#DejaVuSans-2212" transform="translate(128.203125 38.965625) scale(0.7)"/>
       <use xlink:href="#DejaVuSans-35" transform="translate(186.855469 38.965625) scale(0.7)"/>
      </g>
     </g>
    </g>
    <g id="ytick_2">
     <g id="line2d_7">
      <path d="M 56.357054 102.278319 
L 391.588527 102.278319 
" clip-path="url(#pe38305e80f)" style="fill: none; stroke: #b0b0b0; stroke-opacity: 0.3; stroke-width: 0.8; stroke-linecap: square"/>
     </g>
     <g id="line2d_8">
      <g>
       <use xlink:href="#mfba9701dd3" x="56.357054" y="102.278319" style="stroke: #000000; stroke-width: 0.8"/>
      </g>
     </g>
     <g id="text_7">
      <!-- $\mathdefault{10^{-4}}$ -->
      <g transform="translate(25.857054 106.077538) scale(0.1 -0.1)">
       <defs>
        <path id="DejaVuSans-34" d="M 2419 4116 
L 825 1625 
L 2419 1625 
L 2419 4116 
z
M 2253 4666 
L 3047 4666 
L 3047 1625 
L 3713 1625 
L 3713 1100 
L 3047 1100 
L 3047 0 
L 2419 0 
L 2419 1100 
L 313 1100 
L 313 1709 
L 2253 4666 
z
" transform="scale(0.015625)"/>
       </defs>
       <use xlink:href="#DejaVuSans-31" transform="translate(0 0.684375)"/>
       <use xlink:href="#DejaVuSans-30" transform="translate(63.623047 0.684375)"/>
       <use xlink:href="#DejaVuSans-2212" transform="translate(128.203125 38.965625) scale(0.7)"/>
       <use xlink:href="#DejaVuSans-34" transform="translate(186.855469 38.965625) scale(0.7)"/>
      </g>
     </g>
    </g>
    <g id="ytick_3">
     <g id="line2d_9">
      <defs>
       <path id="md00c6c63e1" d="M 0 0 
L -2 0 
" style="stroke: #000000; stroke-width: 0.6"/>
      </defs>
      <g>
       <use xlink:href="#md00c6c63e1" x="56.357054" y="254.82905" style="stroke: #000000; stroke-width: 0.6"/>
      </g>
     </g>
    </g>
    <g id="ytick_4">
     <g id="line2d_10">
      <g>
       <use xlink:href="#md00c6c63e1" x="56.357054" y="246.470584" style="stroke: #000000; stroke-width: 0.6"/>
      </g>
     </g>
    </g>
    <g id="ytick_5">
     <g id="line2d_11">
      <g>
       <use xlink:href="#md00c6c63e1" x="56.357054" y="239.230151" style="stroke: #000000; stroke-width: 0.6"/>
      </g>
     </g>
    </g>
    <g id="ytick_6">
     <g id="line2d_12">
      <g>
       <use xlink:href="#md00c6c63e1" x="56.357054" y="232.843636" style="stroke: #000000; stroke-width: 0.6"/>
      </g>
     </g>
    </g>
    <g id="ytick_7">
     <g id="line2d_13">
      <g>
       <use xlink:href="#md00c6c63e1" x="56.357054" y="189.546391" style="stroke: #000000; stroke-width: 0.6"/>
      </g>
     </g>
    </g>
    <g id="ytick_8">
     <g id="line2d_14">
      <g>
       <use xlink:href="#md00c6c63e1" x="56.357054" y="167.560978" style="stroke: #000000; stroke-width: 0.6"/>
      </g>
     </g>
    </g>
    <g id="ytick_9">
     <g id="line2d_15">
      <g>
       <use xlink:href="#md00c6c63e1" x="56.357054" y="151.962078" style="stroke: #000000; stroke-width: 0.6"/>
      </g>
     </g>
    </g>
    <g id="ytick_10">
     <g id="line2d_16">
      <g>
       <use xlink:href="#md00c6c63e1" x="56.357054" y="139.862632" style="stroke: #000000; stroke-width: 0.6"/>
      </g>
     </g>
    </g>
    <g id="ytick_11">
     <g id="line2d_17">
      <g>
       <use xlink:href="#md00c6c63e1" x="56.357054" y="129.976665" style="stroke: #000000; stroke-width: 0.6"/>
      </g>
     </g>
    </g>
    <g id="ytick_12">
     <g id="line2d_18">
      <g>
       <use xlink:href="#md00c6c63e1" x="56.357054" y="121.618198" style="stroke: #000000; stroke-width: 0.6"/>
      </g>
     </g>
    </g>
    <g id="ytick_13">
     <g id="line2d_19">
      <g>
       <use xlink:href="#md00c6c63e1" x="56.357054" y="114.377765" style="stroke: #000000; stroke-width: 0.6"/>
      </g>
     </g>
    </g>
    <g id="ytick_14">
     <g id="line2d_20">
      <g>
       <use xlink:href="#md00c6c63e1" x="56.357054" y="107.991251" style="stroke: #000000; stroke-width: 0.6"/>
      </g>
     </g>
    </g>
    <g id="text_8">
     <!-- achieved DMPF error  ||ρ_ref − μ||² -->
     <g transform="translate(19.499241 249.944406) rotate(-90) scale(0.1 -0.1)">
      <defs>
       <path id="DejaVuSans-61" d="M 2194 1759 
Q 1497 1759 1228 1600 
Q 959 1441 959 1056 
Q 959 750 1161 570 
Q 1363 391 1709 391 
Q 2188 391 2477 730 
Q 2766 1069 2766 1631 
L 2766 1759 
L 2194 1759 
z
M 3341 1997 
L 3341 0 
L 2766 0 
L 2766 531 
Q 2569 213 2275 61 
Q 1981 -91 1556 -91 
Q 1019 -91 701 211 
Q 384 513 384 1019 
Q 384 1609 779 1909 
Q 1175 2209 1959 2209 
L 2766 2209 
L 2766 2266 
Q 2766 2663 2505 2880 
Q 2244 3097 1772 3097 
Q 1472 3097 1187 3025 
Q 903 2953 641 2809 
L 641 3341 
Q 956 3463 1253 3523 
Q 1550 3584 1831 3584 
Q 2591 3584 2966 3190 
Q 3341 2797 3341 1997 
z
" transform="scale(0.015625)"/>
       <path id="DejaVuSans-63" d="M 3122 3366 
L 3122 2828 
Q 2878 2963 2633 3030 
Q 2388 3097 2138 3097 
Q 1578 3097 1268 2742 
Q 959 2388 959 1747 
Q 959 1106 1268 751 
Q 1578 397 2138 397 
Q 2388 397 2633 464 
Q 2878 531 3122 666 
L 3122 134 
Q 2881 22 2623 -34 
Q 2366 -91 2075 -91 
Q 1284 -91 818 406 
Q 353 903 353 1747 
Q 353 2603 823 3093 
Q 1294 3584 2113 3584 
Q 2378 3584 2631 3529 
Q 2884 3475 3122 3366 
z
" transform="scale(0.015625)"/>
       <path id="DejaVuSans-68" d="M 3513 2113 
L 3513 0 
L 2938 0 
L 2938 2094 
Q 2938 2591 2744 2837 
Q 2550 3084 2163 3084 
Q 1697 3084 1428 2787 
Q 1159 2491 1159 1978 
L 1159 0 
L 581 0 
L 581 4863 
L 1159 4863 
L 1159 2956 
Q 1366 3272 1645 3428 
Q 1925 3584 2291 3584 
Q 2894 3584 3203 3211 
Q 3513 2838 3513 2113 
z
" transform="scale(0.015625)"/>
       <path id="DejaVuSans-69" d="M 603 3500 
L 1178 3500 
L 1178 0 
L 603 0 
L 603 3500 
z
M 603 4863 
L 1178 4863 
L 1178 4134 
L 603 4134 
L 603 4863 
z
" transform="scale(0.015625)"/>
       <path id="DejaVuSans-65" d="M 3597 1894 
L 3597 1613 
L 953 1613 
Q 991 1019 1311 708 
Q 1631 397 2203 397 
Q 2534 397 2845 478 
Q 3156 559 3463 722 
L 3463 178 
Q 3153 47 2828 -22 
Q 2503 -91 2169 -91 
Q 1331 -91 842 396 
Q 353 884 353 1716 
Q 353 2575 817 3079 
Q 1281 3584 2069 3584 
Q 2775 3584 3186 3129 
Q 3597 2675 3597 1894 
z
M 3022 2063 
Q 3016 2534 2758 2815 
Q 2500 3097 2075 3097 
Q 1594 3097 1305 2825 
Q 1016 2553 972 2059 
L 3022 2063 
z
" transform="scale(0.015625)"/>
       <path id="DejaVuSans-76" d="M 191 3500 
L 800 3500 
L 1894 563 
L 2988 3500 
L 3597 3500 
L 2284 0 
L 1503 0 
L 191 3500 
z
" transform="scale(0.015625)"/>
       <path id="DejaVuSans-64" d="M 2906 2969 
L 2906 4863 
L 3481 4863 
L 3481 0 
L 2906 0 
L 2906 525 
Q 2725 213 2448 61 
Q 2172 -91 1784 -91 
Q 1150 -91 751 415 
Q 353 922 353 1747 
Q 353 2572 751 3078 
Q 1150 3584 1784 3584 
Q 2172 3584 2448 3432 
Q 2725 3281 2906 2969 
z
M 947 1747 
Q 947 1113 1208 752 
Q 1469 391 1925 391 
Q 2381 391 2643 752 
Q 2906 1113 2906 1747 
Q 2906 2381 2643 2742 
Q 2381 3103 1925 3103 
Q 1469 3103 1208 2742 
Q 947 2381 947 1747 
z
" transform="scale(0.015625)"/>
       <path id="DejaVuSans-20" transform="scale(0.015625)"/>
       <path id="DejaVuSans-44" d="M 1259 4147 
L 1259 519 
L 2022 519 
Q 2988 519 3436 956 
Q 3884 1394 3884 2338 
Q 3884 3275 3436 3711 
Q 2988 4147 2022 4147 
L 1259 4147 
z
M 628 4666 
L 1925 4666 
Q 3281 4666 3915 4102 
Q 4550 3538 4550 2338 
Q 4550 1131 3912 565 
Q 3275 0 1925 0 
L 628 0 
L 628 4666 
z
" transform="scale(0.015625)"/>
       <path id="DejaVuSans-4d" d="M 628 4666 
L 1569 4666 
L 2759 1491 
L 3956 4666 
L 4897 4666 
L 4897 0 
L 4281 0 
L 4281 4097 
L 3078 897 
L 2444 897 
L 1241 4097 
L 1241 0 
L 628 0 
L 628 4666 
z
" transform="scale(0.015625)"/>
       <path id="DejaVuSans-50" d="M 1259 4147 
L 1259 2394 
L 2053 2394 
Q 2494 2394 2734 2622 
Q 2975 2850 2975 3272 
Q 2975 3691 2734 3919 
Q 2494 4147 2053 4147 
L 1259 4147 
z
M 628 4666 
L 2053 4666 
Q 2838 4666 3239 4311 
Q 3641 3956 3641 3272 
Q 3641 2581 3239 2228 
Q 2838 1875 2053 1875 
L 1259 1875 
L 1259 0 
L 628 0 
L 628 4666 
z
" transform="scale(0.015625)"/>
       <path id="DejaVuSans-46" d="M 628 4666 
L 3309 4666 
L 3309 4134 
L 1259 4134 
L 1259 2759 
L 3109 2759 
L 3109 2228 
L 1259 2228 
L 1259 0 
L 628 0 
L 628 4666 
z
" transform="scale(0.015625)"/>
       <path id="DejaVuSans-72" d="M 2631 2963 
Q 2534 3019 2420 3045 
Q 2306 3072 2169 3072 
Q 1681 3072 1420 2755 
Q 1159 2438 1159 1844 
L 1159 0 
L 581 0 
L 581 3500 
L 1159 3500 
L 1159 2956 
Q 1341 3275 1631 3429 
Q 1922 3584 2338 3584 
Q 2397 3584 2469 3576 
Q 2541 3569 2628 3553 
L 2631 2963 
z
" transform="scale(0.015625)"/>
       <path id="DejaVuSans-6f" d="M 1959 3097 
Q 1497 3097 1228 2736 
Q 959 2375 959 1747 
Q 959 1119 1226 758 
Q 1494 397 1959 397 
Q 2419 397 2687 759 
Q 2956 1122 2956 1747 
Q 2956 2369 2687 2733 
Q 2419 3097 1959 3097 
z
M 1959 3584 
Q 2709 3584 3137 3096 
Q 3566 2609 3566 1747 
Q 3566 888 3137 398 
Q 2709 -91 1959 -91 
Q 1206 -91 779 398 
Q 353 888 353 1747 
Q 353 2609 779 3096 
Q 1206 3584 1959 3584 
z
" transform="scale(0.015625)"/>
       <path id="DejaVuSans-7c" d="M 1344 4891 
L 1344 -1509 
L 813 -1509 
L 813 4891 
L 1344 4891 
z
" transform="scale(0.015625)"/>
       <path id="DejaVuSans-3c1" d="M 863 2875 
Q 1053 3194 1525 3475 
Q 1709 3584 2278 3584 
Q 2916 3584 3314 3078 
Q 3713 2572 3713 1747 
Q 3713 922 3314 415 
Q 2916 -91 2278 -91 
Q 1894 -91 1617 61 
Q 1341 213 1159 525 
L 1159 -1331 
L 581 -1331 
L 581 1716 
Q 581 2438 863 2875 
z
M 3116 1747 
Q 3116 2381 2855 2742 
Q 2594 3103 2138 3103 
Q 1681 3103 1420 2742 
Q 1159 2381 1159 1747 
Q 1159 1113 1420 752 
Q 1681 391 2138 391 
Q 2594 391 2855 752 
Q 3116 1113 3116 1747 
z
" transform="scale(0.015625)"/>
       <path id="DejaVuSans-5f" d="M 3263 -1063 
L 3263 -1509 
L -63 -1509 
L -63 -1063 
L 3263 -1063 
z
" transform="scale(0.015625)"/>
       <path id="DejaVuSans-66" d="M 2375 4863 
L 2375 4384 
L 1825 4384 
Q 1516 4384 1395 4259 
Q 1275 4134 1275 3809 
L 1275 3500 
L 2222 3500 
L 2222 3053 
L 1275 3053 
L 1275 0 
L 697 0 
L 697 3053 
L 147 3053 
L 147 3500 
L 697 3500 
L 697 3744 
Q 697 4328 969 4595 
Q 1241 4863 1831 4863 
L 2375 4863 
z
" transform="scale(0.015625)"/>
       <path id="DejaVuSans-3bc" d="M 544 -1331 
L 544 3500 
L 1119 3500 
L 1119 1325 
Q 1119 872 1334 640 
Q 1550 409 1972 409 
Q 2434 409 2667 671 
Q 2900 934 2900 1459 
L 2900 3500 
L 3475 3500 
L 3475 806 
Q 3475 619 3529 530 
Q 3584 441 3700 441 
Q 3728 441 3778 458 
Q 3828 475 3916 513 
L 3916 50 
Q 3788 -22 3673 -56 
Q 3559 -91 3450 -91 
Q 3234 -91 3106 31 
Q 2978 153 2931 403 
Q 2775 156 2548 32 
Q 2322 -91 2016 -91 
Q 1697 -91 1473 31 
Q 1250 153 1119 397 
L 1119 -1331 
L 544 -1331 
z
" transform="scale(0.015625)"/>
       <path id="DejaVuSans-b2" d="M 838 2444 
L 2163 2444 
L 2163 2088 
L 294 2088 
L 294 2431 
Q 400 2528 597 2703 
Q 1672 3656 1672 3950 
Q 1672 4156 1509 4282 
Q 1347 4409 1081 4409 
Q 919 4409 728 4354 
Q 538 4300 313 4191 
L 313 4575 
Q 553 4663 761 4706 
Q 969 4750 1147 4750 
Q 1600 4750 1872 4544 
Q 2144 4338 2144 4000 
Q 2144 3566 1109 2678 
Q 934 2528 838 2444 
z
" transform="scale(0.015625)"/>
      </defs>
      <use xlink:href="#DejaVuSans-61"/>
      <use xlink:href="#DejaVuSans-63" transform="translate(61.279297 0)"/>
      <use xlink:href="#DejaVuSans-68" transform="translate(116.259766 0)"/>
      <use xlink:href="#DejaVuSans-69" transform="translate(179.638672 0)"/>
      <use xlink:href="#DejaVuSans-65" transform="translate(207.421875 0)"/>
      <use xlink:href="#DejaVuSans-76" transform="translate(268.945312 0)"/>
      <use xlink:href="#DejaVuSans-65" transform="translate(328.125 0)"/>
      <use xlink:href="#DejaVuSans-64" transform="translate(389.648438 0)"/>
      <use xlink:href="#DejaVuSans-20" transform="translate(453.125 0)"/>
      <use xlink:href="#DejaVuSans-44" transform="translate(484.912109 0)"/>
      <use xlink:href="#DejaVuSans-4d" transform="translate(561.914062 0)"/>
      <use xlink:href="#DejaVuSans-50" transform="translate(648.193359 0)"/>
      <use xlink:href="#DejaVuSans-46" transform="translate(708.496094 0)"/>
      <use xlink:href="#DejaVuSans-20" transform="translate(766.015625 0)"/>
      <use xlink:href="#DejaVuSans-65" transform="translate(797.802734 0)"/>
      <use xlink:href="#DejaVuSans-72" transform="translate(859.326172 0)"/>
      <use xlink:href="#DejaVuSans-72" transform="translate(898.689453 0)"/>
      <use xlink:href="#DejaVuSans-6f" transform="translate(937.552734 0)"/>
      <use xlink:href="#DejaVuSans-72" transform="translate(998.734375 0)"/>
      <use xlink:href="#DejaVuSans-20" transform="translate(1039.847656 0)"/>
      <use xlink:href="#DejaVuSans-20" transform="translate(1071.634766 0)"/>
      <use xlink:href="#DejaVuSans-7c" transform="translate(1103.421875 0)"/>
      <use xlink:href="#DejaVuSans-7c" transform="translate(1137.113281 0)"/>
      <use xlink:href="#DejaVuSans-3c1" transform="translate(1170.804688 0)"/>
      <use xlink:href="#DejaVuSans-5f" transform="translate(1234.28125 0)"/>
      <use xlink:href="#DejaVuSans-72" transform="translate(1284.28125 0)"/>
      <use xlink:href="#DejaVuSans-65" transform="translate(1323.144531 0)"/>
      <use xlink:href="#DejaVuSans-66" transform="translate(1384.667969 0)"/>
      <use xlink:href="#DejaVuSans-20" transform="translate(1419.873047 0)"/>
      <use xlink:href="#DejaVuSans-2212" transform="translate(1451.660156 0)"/>
      <use xlink:href="#DejaVuSans-20" transform="translate(1535.449219 0)"/>
      <use xlink:href="#DejaVuSans-3bc" transform="translate(1567.236328 0)"/>
      <use xlink:href="#DejaVuSans-7c" transform="translate(1630.859375 0)"/>
      <use xlink:href="#DejaVuSans-7c" transform="translate(1664.550781 0)"/>
      <use xlink:href="#DejaVuSans-b2" transform="translate(1698.242188 0)"/>
     </g>
    </g>
   </g>
   <g id="patch_11">
    <path d="M 56.357054 260.44 
L 56.357054 65.616 
" style="fill: none; stroke: #000000; stroke-width: 0.8; stroke-linejoin: miter; stroke-linecap: square"/>
   </g>
   <g id="patch_12">
    <path d="M 391.588527 260.44 
L 391.588527 65.616 
" style="fill: none; stroke: #000000; stroke-width: 0.8; stroke-linejoin: miter; stroke-linecap: square"/>
   </g>
   <g id="patch_13">
    <path d="M 56.357054 260.44 
L 391.588527 260.44 
" style="fill: none; stroke: #000000; stroke-width: 0.8; stroke-linejoin: miter; stroke-linecap: square"/>
   </g>
   <g id="patch_14">
    <path d="M 56.357054 65.616 
L 391.588527 65.616 
" style="fill: none; stroke: #000000; stroke-width: 0.8; stroke-linejoin: miter; stroke-linecap: square"/>
   </g>
   <g id="text_9">
    <!-- Direct coefficients win at every γ -->
    <g transform="translate(125.075915 46.178625) scale(0.12 -0.12)">
     <defs>
      <path id="DejaVuSans-74" d="M 1172 4494 
L 1172 3500 
L 2356 3500 
L 2356 3053 
L 1172 3053 
L 1172 1153 
Q 1172 725 1289 603 
Q 1406 481 1766 481 
L 2356 481 
L 2356 0 
L 1766 0 
Q 1100 0 847 248 
Q 594 497 594 1153 
L 594 3053 
L 172 3053 
L 172 3500 
L 594 3500 
L 594 4494 
L 1172 4494 
z
" transform="scale(0.015625)"/>
      <path id="DejaVuSans-6e" d="M 3513 2113 
L 3513 0 
L 2938 0 
L 2938 2094 
Q 2938 2591 2744 2837 
Q 2550 3084 2163 3084 
Q 1697 3084 1428 2787 
Q 1159 2491 1159 1978 
L 1159 0 
L 581 0 
L 581 3500 
L 1159 3500 
L 1159 2956 
Q 1366 3272 1645 3428 
Q 1925 3584 2291 3584 
Q 2894 3584 3203 3211 
Q 3513 2838 3513 2113 
z
" transform="scale(0.015625)"/>
      <path id="DejaVuSans-73" d="M 2834 3397 
L 2834 2853 
Q 2591 2978 2328 3040 
Q 2066 3103 1784 3103 
Q 1356 3103 1142 2972 
Q 928 2841 928 2578 
Q 928 2378 1081 2264 
Q 1234 2150 1697 2047 
L 1894 2003 
Q 2506 1872 2764 1633 
Q 3022 1394 3022 966 
Q 3022 478 2636 193 
Q 2250 -91 1575 -91 
Q 1294 -91 989 -36 
Q 684 19 347 128 
L 347 722 
Q 666 556 975 473 
Q 1284 391 1588 391 
Q 1994 391 2212 530 
Q 2431 669 2431 922 
Q 2431 1156 2273 1281 
Q 2116 1406 1581 1522 
L 1381 1569 
Q 847 1681 609 1914 
Q 372 2147 372 2553 
Q 372 3047 722 3315 
Q 1072 3584 1716 3584 
Q 2034 3584 2315 3537 
Q 2597 3491 2834 3397 
z
" transform="scale(0.015625)"/>
      <path id="DejaVuSans-77" d="M 269 3500 
L 844 3500 
L 1563 769 
L 2278 3500 
L 2956 3500 
L 3675 769 
L 4391 3500 
L 4966 3500 
L 4050 0 
L 3372 0 
L 2619 2869 
L 1863 0 
L 1184 0 
L 269 3500 
z
" transform="scale(0.015625)"/>
      <path id="DejaVuSans-79" d="M 2059 -325 
Q 1816 -950 1584 -1140 
Q 1353 -1331 966 -1331 
L 506 -1331 
L 506 -850 
L 844 -850 
Q 1081 -850 1212 -737 
Q 1344 -625 1503 -206 
L 1606 56 
L 191 3500 
L 800 3500 
L 1894 763 
L 2988 3500 
L 3597 3500 
L 2059 -325 
z
" transform="scale(0.015625)"/>
     </defs>
     <use xlink:href="#DejaVuSans-44"/>
     <use xlink:href="#DejaVuSans-69" transform="translate(77.001953 0)"/>
     <use xlink:href="#DejaVuSans-72" transform="translate(104.785156 0)"/>
     <use xlink:href="#DejaVuSans-65" transform="translate(143.648438 0)"/>
     <use xlink:href="#DejaVuSans-63" transform="translate(205.171875 0)"/>
     <use xlink:href="#DejaVuSans-74" transform="translate(260.152344 0)"/>
     <use xlink:href="#DejaVuSans-20" transform="translate(299.361328 0)"/>
     <use xlink:href="#DejaVuSans-63" transform="translate(331.148438 0)"/>
     <use xlink:href="#DejaVuSans-6f" transform="translate(386.128906 0)"/>
     <use xlink:href="#DejaVuSans-65" transform="translate(447.310547 0)"/>
     <use xlink:href="#DejaVuSans-66" transform="translate(508.833984 0)"/>
     <use xlink:href="#DejaVuSans-66" transform="translate(544.039062 0)"/>
     <use xlink:href="#DejaVuSans-69" transform="translate(579.244141 0)"/>
     <use xlink:href="#DejaVuSans-63" transform="translate(607.027344 0)"/>
     <use xlink:href="#DejaVuSans-69" transform="translate(662.007812 0)"/>
     <use xlink:href="#DejaVuSans-65" transform="translate(689.791016 0)"/>
     <use xlink:href="#DejaVuSans-6e" transform="translate(751.314453 0)"/>
     <use xlink:href="#DejaVuSans-74" transform="translate(814.693359 0)"/>
     <use xlink:href="#DejaVuSans-73" transform="translate(853.902344 0)"/>
     <use xlink:href="#DejaVuSans-20" transform="translate(906.001953 0)"/>
     <use xlink:href="#DejaVuSans-77" transform="translate(937.789062 0)"/>
     <use xlink:href="#DejaVuSans-69" transform="translate(1019.576172 0)"/>
     <use xlink:href="#DejaVuSans-6e" transform="translate(1047.359375 0)"/>
     <use xlink:href="#DejaVuSans-20" transform="translate(1110.738281 0)"/>
     <use xlink:href="#DejaVuSans-61" transform="translate(1142.525391 0)"/>
     <use xlink:href="#DejaVuSans-74" transform="translate(1203.804688 0)"/>
     <use xlink:href="#DejaVuSans-20" transform="translate(1243.013672 0)"/>
     <use xlink:href="#DejaVuSans-65" transform="translate(1274.800781 0)"/>
     <use xlink:href="#DejaVuSans-76" transform="translate(1336.324219 0)"/>
     <use xlink:href="#DejaVuSans-65" transform="translate(1395.503906 0)"/>
     <use xlink:href="#DejaVuSans-72" transform="translate(1457.027344 0)"/>
     <use xlink:href="#DejaVuSans-79" transform="translate(1498.140625 0)"/>
     <use xlink:href="#DejaVuSans-20" transform="translate(1557.320312 0)"/>
     <use xlink:href="#DejaVuSans-3b3" transform="translate(1589.107422 0)"/>
    </g>
    <!-- (26× better at γ=0.01) -->
    <g transform="translate(154.576228 59.616) scale(0.12 -0.12)">
     <defs>
      <path id="DejaVuSans-28" d="M 1984 4856 
Q 1566 4138 1362 3434 
Q 1159 2731 1159 2009 
Q 1159 1288 1364 580 
Q 1569 -128 1984 -844 
L 1484 -844 
Q 1016 -109 783 600 
Q 550 1309 550 2009 
Q 550 2706 781 3412 
Q 1013 4119 1484 4856 
L 1984 4856 
z
" transform="scale(0.015625)"/>
      <path id="DejaVuSans-36" d="M 2113 2584 
Q 1688 2584 1439 2293 
Q 1191 2003 1191 1497 
Q 1191 994 1439 701 
Q 1688 409 2113 409 
Q 2538 409 2786 701 
Q 3034 994 3034 1497 
Q 3034 2003 2786 2293 
Q 2538 2584 2113 2584 
z
M 3366 4563 
L 3366 3988 
Q 3128 4100 2886 4159 
Q 2644 4219 2406 4219 
Q 1781 4219 1451 3797 
Q 1122 3375 1075 2522 
Q 1259 2794 1537 2939 
Q 1816 3084 2150 3084 
Q 2853 3084 3261 2657 
Q 3669 2231 3669 1497 
Q 3669 778 3244 343 
Q 2819 -91 2113 -91 
Q 1303 -91 875 529 
Q 447 1150 447 2328 
Q 447 3434 972 4092 
Q 1497 4750 2381 4750 
Q 2619 4750 2861 4703 
Q 3103 4656 3366 4563 
z
" transform="scale(0.015625)"/>
      <path id="DejaVuSans-d7" d="M 4488 3438 
L 3059 2003 
L 4488 575 
L 4116 197 
L 2681 1631 
L 1247 197 
L 878 575 
L 2303 2003 
L 878 3438 
L 1247 3816 
L 2681 2381 
L 4116 3816 
L 4488 3438 
z
" transform="scale(0.015625)"/>
      <path id="DejaVuSans-62" d="M 3116 1747 
Q 3116 2381 2855 2742 
Q 2594 3103 2138 3103 
Q 1681 3103 1420 2742 
Q 1159 2381 1159 1747 
Q 1159 1113 1420 752 
Q 1681 391 2138 391 
Q 2594 391 2855 752 
Q 3116 1113 3116 1747 
z
M 1159 2969 
Q 1341 3281 1617 3432 
Q 1894 3584 2278 3584 
Q 2916 3584 3314 3078 
Q 3713 2572 3713 1747 
Q 3713 922 3314 415 
Q 2916 -91 2278 -91 
Q 1894 -91 1617 61 
Q 1341 213 1159 525 
L 1159 0 
L 581 0 
L 581 4863 
L 1159 4863 
L 1159 2969 
z
" transform="scale(0.015625)"/>
      <path id="DejaVuSans-3d" d="M 678 2906 
L 4684 2906 
L 4684 2381 
L 678 2381 
L 678 2906 
z
M 678 1631 
L 4684 1631 
L 4684 1100 
L 678 1100 
L 678 1631 
z
" transform="scale(0.015625)"/>
      <path id="DejaVuSans-29" d="M 513 4856 
L 1013 4856 
Q 1481 4119 1714 3412 
Q 1947 2706 1947 2009 
Q 1947 1309 1714 600 
Q 1481 -109 1013 -844 
L 513 -844 
Q 928 -128 1133 580 
Q 1338 1288 1338 2009 
Q 1338 2731 1133 3434 
Q 928 4138 513 4856 
z
" transform="scale(0.015625)"/>
     </defs>
     <use xlink:href="#DejaVuSans-28"/>
     <use xlink:href="#DejaVuSans-32" transform="translate(39.013672 0)"/>
     <use xlink:href="#DejaVuSans-36" transform="translate(102.636719 0)"/>
     <use xlink:href="#DejaVuSans-d7" transform="translate(166.259766 0)"/>
     <use xlink:href="#DejaVuSans-20" transform="translate(250.048828 0)"/>
     <use xlink:href="#DejaVuSans-62" transform="translate(281.835938 0)"/>
     <use xlink:href="#DejaVuSans-65" transform="translate(345.3125 0)"/>
     <use xlink:href="#DejaVuSans-74" transform="translate(406.835938 0)"/>
     <use xlink:href="#DejaVuSans-74" transform="translate(446.044922 0)"/>
     <use xlink:href="#DejaVuSans-65" transform="translate(485.253906 0)"/>
     <use xlink:href="#DejaVuSans-72" transform="translate(546.777344 0)"/>
     <use xlink:href="#DejaVuSans-20" transform="translate(587.890625 0)"/>
     <use xlink:href="#DejaVuSans-61" transform="translate(619.677734 0)"/>
     <use xlink:href="#DejaVuSans-74" transform="translate(680.957031 0)"/>
     <use xlink:href="#DejaVuSans-20" transform="translate(720.166016 0)"/>
     <use xlink:href="#DejaVuSans-3b3" transform="translate(751.953125 0)"/>
     <use xlink:href="#DejaVuSans-3d" transform="translate(811.132812 0)"/>
     <use xlink:href="#DejaVuSans-30" transform="translate(894.921875 0)"/>
     <use xlink:href="#DejaVuSans-2e" transform="translate(958.544922 0)"/>
     <use xlink:href="#DejaVuSans-30" transform="translate(990.332031 0)"/>
     <use xlink:href="#DejaVuSans-31" transform="translate(1053.955078 0)"/>
     <use xlink:href="#DejaVuSans-29" transform="translate(1117.578125 0)"/>
    </g>
   </g>
   <g id="legend_1">
    <g id="patch_15">
     <path d="M 255.574777 95.501 
L 385.988527 95.501 
Q 387.588527 95.501 387.588527 93.901 
L 387.588527 71.216 
Q 387.588527 69.616 385.988527 69.616 
L 255.574777 69.616 
Q 253.974777 69.616 253.974777 71.216 
L 253.974777 93.901 
Q 253.974777 95.501 255.574777 95.501 
z
" style="fill: #ffffff; opacity: 0.8; stroke: #cccccc; stroke-linejoin: miter"/>
    </g>
    <g id="patch_16">
     <path d="M 257.174777 78.89475 
L 273.174777 78.89475 
L 273.174777 73.29475 
L 257.174777 73.29475 
z
" style="fill: #c0392b"/>
    </g>
    <g id="text_10">
     <!-- sandwich coefficients -->
     <g transform="translate(279.574777 78.89475) scale(0.08 -0.08)">
      <use xlink:href="#DejaVuSans-73"/>
      <use xlink:href="#DejaVuSans-61" transform="translate(52.099609 0)"/>
      <use xlink:href="#DejaVuSans-6e" transform="translate(113.378906 0)"/>
      <use xlink:href="#DejaVuSans-64" transform="translate(176.757812 0)"/>
      <use xlink:href="#DejaVuSans-77" transform="translate(240.234375 0)"/>
      <use xlink:href="#DejaVuSans-69" transform="translate(322.021484 0)"/>
      <use xlink:href="#DejaVuSans-63" transform="translate(349.804688 0)"/>
      <use xlink:href="#DejaVuSans-68" transform="translate(404.785156 0)"/>
      <use xlink:href="#DejaVuSans-20" transform="translate(468.164062 0)"/>
      <use xlink:href="#DejaVuSans-63" transform="translate(499.951172 0)"/>
      <use xlink:href="#DejaVuSans-6f" transform="translate(554.931641 0)"/>
      <use xlink:href="#DejaVuSans-65" transform="translate(616.113281 0)"/>
      <use xlink:href="#DejaVuSans-66" transform="translate(677.636719 0)"/>
      <use xlink:href="#DejaVuSans-66" transform="translate(712.841797 0)"/>
      <use xlink:href="#DejaVuSans-69" transform="translate(748.046875 0)"/>
      <use xlink:href="#DejaVuSans-63" transform="translate(775.830078 0)"/>
      <use xlink:href="#DejaVuSans-69" transform="translate(830.810547 0)"/>
      <use xlink:href="#DejaVuSans-65" transform="translate(858.59375 0)"/>
      <use xlink:href="#DejaVuSans-6e" transform="translate(920.117188 0)"/>
      <use xlink:href="#DejaVuSans-74" transform="translate(983.496094 0)"/>
      <use xlink:href="#DejaVuSans-73" transform="translate(1022.705078 0)"/>
     </g>
    </g>
    <g id="patch_17">
     <path d="M 257.174777 90.63725 
L 273.174777 90.63725 
L 273.174777 85.03725 
L 257.174777 85.03725 
z
" style="fill: #16a085"/>
    </g>
    <g id="text_11">
     <!-- direct coefficients (oracle) -->
     <g transform="translate(279.574777 90.63725) scale(0.08 -0.08)">
      <defs>
       <path id="DejaVuSans-6c" d="M 603 4863 
L 1178 4863 
L 1178 0 
L 603 0 
L 603 4863 
z
" transform="scale(0.015625)"/>
      </defs>
      <use xlink:href="#DejaVuSans-64"/>
      <use xlink:href="#DejaVuSans-69" transform="translate(63.476562 0)"/>
      <use xlink:href="#DejaVuSans-72" transform="translate(91.259766 0)"/>
      <use xlink:href="#DejaVuSans-65" transform="translate(130.123047 0)"/>
      <use xlink:href="#DejaVuSans-63" transform="translate(191.646484 0)"/>
      <use xlink:href="#DejaVuSans-74" transform="translate(246.626953 0)"/>
      <use xlink:href="#DejaVuSans-20" transform="translate(285.835938 0)"/>
      <use xlink:href="#DejaVuSans-63" transform="translate(317.623047 0)"/>
      <use xlink:href="#DejaVuSans-6f" transform="translate(372.603516 0)"/>
      <use xlink:href="#DejaVuSans-65" transform="translate(433.785156 0)"/>
      <use xlink:href="#DejaVuSans-66" transform="translate(495.308594 0)"/>
      <use xlink:href="#DejaVuSans-66" transform="translate(530.513672 0)"/>
      <use xlink:href="#DejaVuSans-69" transform="translate(565.71875 0)"/>
      <use xlink:href="#DejaVuSans-63" transform="translate(593.501953 0)"/>
      <use xlink:href="#DejaVuSans-69" transform="translate(648.482422 0)"/>
      <use xlink:href="#DejaVuSans-65" transform="translate(676.265625 0)"/>
      <use xlink:href="#DejaVuSans-6e" transform="translate(737.789062 0)"/>
      <use xlink:href="#DejaVuSans-74" transform="translate(801.167969 0)"/>
      <use xlink:href="#DejaVuSans-73" transform="translate(840.376953 0)"/>
      <use xlink:href="#DejaVuSans-20" transform="translate(892.476562 0)"/>
      <use xlink:href="#DejaVuSans-28" transform="translate(924.263672 0)"/>
      <use xlink:href="#DejaVuSans-6f" transform="translate(963.277344 0)"/>
      <use xlink:href="#DejaVuSans-72" transform="translate(1024.458984 0)"/>
      <use xlink:href="#DejaVuSans-61" transform="translate(1065.572266 0)"/>
      <use xlink:href="#DejaVuSans-63" transform="translate(1126.851562 0)"/>
      <use xlink:href="#DejaVuSans-6c" transform="translate(1181.832031 0)"/>
      <use xlink:href="#DejaVuSans-65" transform="translate(1209.615234 0)"/>
      <use xlink:href="#DejaVuSans-29" transform="translate(1271.138672 0)"/>
     </g>
    </g>
   </g>
  </g>
  <g id="axes_2">
   <g id="patch_18">
    <path d="M 445.968527 260.44 
L 781.2 260.44 
L 781.2 65.616 
L 445.968527 65.616 
z
" style="fill: #ffffff"/>
   </g>
   <g id="matplotlib.axis_3">
    <g id="xtick_5">
     <g id="line2d_21">
      <path d="M 495.068086 260.44 
L 495.068086 65.616 
" clip-path="url(#pd8381714cf)" style="fill: none; stroke: #b0b0b0; stroke-opacity: 0.3; stroke-width: 0.8; stroke-linecap: square"/>
     </g>
     <g id="line2d_22">
      <g>
       <use xlink:href="#m151007239d" x="495.068086" y="260.44" style="stroke: #000000; stroke-width: 0.8"/>
      </g>
     </g>
     <g id="text_12">
      <!-- 0.02 -->
      <g transform="translate(483.935274 275.038438) scale(0.1 -0.1)">
       <use xlink:href="#DejaVuSans-30"/>
       <use xlink:href="#DejaVuSans-2e" transform="translate(63.623047 0)"/>
       <use xlink:href="#DejaVuSans-30" transform="translate(95.410156 0)"/>
       <use xlink:href="#DejaVuSans-32" transform="translate(159.033203 0)"/>
      </g>
     </g>
    </g>
    <g id="xtick_6">
     <g id="line2d_23">
      <path d="M 562.791616 260.44 
L 562.791616 65.616 
" clip-path="url(#pd8381714cf)" style="fill: none; stroke: #b0b0b0; stroke-opacity: 0.3; stroke-width: 0.8; stroke-linecap: square"/>
     </g>
     <g id="line2d_24">
      <g>
       <use xlink:href="#m151007239d" x="562.791616" y="260.44" style="stroke: #000000; stroke-width: 0.8"/>
      </g>
     </g>
     <g id="text_13">
      <!-- 0.04 -->
      <g transform="translate(551.658804 275.038438) scale(0.1 -0.1)">
       <use xlink:href="#DejaVuSans-30"/>
       <use xlink:href="#DejaVuSans-2e" transform="translate(63.623047 0)"/>
       <use xlink:href="#DejaVuSans-30" transform="translate(95.410156 0)"/>
       <use xlink:href="#DejaVuSans-34" transform="translate(159.033203 0)"/>
      </g>
     </g>
    </g>
    <g id="xtick_7">
     <g id="line2d_25">
      <path d="M 630.515146 260.44 
L 630.515146 65.616 
" clip-path="url(#pd8381714cf)" style="fill: none; stroke: #b0b0b0; stroke-opacity: 0.3; stroke-width: 0.8; stroke-linecap: square"/>
     </g>
     <g id="line2d_26">
      <g>
       <use xlink:href="#m151007239d" x="630.515146" y="260.44" style="stroke: #000000; stroke-width: 0.8"/>
      </g>
     </g>
     <g id="text_14">
      <!-- 0.06 -->
      <g transform="translate(619.382333 275.038438) scale(0.1 -0.1)">
       <use xlink:href="#DejaVuSans-30"/>
       <use xlink:href="#DejaVuSans-2e" transform="translate(63.623047 0)"/>
       <use xlink:href="#DejaVuSans-30" transform="translate(95.410156 0)"/>
       <use xlink:href="#DejaVuSans-36" transform="translate(159.033203 0)"/>
      </g>
     </g>
    </g>
    <g id="xtick_8">
     <g id="line2d_27">
      <path d="M 698.238676 260.44 
L 698.238676 65.616 
" clip-path="url(#pd8381714cf)" style="fill: none; stroke: #b0b0b0; stroke-opacity: 0.3; stroke-width: 0.8; stroke-linecap: square"/>
     </g>
     <g id="line2d_28">
      <g>
       <use xlink:href="#m151007239d" x="698.238676" y="260.44" style="stroke: #000000; stroke-width: 0.8"/>
      </g>
     </g>
     <g id="text_15">
      <!-- 0.08 -->
      <g transform="translate(687.105863 275.038438) scale(0.1 -0.1)">
       <defs>
        <path id="DejaVuSans-38" d="M 2034 2216 
Q 1584 2216 1326 1975 
Q 1069 1734 1069 1313 
Q 1069 891 1326 650 
Q 1584 409 2034 409 
Q 2484 409 2743 651 
Q 3003 894 3003 1313 
Q 3003 1734 2745 1975 
Q 2488 2216 2034 2216 
z
M 1403 2484 
Q 997 2584 770 2862 
Q 544 3141 544 3541 
Q 544 4100 942 4425 
Q 1341 4750 2034 4750 
Q 2731 4750 3128 4425 
Q 3525 4100 3525 3541 
Q 3525 3141 3298 2862 
Q 3072 2584 2669 2484 
Q 3125 2378 3379 2068 
Q 3634 1759 3634 1313 
Q 3634 634 3220 271 
Q 2806 -91 2034 -91 
Q 1263 -91 848 271 
Q 434 634 434 1313 
Q 434 1759 690 2068 
Q 947 2378 1403 2484 
z
M 1172 3481 
Q 1172 3119 1398 2916 
Q 1625 2713 2034 2713 
Q 2441 2713 2670 2916 
Q 2900 3119 2900 3481 
Q 2900 3844 2670 4047 
Q 2441 4250 2034 4250 
Q 1625 4250 1398 4047 
Q 1172 3844 1172 3481 
z
" transform="scale(0.015625)"/>
       </defs>
       <use xlink:href="#DejaVuSans-30"/>
       <use xlink:href="#DejaVuSans-2e" transform="translate(63.623047 0)"/>
       <use xlink:href="#DejaVuSans-30" transform="translate(95.410156 0)"/>
       <use xlink:href="#DejaVuSans-38" transform="translate(159.033203 0)"/>
      </g>
     </g>
    </g>
    <g id="xtick_9">
     <g id="line2d_29">
      <path d="M 765.962206 260.44 
L 765.962206 65.616 
" clip-path="url(#pd8381714cf)" style="fill: none; stroke: #b0b0b0; stroke-opacity: 0.3; stroke-width: 0.8; stroke-linecap: square"/>
     </g>
     <g id="line2d_30">
      <g>
       <use xlink:href="#m151007239d" x="765.962206" y="260.44" style="stroke: #000000; stroke-width: 0.8"/>
      </g>
     </g>
     <g id="text_16">
      <!-- 0.10 -->
      <g transform="translate(754.829393 275.038438) scale(0.1 -0.1)">
       <use xlink:href="#DejaVuSans-30"/>
       <use xlink:href="#DejaVuSans-2e" transform="translate(63.623047 0)"/>
       <use xlink:href="#DejaVuSans-31" transform="translate(95.410156 0)"/>
       <use xlink:href="#DejaVuSans-30" transform="translate(159.033203 0)"/>
      </g>
     </g>
    </g>
    <g id="text_17">
     <!-- γ -->
     <g transform="translate(610.624888 288.716563) scale(0.1 -0.1)">
      <use xlink:href="#DejaVuSans-3b3"/>
     </g>
    </g>
   </g>
   <g id="matplotlib.axis_4">
    <g id="ytick_15">
     <g id="line2d_31">
      <path d="M 445.968527 256.414711 
L 781.2 256.414711 
" clip-path="url(#pd8381714cf)" style="fill: none; stroke: #b0b0b0; stroke-opacity: 0.3; stroke-width: 0.8; stroke-linecap: square"/>
     </g>
     <g id="line2d_32">
      <g>
       <use xlink:href="#mfba9701dd3" x="445.968527" y="256.414711" style="stroke: #000000; stroke-width: 0.8"/>
      </g>
     </g>
     <g id="text_18">
      <!-- 0.00 -->
      <g transform="translate(416.702902 260.213929) scale(0.1 -0.1)">
       <use xlink:href="#DejaVuSans-30"/>
       <use xlink:href="#DejaVuSans-2e" transform="translate(63.623047 0)"/>
       <use xlink:href="#DejaVuSans-30" transform="translate(95.410156 0)"/>
       <use xlink:href="#DejaVuSans-30" transform="translate(159.033203 0)"/>
      </g>
     </g>
    </g>
    <g id="ytick_16">
     <g id="line2d_33">
      <path d="M 445.968527 224.212397 
L 781.2 224.212397 
" clip-path="url(#pd8381714cf)" style="fill: none; stroke: #b0b0b0; stroke-opacity: 0.3; stroke-width: 0.8; stroke-linecap: square"/>
     </g>
     <g id="line2d_34">
      <g>
       <use xlink:href="#mfba9701dd3" x="445.968527" y="224.212397" style="stroke: #000000; stroke-width: 0.8"/>
      </g>
     </g>
     <g id="text_19">
      <!-- 0.02 -->
      <g transform="translate(416.702902 228.011615) scale(0.1 -0.1)">
       <use xlink:href="#DejaVuSans-30"/>
       <use xlink:href="#DejaVuSans-2e" transform="translate(63.623047 0)"/>
       <use xlink:href="#DejaVuSans-30" transform="translate(95.410156 0)"/>
       <use xlink:href="#DejaVuSans-32" transform="translate(159.033203 0)"/>
      </g>
     </g>
    </g>
    <g id="ytick_17">
     <g id="line2d_35">
      <path d="M 445.968527 192.010083 
L 781.2 192.010083 
" clip-path="url(#pd8381714cf)" style="fill: none; stroke: #b0b0b0; stroke-opacity: 0.3; stroke-width: 0.8; stroke-linecap: square"/>
     </g>
     <g id="line2d_36">
      <g>
       <use xlink:href="#mfba9701dd3" x="445.968527" y="192.010083" style="stroke: #000000; stroke-width: 0.8"/>
      </g>
     </g>
     <g id="text_20">
      <!-- 0.04 -->
      <g transform="translate(416.702902 195.809301) scale(0.1 -0.1)">
       <use xlink:href="#DejaVuSans-30"/>
       <use xlink:href="#DejaVuSans-2e" transform="translate(63.623047 0)"/>
       <use xlink:href="#DejaVuSans-30" transform="translate(95.410156 0)"/>
       <use xlink:href="#DejaVuSans-34" transform="translate(159.033203 0)"/>
      </g>
     </g>
    </g>
    <g id="ytick_18">
     <g id="line2d_37">
      <path d="M 445.968527 159.807769 
L 781.2 159.807769 
" clip-path="url(#pd8381714cf)" style="fill: none; stroke: #b0b0b0; stroke-opacity: 0.3; stroke-width: 0.8; stroke-linecap: square"/>
     </g>
     <g id="line2d_38">
      <g>
       <use xlink:href="#mfba9701dd3" x="445.968527" y="159.807769" style="stroke: #000000; stroke-width: 0.8"/>
      </g>
     </g>
     <g id="text_21">
      <!-- 0.06 -->
      <g transform="translate(416.702902 163.606987) scale(0.1 -0.1)">
       <use xlink:href="#DejaVuSans-30"/>
       <use xlink:href="#DejaVuSans-2e" transform="translate(63.623047 0)"/>
       <use xlink:href="#DejaVuSans-30" transform="translate(95.410156 0)"/>
       <use xlink:href="#DejaVuSans-36" transform="translate(159.033203 0)"/>
      </g>
     </g>
    </g>
    <g id="ytick_19">
     <g id="line2d_39">
      <path d="M 445.968527 127.605455 
L 781.2 127.605455 
" clip-path="url(#pd8381714cf)" style="fill: none; stroke: #b0b0b0; stroke-opacity: 0.3; stroke-width: 0.8; stroke-linecap: square"/>
     </g>
     <g id="line2d_40">
      <g>
       <use xlink:href="#mfba9701dd3" x="445.968527" y="127.605455" style="stroke: #000000; stroke-width: 0.8"/>
      </g>
     </g>
     <g id="text_22">
      <!-- 0.08 -->
      <g transform="translate(416.702902 131.404673) scale(0.1 -0.1)">
       <use xlink:href="#DejaVuSans-30"/>
       <use xlink:href="#DejaVuSans-2e" transform="translate(63.623047 0)"/>
       <use xlink:href="#DejaVuSans-30" transform="translate(95.410156 0)"/>
       <use xlink:href="#DejaVuSans-38" transform="translate(159.033203 0)"/>
      </g>
     </g>
    </g>
    <g id="ytick_20">
     <g id="line2d_41">
      <path d="M 445.968527 95.40314 
L 781.2 95.40314 
" clip-path="url(#pd8381714cf)" style="fill: none; stroke: #b0b0b0; stroke-opacity: 0.3; stroke-width: 0.8; stroke-linecap: square"/>
     </g>
     <g id="line2d_42">
      <g>
       <use xlink:href="#mfba9701dd3" x="445.968527" y="95.40314" style="stroke: #000000; stroke-width: 0.8"/>
      </g>
     </g>
     <g id="text_23">
      <!-- 0.10 -->
      <g transform="translate(416.702902 99.202359) scale(0.1 -0.1)">
       <use xlink:href="#DejaVuSans-30"/>
       <use xlink:href="#DejaVuSans-2e" transform="translate(63.623047 0)"/>
       <use xlink:href="#DejaVuSans-31" transform="translate(95.410156 0)"/>
       <use xlink:href="#DejaVuSans-30" transform="translate(159.033203 0)"/>
      </g>
     </g>
    </g>
    <g id="text_24">
     <!-- max|c_sandwich − c_direct| -->
     <g transform="translate(410.345089 232.856906) rotate(-90) scale(0.1 -0.1)">
      <defs>
       <path id="DejaVuSans-6d" d="M 3328 2828 
Q 3544 3216 3844 3400 
Q 4144 3584 4550 3584 
Q 5097 3584 5394 3201 
Q 5691 2819 5691 2113 
L 5691 0 
L 5113 0 
L 5113 2094 
Q 5113 2597 4934 2840 
Q 4756 3084 4391 3084 
Q 3944 3084 3684 2787 
Q 3425 2491 3425 1978 
L 3425 0 
L 2847 0 
L 2847 2094 
Q 2847 2600 2669 2842 
Q 2491 3084 2119 3084 
Q 1678 3084 1418 2786 
Q 1159 2488 1159 1978 
L 1159 0 
L 581 0 
L 581 3500 
L 1159 3500 
L 1159 2956 
Q 1356 3278 1631 3431 
Q 1906 3584 2284 3584 
Q 2666 3584 2933 3390 
Q 3200 3197 3328 2828 
z
" transform="scale(0.015625)"/>
       <path id="DejaVuSans-78" d="M 3513 3500 
L 2247 1797 
L 3578 0 
L 2900 0 
L 1881 1375 
L 863 0 
L 184 0 
L 1544 1831 
L 300 3500 
L 978 3500 
L 1906 2253 
L 2834 3500 
L 3513 3500 
z
" transform="scale(0.015625)"/>
      </defs>
      <use xlink:href="#DejaVuSans-6d"/>
      <use xlink:href="#DejaVuSans-61" transform="translate(97.412109 0)"/>
      <use xlink:href="#DejaVuSans-78" transform="translate(158.691406 0)"/>
      <use xlink:href="#DejaVuSans-7c" transform="translate(217.871094 0)"/>
      <use xlink:href="#DejaVuSans-63" transform="translate(251.5625 0)"/>
      <use xlink:href="#DejaVuSans-5f" transform="translate(306.542969 0)"/>
      <use xlink:href="#DejaVuSans-73" transform="translate(356.542969 0)"/>
      <use xlink:href="#DejaVuSans-61" transform="translate(408.642578 0)"/>
      <use xlink:href="#DejaVuSans-6e" transform="translate(469.921875 0)"/>
      <use xlink:href="#DejaVuSans-64" transform="translate(533.300781 0)"/>
      <use xlink:href="#DejaVuSans-77" transform="translate(596.777344 0)"/>
      <use xlink:href="#DejaVuSans-69" transform="translate(678.564453 0)"/>
      <use xlink:href="#DejaVuSans-63" transform="translate(706.347656 0)"/>
      <use xlink:href="#DejaVuSans-68" transform="translate(761.328125 0)"/>
      <use xlink:href="#DejaVuSans-20" transform="translate(824.707031 0)"/>
      <use xlink:href="#DejaVuSans-2212" transform="translate(856.494141 0)"/>
      <use xlink:href="#DejaVuSans-20" transform="translate(940.283203 0)"/>
      <use xlink:href="#DejaVuSans-63" transform="translate(972.070312 0)"/>
      <use xlink:href="#DejaVuSans-5f" transform="translate(1027.050781 0)"/>
      <use xlink:href="#DejaVuSans-64" transform="translate(1077.050781 0)"/>
      <use xlink:href="#DejaVuSans-69" transform="translate(1140.527344 0)"/>
      <use xlink:href="#DejaVuSans-72" transform="translate(1168.310547 0)"/>
      <use xlink:href="#DejaVuSans-65" transform="translate(1207.173828 0)"/>
      <use xlink:href="#DejaVuSans-63" transform="translate(1268.697266 0)"/>
      <use xlink:href="#DejaVuSans-74" transform="translate(1323.677734 0)"/>
      <use xlink:href="#DejaVuSans-7c" transform="translate(1362.886719 0)"/>
     </g>
    </g>
   </g>
   <g id="line2d_43">
    <path d="M 461.206321 74.471636 
L 495.068086 211.331471 
L 596.653381 251.584364 
L 765.962206 106.67395 
" clip-path="url(#pd8381714cf)" style="fill: none; stroke: #8e44ad; stroke-width: 2; stroke-linecap: square"/>
    <defs>
     <path id="mef06aaecb3" d="M 0 3.5 
C 0.928211 3.5 1.81853 3.131218 2.474874 2.474874 
C 3.131218 1.81853 3.5 0.928211 3.5 0 
C 3.5 -0.928211 3.131218 -1.81853 2.474874 -2.474874 
C 1.81853 -3.131218 0.928211 -3.5 0 -3.5 
C -0.928211 -3.5 -1.81853 -3.131218 -2.474874 -2.474874 
C -3.131218 -1.81853 -3.5 -0.928211 -3.5 0 
C -3.5 0.928211 -3.131218 1.81853 -2.474874 2.474874 
C -1.81853 3.131218 -0.928211 3.5 0 3.5 
z
" style="stroke: #8e44ad"/>
    </defs>
    <g clip-path="url(#pd8381714cf)">
     <use xlink:href="#mef06aaecb3" x="461.206321" y="74.471636" style="fill: #8e44ad; stroke: #8e44ad"/>
     <use xlink:href="#mef06aaecb3" x="495.068086" y="211.331471" style="fill: #8e44ad; stroke: #8e44ad"/>
     <use xlink:href="#mef06aaecb3" x="596.653381" y="251.584364" style="fill: #8e44ad; stroke: #8e44ad"/>
     <use xlink:href="#mef06aaecb3" x="765.962206" y="106.67395" style="fill: #8e44ad; stroke: #8e44ad"/>
    </g>
   </g>
   <g id="line2d_44">
    <path d="M 445.968527 240.313554 
L 781.2 240.313554 
" clip-path="url(#pd8381714cf)" style="fill: none; stroke-dasharray: 3.7,1.6; stroke-dashoffset: 0; stroke: #808080"/>
   </g>
   <g id="patch_19">
    <path d="M 445.968527 260.44 
L 445.968527 65.616 
" style="fill: none; stroke: #000000; stroke-width: 0.8; stroke-linejoin: miter; stroke-linecap: square"/>
   </g>
   <g id="patch_20">
    <path d="M 781.2 260.44 
L 781.2 65.616 
" style="fill: none; stroke: #000000; stroke-width: 0.8; stroke-linejoin: miter; stroke-linecap: square"/>
   </g>
   <g id="patch_21">
    <path d="M 445.968527 260.44 
L 781.2 260.44 
" style="fill: none; stroke: #000000; stroke-width: 0.8; stroke-linejoin: miter; stroke-linecap: square"/>
   </g>
   <g id="patch_22">
    <path d="M 445.968527 65.616 
L 781.2 65.616 
" style="fill: none; stroke: #000000; stroke-width: 0.8; stroke-linejoin: miter; stroke-linecap: square"/>
   </g>
   <g id="patch_23">
    <path d="M 638.290948 173.287913 
Q 617.94168 211.553248 598.117362 248.831453 
" style="fill: none; stroke: #8e44ad; stroke-linecap: round"/>
    <path d="M 601.032523 246.757367 
L 598.117362 248.831453 
L 598.20719 245.254872 
" style="fill: none; stroke: #8e44ad; stroke-linecap: round"/>
   </g>
   <g id="text_25">
    <!-- the single point -->
    <g transform="translate(613.584263 158.900097) scale(0.08 -0.08)">
     <defs>
      <path id="DejaVuSans-67" d="M 2906 1791 
Q 2906 2416 2648 2759 
Q 2391 3103 1925 3103 
Q 1463 3103 1205 2759 
Q 947 2416 947 1791 
Q 947 1169 1205 825 
Q 1463 481 1925 481 
Q 2391 481 2648 825 
Q 2906 1169 2906 1791 
z
M 3481 434 
Q 3481 -459 3084 -895 
Q 2688 -1331 1869 -1331 
Q 1566 -1331 1297 -1286 
Q 1028 -1241 775 -1147 
L 775 -588 
Q 1028 -725 1275 -790 
Q 1522 -856 1778 -856 
Q 2344 -856 2625 -561 
Q 2906 -266 2906 331 
L 2906 616 
Q 2728 306 2450 153 
Q 2172 0 1784 0 
Q 1141 0 747 490 
Q 353 981 353 1791 
Q 353 2603 747 3093 
Q 1141 3584 1784 3584 
Q 2172 3584 2450 3431 
Q 2728 3278 2906 2969 
L 2906 3500 
L 3481 3500 
L 3481 434 
z
" transform="scale(0.015625)"/>
      <path id="DejaVuSans-70" d="M 1159 525 
L 1159 -1331 
L 581 -1331 
L 581 3500 
L 1159 3500 
L 1159 2969 
Q 1341 3281 1617 3432 
Q 1894 3584 2278 3584 
Q 2916 3584 3314 3078 
Q 3713 2572 3713 1747 
Q 3713 922 3314 415 
Q 2916 -91 2278 -91 
Q 1894 -91 1617 61 
Q 1341 213 1159 525 
z
M 3116 1747 
Q 3116 2381 2855 2742 
Q 2594 3103 2138 3103 
Q 1681 3103 1420 2742 
Q 1159 2381 1159 1747 
Q 1159 1113 1420 752 
Q 1681 391 2138 391 
Q 2594 391 2855 752 
Q 3116 1113 3116 1747 
z
" transform="scale(0.015625)"/>
     </defs>
     <use xlink:href="#DejaVuSans-74"/>
     <use xlink:href="#DejaVuSans-68" transform="translate(39.208984 0)"/>
     <use xlink:href="#DejaVuSans-65" transform="translate(102.587891 0)"/>
     <use xlink:href="#DejaVuSans-20" transform="translate(164.111328 0)"/>
     <use xlink:href="#DejaVuSans-73" transform="translate(195.898438 0)"/>
     <use xlink:href="#DejaVuSans-69" transform="translate(247.998047 0)"/>
     <use xlink:href="#DejaVuSans-6e" transform="translate(275.78125 0)"/>
     <use xlink:href="#DejaVuSans-67" transform="translate(339.160156 0)"/>
     <use xlink:href="#DejaVuSans-6c" transform="translate(402.636719 0)"/>
     <use xlink:href="#DejaVuSans-65" transform="translate(430.419922 0)"/>
     <use xlink:href="#DejaVuSans-20" transform="translate(491.943359 0)"/>
     <use xlink:href="#DejaVuSans-70" transform="translate(523.730469 0)"/>
     <use xlink:href="#DejaVuSans-6f" transform="translate(587.207031 0)"/>
     <use xlink:href="#DejaVuSans-69" transform="translate(648.388672 0)"/>
     <use xlink:href="#DejaVuSans-6e" transform="translate(676.171875 0)"/>
     <use xlink:href="#DejaVuSans-74" transform="translate(739.550781 0)"/>
    </g>
    <!-- we first tested -->
    <g transform="translate(613.584263 167.858347) scale(0.08 -0.08)">
     <use xlink:href="#DejaVuSans-77"/>
     <use xlink:href="#DejaVuSans-65" transform="translate(81.787109 0)"/>
     <use xlink:href="#DejaVuSans-20" transform="translate(143.310547 0)"/>
     <use xlink:href="#DejaVuSans-66" transform="translate(175.097656 0)"/>
     <use xlink:href="#DejaVuSans-69" transform="translate(210.302734 0)"/>
     <use xlink:href="#DejaVuSans-72" transform="translate(238.085938 0)"/>
     <use xlink:href="#DejaVuSans-73" transform="translate(279.199219 0)"/>
     <use xlink:href="#DejaVuSans-74" transform="translate(331.298828 0)"/>
     <use xlink:href="#DejaVuSans-20" transform="translate(370.507812 0)"/>
     <use xlink:href="#DejaVuSans-74" transform="translate(402.294922 0)"/>
     <use xlink:href="#DejaVuSans-65" transform="translate(441.503906 0)"/>
     <use xlink:href="#DejaVuSans-73" transform="translate(503.027344 0)"/>
     <use xlink:href="#DejaVuSans-74" transform="translate(555.126953 0)"/>
     <use xlink:href="#DejaVuSans-65" transform="translate(594.335938 0)"/>
     <use xlink:href="#DejaVuSans-64" transform="translate(655.859375 0)"/>
    </g>
   </g>
   <g id="text_26">
    <!-- AGREE threshold -->
    <g style="fill: #808080" transform="translate(467.978674 236.288264) scale(0.07 -0.07)">
     <defs>
      <path id="DejaVuSans-41" d="M 2188 4044 
L 1331 1722 
L 3047 1722 
L 2188 4044 
z
M 1831 4666 
L 2547 4666 
L 4325 0 
L 3669 0 
L 3244 1197 
L 1141 1197 
L 716 0 
L 50 0 
L 1831 4666 
z
" transform="scale(0.015625)"/>
      <path id="DejaVuSans-47" d="M 3809 666 
L 3809 1919 
L 2778 1919 
L 2778 2438 
L 4434 2438 
L 4434 434 
Q 4069 175 3628 42 
Q 3188 -91 2688 -91 
Q 1594 -91 976 548 
Q 359 1188 359 2328 
Q 359 3472 976 4111 
Q 1594 4750 2688 4750 
Q 3144 4750 3555 4637 
Q 3966 4525 4313 4306 
L 4313 3634 
Q 3963 3931 3569 4081 
Q 3175 4231 2741 4231 
Q 1884 4231 1454 3753 
Q 1025 3275 1025 2328 
Q 1025 1384 1454 906 
Q 1884 428 2741 428 
Q 3075 428 3337 486 
Q 3600 544 3809 666 
z
" transform="scale(0.015625)"/>
      <path id="DejaVuSans-52" d="M 2841 2188 
Q 3044 2119 3236 1894 
Q 3428 1669 3622 1275 
L 4263 0 
L 3584 0 
L 2988 1197 
Q 2756 1666 2539 1819 
Q 2322 1972 1947 1972 
L 1259 1972 
L 1259 0 
L 628 0 
L 628 4666 
L 2053 4666 
Q 2853 4666 3247 4331 
Q 3641 3997 3641 3322 
Q 3641 2881 3436 2590 
Q 3231 2300 2841 2188 
z
M 1259 4147 
L 1259 2491 
L 2053 2491 
Q 2509 2491 2742 2702 
Q 2975 2913 2975 3322 
Q 2975 3731 2742 3939 
Q 2509 4147 2053 4147 
L 1259 4147 
z
" transform="scale(0.015625)"/>
      <path id="DejaVuSans-45" d="M 628 4666 
L 3578 4666 
L 3578 4134 
L 1259 4134 
L 1259 2753 
L 3481 2753 
L 3481 2222 
L 1259 2222 
L 1259 531 
L 3634 531 
L 3634 0 
L 628 0 
L 628 4666 
z
" transform="scale(0.015625)"/>
     </defs>
     <use xlink:href="#DejaVuSans-41"/>
     <use xlink:href="#DejaVuSans-47" transform="translate(66.658203 0)"/>
     <use xlink:href="#DejaVuSans-52" transform="translate(144.148438 0)"/>
     <use xlink:href="#DejaVuSans-45" transform="translate(213.630859 0)"/>
     <use xlink:href="#DejaVuSans-45" transform="translate(276.814453 0)"/>
     <use xlink:href="#DejaVuSans-20" transform="translate(339.998047 0)"/>
     <use xlink:href="#DejaVuSans-74" transform="translate(371.785156 0)"/>
     <use xlink:href="#DejaVuSans-68" transform="translate(410.994141 0)"/>
     <use xlink:href="#DejaVuSans-72" transform="translate(474.373047 0)"/>
     <use xlink:href="#DejaVuSans-65" transform="translate(513.236328 0)"/>
     <use xlink:href="#DejaVuSans-73" transform="translate(574.759766 0)"/>
     <use xlink:href="#DejaVuSans-68" transform="translate(626.859375 0)"/>
     <use xlink:href="#DejaVuSans-6f" transform="translate(690.238281 0)"/>
     <use xlink:href="#DejaVuSans-6c" transform="translate(751.419922 0)"/>
     <use xlink:href="#DejaVuSans-64" transform="translate(779.203125 0)"/>
    </g>
   </g>
   <g id="text_27">
    <!-- Coefficient disagreement vs γ -->
    <g transform="translate(523.885201 46.178625) scale(0.12 -0.12)">
     <defs>
      <path id="DejaVuSans-43" d="M 4122 4306 
L 4122 3641 
Q 3803 3938 3442 4084 
Q 3081 4231 2675 4231 
Q 1875 4231 1450 3742 
Q 1025 3253 1025 2328 
Q 1025 1406 1450 917 
Q 1875 428 2675 428 
Q 3081 428 3442 575 
Q 3803 722 4122 1019 
L 4122 359 
Q 3791 134 3420 21 
Q 3050 -91 2638 -91 
Q 1578 -91 968 557 
Q 359 1206 359 2328 
Q 359 3453 968 4101 
Q 1578 4750 2638 4750 
Q 3056 4750 3426 4639 
Q 3797 4528 4122 4306 
z
" transform="scale(0.015625)"/>
     </defs>
     <use xlink:href="#DejaVuSans-43"/>
     <use xlink:href="#DejaVuSans-6f" transform="translate(69.824219 0)"/>
     <use xlink:href="#DejaVuSans-65" transform="translate(131.005859 0)"/>
     <use xlink:href="#DejaVuSans-66" transform="translate(192.529297 0)"/>
     <use xlink:href="#DejaVuSans-66" transform="translate(227.734375 0)"/>
     <use xlink:href="#DejaVuSans-69" transform="translate(262.939453 0)"/>
     <use xlink:href="#DejaVuSans-63" transform="translate(290.722656 0)"/>
     <use xlink:href="#DejaVuSans-69" transform="translate(345.703125 0)"/>
     <use xlink:href="#DejaVuSans-65" transform="translate(373.486328 0)"/>
     <use xlink:href="#DejaVuSans-6e" transform="translate(435.009766 0)"/>
     <use xlink:href="#DejaVuSans-74" transform="translate(498.388672 0)"/>
     <use xlink:href="#DejaVuSans-20" transform="translate(537.597656 0)"/>
     <use xlink:href="#DejaVuSans-64" transform="translate(569.384766 0)"/>
     <use xlink:href="#DejaVuSans-69" transform="translate(632.861328 0)"/>
     <use xlink:href="#DejaVuSans-73" transform="translate(660.644531 0)"/>
     <use xlink:href="#DejaVuSans-61" transform="translate(712.744141 0)"/>
     <use xlink:href="#DejaVuSans-67" transform="translate(774.023438 0)"/>
     <use xlink:href="#DejaVuSans-72" transform="translate(837.5 0)"/>
     <use xlink:href="#DejaVuSans-65" transform="translate(876.363281 0)"/>
     <use xlink:href="#DejaVuSans-65" transform="translate(937.886719 0)"/>
     <use xlink:href="#DejaVuSans-6d" transform="translate(999.410156 0)"/>
     <use xlink:href="#DejaVuSans-65" transform="translate(1096.822266 0)"/>
     <use xlink:href="#DejaVuSans-6e" transform="translate(1158.345703 0)"/>
     <use xlink:href="#DejaVuSans-74" transform="translate(1221.724609 0)"/>
     <use xlink:href="#DejaVuSans-20" transform="translate(1260.933594 0)"/>
     <use xlink:href="#DejaVuSans-76" transform="translate(1292.720703 0)"/>
     <use xlink:href="#DejaVuSans-73" transform="translate(1351.900391 0)"/>
     <use xlink:href="#DejaVuSans-20" transform="translate(1404 0)"/>
     <use xlink:href="#DejaVuSans-3b3" transform="translate(1435.787109 0)"/>
    </g>
    <!-- (γ=0.05 is the coincidental outlier) -->
    <g transform="translate(508.974263 59.616) scale(0.12 -0.12)">
     <defs>
      <path id="DejaVuSans-75" d="M 544 1381 
L 544 3500 
L 1119 3500 
L 1119 1403 
Q 1119 906 1312 657 
Q 1506 409 1894 409 
Q 2359 409 2629 706 
Q 2900 1003 2900 1516 
L 2900 3500 
L 3475 3500 
L 3475 0 
L 2900 0 
L 2900 538 
Q 2691 219 2414 64 
Q 2138 -91 1772 -91 
Q 1169 -91 856 284 
Q 544 659 544 1381 
z
M 1991 3584 
L 1991 3584 
z
" transform="scale(0.015625)"/>
     </defs>
     <use xlink:href="#DejaVuSans-28"/>
     <use xlink:href="#DejaVuSans-3b3" transform="translate(39.013672 0)"/>
     <use xlink:href="#DejaVuSans-3d" transform="translate(98.193359 0)"/>
     <use xlink:href="#DejaVuSans-30" transform="translate(181.982422 0)"/>
     <use xlink:href="#DejaVuSans-2e" transform="translate(245.605469 0)"/>
     <use xlink:href="#DejaVuSans-30" transform="translate(277.392578 0)"/>
     <use xlink:href="#DejaVuSans-35" transform="translate(341.015625 0)"/>
     <use xlink:href="#DejaVuSans-20" transform="translate(404.638672 0)"/>
     <use xlink:href="#DejaVuSans-69" transform="translate(436.425781 0)"/>
     <use xlink:href="#DejaVuSans-73" transform="translate(464.208984 0)"/>
     <use xlink:href="#DejaVuSans-20" transform="translate(516.308594 0)"/>
     <use xlink:href="#DejaVuSans-74" transform="translate(548.095703 0)"/>
     <use xlink:href="#DejaVuSans-68" transform="translate(587.304688 0)"/>
     <use xlink:href="#DejaVuSans-65" transform="translate(650.683594 0)"/>
     <use xlink:href="#DejaVuSans-20" transform="translate(712.207031 0)"/>
     <use xlink:href="#DejaVuSans-63" transform="translate(743.994141 0)"/>
     <use xlink:href="#DejaVuSans-6f" transform="translate(798.974609 0)"/>
     <use xlink:href="#DejaVuSans-69" transform="translate(860.15625 0)"/>
     <use xlink:href="#DejaVuSans-6e" transform="translate(887.939453 0)"/>
     <use xlink:href="#DejaVuSans-63" transform="translate(951.318359 0)"/>
     <use xlink:href="#DejaVuSans-69" transform="translate(1006.298828 0)"/>
     <use xlink:href="#DejaVuSans-64" transform="translate(1034.082031 0)"/>
     <use xlink:href="#DejaVuSans-65" transform="translate(1097.558594 0)"/>
     <use xlink:href="#DejaVuSans-6e" transform="translate(1159.082031 0)"/>
     <use xlink:href="#DejaVuSans-74" transform="translate(1222.460938 0)"/>
     <use xlink:href="#DejaVuSans-61" transform="translate(1261.669922 0)"/>
     <use xlink:href="#DejaVuSans-6c" transform="translate(1322.949219 0)"/>
     <use xlink:href="#DejaVuSans-20" transform="translate(1350.732422 0)"/>
     <use xlink:href="#DejaVuSans-6f" transform="translate(1382.519531 0)"/>
     <use xlink:href="#DejaVuSans-75" transform="translate(1443.701172 0)"/>
     <use xlink:href="#DejaVuSans-74" transform="translate(1507.080078 0)"/>
     <use xlink:href="#DejaVuSans-6c" transform="translate(1546.289062 0)"/>
     <use xlink:href="#DejaVuSans-69" transform="translate(1574.072266 0)"/>
     <use xlink:href="#DejaVuSans-65" transform="translate(1601.855469 0)"/>
     <use xlink:href="#DejaVuSans-72" transform="translate(1663.378906 0)"/>
     <use xlink:href="#DejaVuSans-29" transform="translate(1704.492188 0)"/>
    </g>
   </g>
  </g>
  <g id="text_28">
   <!-- Multi-γ confirmation: sandwich coefficients are NOT validated (n=5) -->
   <g transform="translate(165.049688 15.166125) scale(0.12 -0.12)">
    <defs>
     <path id="DejaVuSans-Bold-4d" d="M 588 4666 
L 2119 4666 
L 3181 2169 
L 4250 4666 
L 5778 4666 
L 5778 0 
L 4641 0 
L 4641 3413 
L 3566 897 
L 2803 897 
L 1728 3413 
L 1728 0 
L 588 0 
L 588 4666 
z
" transform="scale(0.015625)"/>
     <path id="DejaVuSans-Bold-75" d="M 500 1363 
L 500 3500 
L 1625 3500 
L 1625 3150 
Q 1625 2866 1622 2436 
Q 1619 2006 1619 1863 
Q 1619 1441 1641 1255 
Q 1663 1069 1716 984 
Q 1784 875 1895 815 
Q 2006 756 2150 756 
Q 2500 756 2700 1025 
Q 2900 1294 2900 1772 
L 2900 3500 
L 4019 3500 
L 4019 0 
L 2900 0 
L 2900 506 
Q 2647 200 2364 54 
Q 2081 -91 1741 -91 
Q 1134 -91 817 281 
Q 500 653 500 1363 
z
" transform="scale(0.015625)"/>
     <path id="DejaVuSans-Bold-6c" d="M 538 4863 
L 1656 4863 
L 1656 0 
L 538 0 
L 538 4863 
z
" transform="scale(0.015625)"/>
     <path id="DejaVuSans-Bold-74" d="M 1759 4494 
L 1759 3500 
L 2913 3500 
L 2913 2700 
L 1759 2700 
L 1759 1216 
Q 1759 972 1856 886 
Q 1953 800 2241 800 
L 2816 800 
L 2816 0 
L 1856 0 
Q 1194 0 917 276 
Q 641 553 641 1216 
L 641 2700 
L 84 2700 
L 84 3500 
L 641 3500 
L 641 4494 
L 1759 4494 
z
" transform="scale(0.015625)"/>
     <path id="DejaVuSans-Bold-69" d="M 538 3500 
L 1656 3500 
L 1656 0 
L 538 0 
L 538 3500 
z
M 538 4863 
L 1656 4863 
L 1656 3950 
L 538 3950 
L 538 4863 
z
" transform="scale(0.015625)"/>
     <path id="DejaVuSans-Bold-2d" d="M 347 2297 
L 2309 2297 
L 2309 1388 
L 347 1388 
L 347 2297 
z
" transform="scale(0.015625)"/>
     <path id="DejaVuSans-Bold-3b3" d="M 1769 2450 
L 2275 1100 
L 3144 3500 
L 4266 3500 
L 2834 0 
L 2834 -1331 
L 1716 -1331 
L 1716 0 
L 794 2350 
Q 688 2625 594 2675 
Q 425 2766 309 2766 
L 97 2766 
L 97 3500 
L 606 3500 
Q 819 3500 1294 3269 
Q 1500 3169 1769 2450 
z
" transform="scale(0.015625)"/>
     <path id="DejaVuSans-Bold-20" transform="scale(0.015625)"/>
     <path id="DejaVuSans-Bold-63" d="M 3366 3391 
L 3366 2478 
Q 3138 2634 2908 2709 
Q 2678 2784 2431 2784 
Q 1963 2784 1702 2511 
Q 1441 2238 1441 1747 
Q 1441 1256 1702 982 
Q 1963 709 2431 709 
Q 2694 709 2930 787 
Q 3166 866 3366 1019 
L 3366 103 
Q 3103 6 2833 -42 
Q 2563 -91 2291 -91 
Q 1344 -91 809 395 
Q 275 881 275 1747 
Q 275 2613 809 3098 
Q 1344 3584 2291 3584 
Q 2566 3584 2833 3536 
Q 3100 3488 3366 3391 
z
" transform="scale(0.015625)"/>
     <path id="DejaVuSans-Bold-6f" d="M 2203 2784 
Q 1831 2784 1636 2517 
Q 1441 2250 1441 1747 
Q 1441 1244 1636 976 
Q 1831 709 2203 709 
Q 2569 709 2762 976 
Q 2956 1244 2956 1747 
Q 2956 2250 2762 2517 
Q 2569 2784 2203 2784 
z
M 2203 3584 
Q 3106 3584 3614 3096 
Q 4122 2609 4122 1747 
Q 4122 884 3614 396 
Q 3106 -91 2203 -91 
Q 1297 -91 786 396 
Q 275 884 275 1747 
Q 275 2609 786 3096 
Q 1297 3584 2203 3584 
z
" transform="scale(0.015625)"/>
     <path id="DejaVuSans-Bold-6e" d="M 4056 2131 
L 4056 0 
L 2931 0 
L 2931 347 
L 2931 1631 
Q 2931 2084 2911 2256 
Q 2891 2428 2841 2509 
Q 2775 2619 2662 2680 
Q 2550 2741 2406 2741 
Q 2056 2741 1856 2470 
Q 1656 2200 1656 1722 
L 1656 0 
L 538 0 
L 538 3500 
L 1656 3500 
L 1656 2988 
Q 1909 3294 2193 3439 
Q 2478 3584 2822 3584 
Q 3428 3584 3742 3212 
Q 4056 2841 4056 2131 
z
" transform="scale(0.015625)"/>
     <path id="DejaVuSans-Bold-66" d="M 2841 4863 
L 2841 4128 
L 2222 4128 
Q 1984 4128 1890 4042 
Q 1797 3956 1797 3744 
L 1797 3500 
L 2753 3500 
L 2753 2700 
L 1797 2700 
L 1797 0 
L 678 0 
L 678 2700 
L 122 2700 
L 122 3500 
L 678 3500 
L 678 3744 
Q 678 4316 997 4589 
Q 1316 4863 1984 4863 
L 2841 4863 
z
" transform="scale(0.015625)"/>
     <path id="DejaVuSans-Bold-72" d="M 3138 2547 
Q 2991 2616 2845 2648 
Q 2700 2681 2553 2681 
Q 2122 2681 1889 2404 
Q 1656 2128 1656 1613 
L 1656 0 
L 538 0 
L 538 3500 
L 1656 3500 
L 1656 2925 
Q 1872 3269 2151 3426 
Q 2431 3584 2822 3584 
Q 2878 3584 2943 3579 
Q 3009 3575 3134 3559 
L 3138 2547 
z
" transform="scale(0.015625)"/>
     <path id="DejaVuSans-Bold-6d" d="M 3781 2919 
Q 3994 3244 4286 3414 
Q 4578 3584 4928 3584 
Q 5531 3584 5847 3212 
Q 6163 2841 6163 2131 
L 6163 0 
L 5038 0 
L 5038 1825 
Q 5041 1866 5042 1909 
Q 5044 1953 5044 2034 
Q 5044 2406 4934 2573 
Q 4825 2741 4581 2741 
Q 4263 2741 4089 2478 
Q 3916 2216 3909 1719 
L 3909 0 
L 2784 0 
L 2784 1825 
Q 2784 2406 2684 2573 
Q 2584 2741 2328 2741 
Q 2006 2741 1831 2477 
Q 1656 2213 1656 1722 
L 1656 0 
L 531 0 
L 531 3500 
L 1656 3500 
L 1656 2988 
Q 1863 3284 2130 3434 
Q 2397 3584 2719 3584 
Q 3081 3584 3359 3409 
Q 3638 3234 3781 2919 
z
" transform="scale(0.015625)"/>
     <path id="DejaVuSans-Bold-61" d="M 2106 1575 
Q 1756 1575 1579 1456 
Q 1403 1338 1403 1106 
Q 1403 894 1545 773 
Q 1688 653 1941 653 
Q 2256 653 2472 879 
Q 2688 1106 2688 1447 
L 2688 1575 
L 2106 1575 
z
M 3816 1997 
L 3816 0 
L 2688 0 
L 2688 519 
Q 2463 200 2181 54 
Q 1900 -91 1497 -91 
Q 953 -91 614 226 
Q 275 544 275 1050 
Q 275 1666 698 1953 
Q 1122 2241 2028 2241 
L 2688 2241 
L 2688 2328 
Q 2688 2594 2478 2717 
Q 2269 2841 1825 2841 
Q 1466 2841 1156 2769 
Q 847 2697 581 2553 
L 581 3406 
Q 941 3494 1303 3539 
Q 1666 3584 2028 3584 
Q 2975 3584 3395 3211 
Q 3816 2838 3816 1997 
z
" transform="scale(0.015625)"/>
     <path id="DejaVuSans-Bold-3a" d="M 716 3500 
L 1844 3500 
L 1844 2291 
L 716 2291 
L 716 3500 
z
M 716 1209 
L 1844 1209 
L 1844 0 
L 716 0 
L 716 1209 
z
" transform="scale(0.015625)"/>
     <path id="DejaVuSans-Bold-73" d="M 3272 3391 
L 3272 2541 
Q 2913 2691 2578 2766 
Q 2244 2841 1947 2841 
Q 1628 2841 1473 2761 
Q 1319 2681 1319 2516 
Q 1319 2381 1436 2309 
Q 1553 2238 1856 2203 
L 2053 2175 
Q 2913 2066 3209 1816 
Q 3506 1566 3506 1031 
Q 3506 472 3093 190 
Q 2681 -91 1863 -91 
Q 1516 -91 1145 -36 
Q 775 19 384 128 
L 384 978 
Q 719 816 1070 734 
Q 1422 653 1784 653 
Q 2113 653 2278 743 
Q 2444 834 2444 1013 
Q 2444 1163 2330 1236 
Q 2216 1309 1875 1350 
L 1678 1375 
Q 931 1469 631 1722 
Q 331 1975 331 2491 
Q 331 3047 712 3315 
Q 1094 3584 1881 3584 
Q 2191 3584 2531 3537 
Q 2872 3491 3272 3391 
z
" transform="scale(0.015625)"/>
     <path id="DejaVuSans-Bold-64" d="M 2919 2988 
L 2919 4863 
L 4044 4863 
L 4044 0 
L 2919 0 
L 2919 506 
Q 2688 197 2409 53 
Q 2131 -91 1766 -91 
Q 1119 -91 703 423 
Q 288 938 288 1747 
Q 288 2556 703 3070 
Q 1119 3584 1766 3584 
Q 2128 3584 2408 3439 
Q 2688 3294 2919 2988 
z
M 2181 722 
Q 2541 722 2730 984 
Q 2919 1247 2919 1747 
Q 2919 2247 2730 2509 
Q 2541 2772 2181 2772 
Q 1825 2772 1636 2509 
Q 1447 2247 1447 1747 
Q 1447 1247 1636 984 
Q 1825 722 2181 722 
z
" transform="scale(0.015625)"/>
     <path id="DejaVuSans-Bold-77" d="M 225 3500 
L 1313 3500 
L 1900 1088 
L 2491 3500 
L 3425 3500 
L 4013 1113 
L 4603 3500 
L 5691 3500 
L 4769 0 
L 3547 0 
L 2956 2406 
L 2369 0 
L 1147 0 
L 225 3500 
z
" transform="scale(0.015625)"/>
     <path id="DejaVuSans-Bold-68" d="M 4056 2131 
L 4056 0 
L 2931 0 
L 2931 347 
L 2931 1625 
Q 2931 2084 2911 2256 
Q 2891 2428 2841 2509 
Q 2775 2619 2662 2680 
Q 2550 2741 2406 2741 
Q 2056 2741 1856 2470 
Q 1656 2200 1656 1722 
L 1656 0 
L 538 0 
L 538 4863 
L 1656 4863 
L 1656 2988 
Q 1909 3294 2193 3439 
Q 2478 3584 2822 3584 
Q 3428 3584 3742 3212 
Q 4056 2841 4056 2131 
z
" transform="scale(0.015625)"/>
     <path id="DejaVuSans-Bold-65" d="M 4031 1759 
L 4031 1441 
L 1416 1441 
Q 1456 1047 1700 850 
Q 1944 653 2381 653 
Q 2734 653 3104 758 
Q 3475 863 3866 1075 
L 3866 213 
Q 3469 63 3072 -14 
Q 2675 -91 2278 -91 
Q 1328 -91 801 392 
Q 275 875 275 1747 
Q 275 2603 792 3093 
Q 1309 3584 2216 3584 
Q 3041 3584 3536 3087 
Q 4031 2591 4031 1759 
z
M 2881 2131 
Q 2881 2450 2695 2645 
Q 2509 2841 2209 2841 
Q 1884 2841 1681 2658 
Q 1478 2475 1428 2131 
L 2881 2131 
z
" transform="scale(0.015625)"/>
     <path id="DejaVuSans-Bold-4e" d="M 588 4666 
L 1931 4666 
L 3628 1466 
L 3628 4666 
L 4769 4666 
L 4769 0 
L 3425 0 
L 1728 3200 
L 1728 0 
L 588 0 
L 588 4666 
z
" transform="scale(0.015625)"/>
     <path id="DejaVuSans-Bold-4f" d="M 2719 3878 
Q 2169 3878 1866 3472 
Q 1563 3066 1563 2328 
Q 1563 1594 1866 1187 
Q 2169 781 2719 781 
Q 3272 781 3575 1187 
Q 3878 1594 3878 2328 
Q 3878 3066 3575 3472 
Q 3272 3878 2719 3878 
z
M 2719 4750 
Q 3844 4750 4481 4106 
Q 5119 3463 5119 2328 
Q 5119 1197 4481 553 
Q 3844 -91 2719 -91 
Q 1597 -91 958 553 
Q 319 1197 319 2328 
Q 319 3463 958 4106 
Q 1597 4750 2719 4750 
z
" transform="scale(0.015625)"/>
     <path id="DejaVuSans-Bold-54" d="M 31 4666 
L 4331 4666 
L 4331 3756 
L 2784 3756 
L 2784 0 
L 1581 0 
L 1581 3756 
L 31 3756 
L 31 4666 
z
" transform="scale(0.015625)"/>
     <path id="DejaVuSans-Bold-76" d="M 97 3500 
L 1216 3500 
L 2088 1081 
L 2956 3500 
L 4078 3500 
L 2700 0 
L 1472 0 
L 97 3500 
z
" transform="scale(0.015625)"/>
     <path id="DejaVuSans-Bold-28" d="M 2413 -844 
L 1484 -844 
Q 1006 -72 778 623 
Q 550 1319 550 2003 
Q 550 2688 779 3389 
Q 1009 4091 1484 4856 
L 2413 4856 
Q 2013 4116 1813 3408 
Q 1613 2700 1613 2009 
Q 1613 1319 1811 609 
Q 2009 -100 2413 -844 
z
" transform="scale(0.015625)"/>
     <path id="DejaVuSans-Bold-3d" d="M 678 3084 
L 4684 3084 
L 4684 2350 
L 678 2350 
L 678 3084 
z
M 678 1663 
L 4684 1663 
L 4684 922 
L 678 922 
L 678 1663 
z
" transform="scale(0.015625)"/>
     <path id="DejaVuSans-Bold-35" d="M 678 4666 
L 3669 4666 
L 3669 3781 
L 1638 3781 
L 1638 3059 
Q 1775 3097 1914 3117 
Q 2053 3138 2203 3138 
Q 3056 3138 3531 2711 
Q 4006 2284 4006 1522 
Q 4006 766 3489 337 
Q 2972 -91 2053 -91 
Q 1656 -91 1267 -14 
Q 878 63 494 219 
L 494 1166 
Q 875 947 1217 837 
Q 1559 728 1863 728 
Q 2300 728 2551 942 
Q 2803 1156 2803 1522 
Q 2803 1891 2551 2103 
Q 2300 2316 1863 2316 
Q 1603 2316 1309 2248 
Q 1016 2181 678 2041 
L 678 4666 
z
" transform="scale(0.015625)"/>
     <path id="DejaVuSans-Bold-29" d="M 513 -844 
Q 913 -100 1113 609 
Q 1313 1319 1313 2009 
Q 1313 2700 1113 3408 
Q 913 4116 513 4856 
L 1441 4856 
Q 1916 4091 2145 3389 
Q 2375 2688 2375 2003 
Q 2375 1319 2147 623 
Q 1919 -72 1441 -844 
L 513 -844 
z
" transform="scale(0.015625)"/>
    </defs>
    <use xlink:href="#DejaVuSans-Bold-4d"/>
    <use xlink:href="#DejaVuSans-Bold-75" transform="translate(99.511719 0)"/>
    <use xlink:href="#DejaVuSans-Bold-6c" transform="translate(170.703125 0)"/>
    <use xlink:href="#DejaVuSans-Bold-74" transform="translate(204.980469 0)"/>
    <use xlink:href="#DejaVuSans-Bold-69" transform="translate(252.783203 0)"/>
    <use xlink:href="#DejaVuSans-Bold-2d" transform="translate(287.060547 0)"/>
    <use xlink:href="#DejaVuSans-Bold-3b3" transform="translate(328.564453 0)"/>
    <use xlink:href="#DejaVuSans-Bold-20" transform="translate(396.679688 0)"/>
    <use xlink:href="#DejaVuSans-Bold-63" transform="translate(431.494141 0)"/>
    <use xlink:href="#DejaVuSans-Bold-6f" transform="translate(490.771484 0)"/>
    <use xlink:href="#DejaVuSans-Bold-6e" transform="translate(559.472656 0)"/>
    <use xlink:href="#DejaVuSans-Bold-66" transform="translate(630.664062 0)"/>
    <use xlink:href="#DejaVuSans-Bold-69" transform="translate(674.169922 0)"/>
    <use xlink:href="#DejaVuSans-Bold-72" transform="translate(708.447266 0)"/>
    <use xlink:href="#DejaVuSans-Bold-6d" transform="translate(757.763672 0)"/>
    <use xlink:href="#DejaVuSans-Bold-61" transform="translate(861.962891 0)"/>
    <use xlink:href="#DejaVuSans-Bold-74" transform="translate(929.443359 0)"/>
    <use xlink:href="#DejaVuSans-Bold-69" transform="translate(977.246094 0)"/>
    <use xlink:href="#DejaVuSans-Bold-6f" transform="translate(1011.523438 0)"/>
    <use xlink:href="#DejaVuSans-Bold-6e" transform="translate(1080.224609 0)"/>
    <use xlink:href="#DejaVuSans-Bold-3a" transform="translate(1151.416016 0)"/>
    <use xlink:href="#DejaVuSans-Bold-20" transform="translate(1191.40625 0)"/>
    <use xlink:href="#DejaVuSans-Bold-73" transform="translate(1226.220703 0)"/>
    <use xlink:href="#DejaVuSans-Bold-61" transform="translate(1285.742188 0)"/>
    <use xlink:href="#DejaVuSans-Bold-6e" transform="translate(1353.222656 0)"/>
    <use xlink:href="#DejaVuSans-Bold-64" transform="translate(1424.414062 0)"/>
    <use xlink:href="#DejaVuSans-Bold-77" transform="translate(1495.996094 0)"/>
    <use xlink:href="#DejaVuSans-Bold-69" transform="translate(1588.378906 0)"/>
    <use xlink:href="#DejaVuSans-Bold-63" transform="translate(1622.65625 0)"/>
    <use xlink:href="#DejaVuSans-Bold-68" transform="translate(1681.933594 0)"/>
    <use xlink:href="#DejaVuSans-Bold-20" transform="translate(1753.125 0)"/>
    <use xlink:href="#DejaVuSans-Bold-63" transform="translate(1787.939453 0)"/>
    <use xlink:href="#DejaVuSans-Bold-6f" transform="translate(1847.216797 0)"/>
    <use xlink:href="#DejaVuSans-Bold-65" transform="translate(1915.917969 0)"/>
    <use xlink:href="#DejaVuSans-Bold-66" transform="translate(1983.740234 0)"/>
    <use xlink:href="#DejaVuSans-Bold-66" transform="translate(2027.246094 0)"/>
    <use xlink:href="#DejaVuSans-Bold-69" transform="translate(2070.751953 0)"/>
    <use xlink:href="#DejaVuSans-Bold-63" transform="translate(2105.029297 0)"/>
    <use xlink:href="#DejaVuSans-Bold-69" transform="translate(2164.306641 0)"/>
    <use xlink:href="#DejaVuSans-Bold-65" transform="translate(2198.583984 0)"/>
    <use xlink:href="#DejaVuSans-Bold-6e" transform="translate(2266.40625 0)"/>
    <use xlink:href="#DejaVuSans-Bold-74" transform="translate(2337.597656 0)"/>
    <use xlink:href="#DejaVuSans-Bold-73" transform="translate(2385.400391 0)"/>
    <use xlink:href="#DejaVuSans-Bold-20" transform="translate(2444.921875 0)"/>
    <use xlink:href="#DejaVuSans-Bold-61" transform="translate(2479.736328 0)"/>
    <use xlink:href="#DejaVuSans-Bold-72" transform="translate(2547.216797 0)"/>
    <use xlink:href="#DejaVuSans-Bold-65" transform="translate(2596.533203 0)"/>
    <use xlink:href="#DejaVuSans-Bold-20" transform="translate(2664.355469 0)"/>
    <use xlink:href="#DejaVuSans-Bold-4e" transform="translate(2699.169922 0)"/>
    <use xlink:href="#DejaVuSans-Bold-4f" transform="translate(2782.861328 0)"/>
    <use xlink:href="#DejaVuSans-Bold-54" transform="translate(2867.871094 0)"/>
    <use xlink:href="#DejaVuSans-Bold-20" transform="translate(2936.083984 0)"/>
    <use xlink:href="#DejaVuSans-Bold-76" transform="translate(2970.898438 0)"/>
    <use xlink:href="#DejaVuSans-Bold-61" transform="translate(3036.083984 0)"/>
    <use xlink:href="#DejaVuSans-Bold-6c" transform="translate(3103.564453 0)"/>
    <use xlink:href="#DejaVuSans-Bold-69" transform="translate(3137.841797 0)"/>
    <use xlink:href="#DejaVuSans-Bold-64" transform="translate(3172.119141 0)"/>
    <use xlink:href="#DejaVuSans-Bold-61" transform="translate(3243.701172 0)"/>
    <use xlink:href="#DejaVuSans-Bold-74" transform="translate(3311.181641 0)"/>
    <use xlink:href="#DejaVuSans-Bold-65" transform="translate(3358.984375 0)"/>
    <use xlink:href="#DejaVuSans-Bold-64" transform="translate(3426.806641 0)"/>
    <use xlink:href="#DejaVuSans-Bold-20" transform="translate(3498.388672 0)"/>
    <use xlink:href="#DejaVuSans-Bold-28" transform="translate(3533.203125 0)"/>
    <use xlink:href="#DejaVuSans-Bold-6e" transform="translate(3578.90625 0)"/>
    <use xlink:href="#DejaVuSans-Bold-3d" transform="translate(3650.097656 0)"/>
    <use xlink:href="#DejaVuSans-Bold-35" transform="translate(3733.886719 0)"/>
    <use xlink:href="#DejaVuSans-Bold-29" transform="translate(3803.466797 0)"/>
   </g>
  </g>
 </g>
 <defs>
  <clipPath id="pe38305e80f">
   <rect x="56.357054" y="65.616" width="335.231473" height="194.824"/>
  </clipPath>
  <clipPath id="pd8381714cf">
   <rect x="445.968527" y="65.616" width="335.231473" height="194.824"/>
  </clipPath>
 </defs>
</svg>
